<svg width="375" height="68" viewBox="0 0 375 68" fill="none" xmlns="http://www.w3.org/2000/svg">
<rect x="0.5" y="0.5" width="374" height="67" rx="3.5" fill="white"/>
<rect x="0.5" y="0.5" width="374" height="67" rx="3.5" stroke="#D6D8DC" stroke-dasharray="2 2"/>
<path d="M41.5 36.5V39.8333C41.5 40.2754 41.3244 40.6993 41.0118 41.0118C40.6993 41.3244 40.2754 41.5 39.8333 41.5H28.1667C27.7246 41.5 27.3007 41.3244 26.9882 41.0118C26.6756 40.6993 26.5 40.2754 26.5 39.8333V36.5M29.8333 32.3333L34 36.5M34 36.5L38.1667 32.3333M34 36.5V26.5" stroke="black" stroke-width="1.5" stroke-linecap="round" stroke-linejoin="round"/>
<path d="M55.4922 29V17.7266H60.0234C62.1406 17.7266 63.4141 18.8047 63.4141 20.5312V20.5469C63.4141 21.7188 62.5469 22.7734 61.4375 22.9609V23.0938C62.9609 23.2578 63.9766 24.3359 63.9766 25.8047V25.8203C63.9766 27.7969 62.5312 29 60.125 29H55.4922ZM59.6172 19.1562H57.2422V22.5234H59.3203C60.8672 22.5234 61.6719 21.9453 61.6719 20.8516V20.8359C61.6719 19.7734 60.9141 19.1562 59.6172 19.1562ZM59.6719 23.8594H57.2422V27.5703H59.7734C61.3516 27.5703 62.1875 26.9219 62.1875 25.7109V25.6953C62.1875 24.4844 61.3203 23.8594 59.6719 23.8594ZM65.8597 29V20.5156H67.555V23.1484H69.2191C71.1878 23.1484 72.4456 24.2812 72.4456 26.0625V26.0781C72.4456 27.8672 71.1878 29 69.2191 29H65.8597ZM73.8753 29V20.5156H75.5706V29H73.8753ZM69.0784 24.4844H67.555V27.6641H69.0784C70.1019 27.6641 70.7425 27.0234 70.7425 26.0781V26.0625C70.7425 25.1094 70.0941 24.4844 69.0784 24.4844ZM81.5006 29.1641C78.8366 29.1641 77.4381 27.3672 77.4381 24V23.9844C77.4381 19.5312 78.7506 17.5625 81.8209 17.4297L82.7584 17.3906C83.4459 17.3594 84.2741 17.2344 84.9772 16.9688V18.3828C84.6803 18.6094 83.7897 18.7969 82.8444 18.8359L81.9225 18.875C79.9772 18.9531 79.1178 19.8438 78.8209 22.0469L78.7975 22.2109H78.9303C79.4928 21.1953 80.4928 20.6406 81.7975 20.6406C84.0631 20.6406 85.5319 22.25 85.5319 24.7656V24.7812C85.5319 27.4766 83.9928 29.1641 81.5006 29.1641ZM81.485 27.75C82.9538 27.75 83.8053 26.6562 83.8053 24.8047V24.7891C83.8053 23.0312 82.9538 22.0234 81.485 22.0234C80.0084 22.0234 79.1647 23.0312 79.1647 24.7891V24.8047C79.1647 26.6562 80.0084 27.75 81.485 27.75ZM90.9619 29.1641C88.4775 29.1641 86.9775 27.4688 86.9775 24.7812V24.7734C86.9775 22.125 88.5088 20.3516 90.8759 20.3516C93.2431 20.3516 94.6963 22.0625 94.6963 24.6094V25.2031H88.6806C88.7119 26.8281 89.6025 27.7734 91.0009 27.7734C92.0869 27.7734 92.7353 27.2344 92.9384 26.7969L92.9697 26.7344L94.6025 26.7266L94.5869 26.7969C94.3056 27.9141 93.1338 29.1641 90.9619 29.1641ZM90.8838 21.7422C89.7275 21.7422 88.8525 22.5312 88.7041 23.9922H93.0166C92.8838 22.4766 92.0322 21.7422 90.8838 21.7422ZM96.5481 31.8281V20.5156H98.2434V21.8516H98.3684C98.8606 20.9219 99.7903 20.3672 100.978 20.3672C103.118 20.3672 104.493 22.0781 104.493 24.75V24.7656C104.493 27.4531 103.134 29.1406 100.978 29.1406C99.8138 29.1406 98.8216 28.5703 98.3684 27.6562H98.2434V31.8281H96.5481ZM100.501 27.6953C101.915 27.6953 102.767 26.5859 102.767 24.7656V24.75C102.767 22.9219 101.915 21.8203 100.501 21.8203C99.0872 21.8203 98.2122 22.9375 98.2122 24.75V24.7656C98.2122 26.5781 99.0872 27.6953 100.501 27.6953ZM106.361 29V20.5156H108.041V26.4688H108.189L112.025 20.5156H113.705V29H112.025V23.0234H111.877L108.041 29H106.361ZM122.322 20.5156V21.8516H119.65V29H117.955V21.8516H115.283V20.5156H122.322ZM127.182 29.1641C124.698 29.1641 123.198 27.4688 123.198 24.7812V24.7734C123.198 22.125 124.729 20.3516 127.096 20.3516C129.463 20.3516 130.916 22.0625 130.916 24.6094V25.2031H124.901C124.932 26.8281 125.823 27.7734 127.221 27.7734C128.307 27.7734 128.955 27.2344 129.158 26.7969L129.19 26.7344L130.823 26.7266L130.807 26.7969C130.526 27.9141 129.354 29.1641 127.182 29.1641ZM127.104 21.7422C125.948 21.7422 125.073 22.5312 124.924 23.9922H129.237C129.104 22.4766 128.252 21.7422 127.104 21.7422ZM136.815 29V20.5156H138.495V26.4688H138.643L142.479 20.5156H144.159V29H142.479V23.0234H142.331L138.495 29H136.815ZM148.698 25.4766C148.527 27.875 147.792 29.0781 146.191 29.0781C145.87 29.0781 145.628 29.0234 145.511 28.9844V27.5078C145.589 27.5312 145.8 27.5625 146.011 27.5625C146.792 27.5625 147.081 26.5781 147.159 25.3438L147.488 20.5156H153.347V29H151.652V21.8516H148.972L148.698 25.4766ZM155.613 29V20.5156H157.293V26.4688H157.441L161.277 20.5156H162.957V29H161.277V23.0234H161.128L157.293 29H155.613ZM169.285 29V20.5156H176.442V29H174.754V21.8516H170.981V29H169.285ZM182.27 29.1641C179.786 29.1641 178.286 27.4688 178.286 24.7812V24.7734C178.286 22.125 179.817 20.3516 182.184 20.3516C184.551 20.3516 186.004 22.0625 186.004 24.6094V25.2031H179.989C180.02 26.8281 180.911 27.7734 182.309 27.7734C183.395 27.7734 184.043 27.2344 184.247 26.7969L184.278 26.7344L185.911 26.7266L185.895 26.7969C185.614 27.9141 184.442 29.1641 182.27 29.1641ZM182.192 21.7422C181.036 21.7422 180.161 22.5312 180.012 23.9922H184.325C184.192 22.4766 183.34 21.7422 182.192 21.7422ZM187.856 31.8281V20.5156H189.552V21.8516H189.677C190.169 20.9219 191.098 20.3672 192.286 20.3672C194.427 20.3672 195.802 22.0781 195.802 24.75V24.7656C195.802 27.4531 194.442 29.1406 192.286 29.1406C191.122 29.1406 190.13 28.5703 189.677 27.6562H189.552V31.8281H187.856ZM191.809 27.6953C193.223 27.6953 194.075 26.5859 194.075 24.7656V24.75C194.075 22.9219 193.223 21.8203 191.809 21.8203C190.395 21.8203 189.52 22.9375 189.52 24.75V24.7656C189.52 26.5781 190.395 27.6953 191.809 27.6953ZM201.239 29.1641C198.755 29.1641 197.255 27.4688 197.255 24.7812V24.7734C197.255 22.125 198.786 20.3516 201.153 20.3516C203.521 20.3516 204.974 22.0625 204.974 24.6094V25.2031H198.958C198.989 26.8281 199.88 27.7734 201.278 27.7734C202.364 27.7734 203.013 27.2344 203.216 26.7969L203.247 26.7344L204.88 26.7266L204.864 26.7969C204.583 27.9141 203.411 29.1641 201.239 29.1641ZM201.161 21.7422C200.005 21.7422 199.13 22.5312 198.982 23.9922H203.294C203.161 22.4766 202.31 21.7422 201.161 21.7422ZM212.63 20.5156V21.8516H209.958V29H208.263V21.8516H205.591V20.5156H212.63ZM216.412 29.1406C214.795 29.1406 213.599 28.1562 213.599 26.6172V26.6016C213.599 25.0859 214.74 24.2031 216.763 24.0781L219.06 23.9453V23.1953C219.06 22.2656 218.474 21.75 217.326 21.75C216.388 21.75 215.771 22.0938 215.568 22.6953L215.56 22.7266H213.928L213.935 22.6719C214.138 21.2812 215.474 20.3516 217.404 20.3516C219.537 20.3516 220.74 21.4141 220.74 23.1953V29H219.06V27.7969H218.928C218.428 28.6562 217.537 29.1406 216.412 29.1406ZM215.287 26.5469C215.287 27.3281 215.951 27.7891 216.865 27.7891C218.131 27.7891 219.06 26.9609 219.06 25.8672V25.1406L216.99 25.2734C215.818 25.3438 215.287 25.7656 215.287 26.5312V26.5469ZM222.959 29V20.5156H224.654V27.6484H227.561V20.5156H229.256V27.6484H232.162V20.5156H233.857V27.6641H235.209V31.2266H233.623V29H222.959ZM236.592 29V20.5156H238.272V26.4688H238.42L242.256 20.5156H243.936V29H242.256V23.0234H242.108L238.272 29H236.592ZM252.553 20.5156V21.8516H249.882V29H248.186V21.8516H245.514V20.5156H252.553ZM257.413 29.1641C254.929 29.1641 253.429 27.4688 253.429 24.7812V24.7734C253.429 22.125 254.96 20.3516 257.327 20.3516C259.694 20.3516 261.148 22.0625 261.148 24.6094V25.2031H255.132C255.163 26.8281 256.054 27.7734 257.452 27.7734C258.538 27.7734 259.187 27.2344 259.39 26.7969L259.421 26.7344L261.054 26.7266L261.038 26.7969C260.757 27.9141 259.585 29.1641 257.413 29.1641ZM257.335 21.7422C256.179 21.7422 255.304 22.5312 255.155 23.9922H259.468C259.335 22.4766 258.483 21.7422 257.335 21.7422ZM270.625 29.1641C268.148 29.1641 266.633 27.4766 266.633 24.7344V24.7188C266.633 22.0312 268.14 20.3516 270.617 20.3516C272.75 20.3516 274.023 21.5547 274.258 23.2031V23.2422L272.633 23.25L272.625 23.2266C272.437 22.3906 271.75 21.7656 270.625 21.7656C269.211 21.7656 268.359 22.8906 268.359 24.7188V24.7344C268.359 26.6094 269.226 27.75 270.625 27.75C271.687 27.75 272.343 27.2656 272.617 26.3516L272.633 26.3125H274.258L274.242 26.3828C273.937 28.0312 272.726 29.1641 270.625 29.1641ZM276.008 29V20.5156H277.703V23.9375H279.141C279.414 21.6875 280.859 20.3438 283.031 20.3438C285.469 20.3438 286.984 22.0078 286.984 24.75V24.7656C286.984 27.5156 285.477 29.1641 283.031 29.1641C280.758 29.1641 279.297 27.7188 279.109 25.2891H277.703V29H276.008ZM283.031 27.75C284.445 27.75 285.25 26.6562 285.25 24.7656V24.75C285.25 22.8594 284.445 21.7578 283.031 21.7578C281.617 21.7578 280.812 22.8594 280.812 24.75V24.7656C280.812 26.6562 281.617 27.75 283.031 27.75ZM289.297 31.2266H287.735V27.6484H288.422C289.047 27.2656 289.328 26.2266 289.407 25.0859L289.719 20.5156H295.844V27.6484H297.172V31.2266H295.617V29H289.297V31.2266ZM294.157 27.6484V21.8672H291.18L290.946 25.1562C290.867 26.1328 290.664 26.9922 290.282 27.5156V27.6484H294.157ZM300.891 29.1406C299.274 29.1406 298.079 28.1562 298.079 26.6172V26.6016C298.079 25.0859 299.219 24.2031 301.243 24.0781L303.54 23.9453V23.1953C303.54 22.2656 302.954 21.75 301.805 21.75C300.868 21.75 300.251 22.0938 300.048 22.6953L300.04 22.7266H298.407L298.415 22.6719C298.618 21.2812 299.954 20.3516 301.883 20.3516C304.016 20.3516 305.219 21.4141 305.219 23.1953V29H303.54V27.7969H303.407C302.907 28.6562 302.016 29.1406 300.891 29.1406ZM299.766 26.5469C299.766 27.3281 300.43 27.7891 301.344 27.7891C302.61 27.7891 303.54 26.9609 303.54 25.8672V25.1406L301.469 25.2734C300.298 25.3438 299.766 25.7656 299.766 26.5312V26.5469ZM315.533 31.8281V29.1094C312.837 29.0547 311.079 27.3906 311.079 24.7656V24.75C311.079 22.125 312.853 20.4531 315.533 20.4062V17.6875H317.173V20.4062C319.853 20.4609 321.611 22.1172 321.611 24.75V24.7656C321.611 27.3906 319.845 29.0625 317.173 29.1094V31.8281H315.533ZM315.533 27.7422V21.7734C313.861 21.8125 312.783 22.9297 312.783 24.75V24.7656C312.783 26.5859 313.853 27.6953 315.533 27.7422ZM317.165 27.7422C318.829 27.7031 319.908 26.5859 319.908 24.7656V24.75C319.908 22.9297 318.837 21.8125 317.165 21.7734V27.7422ZM325.791 29.1406C324.173 29.1406 322.978 28.1562 322.978 26.6172V26.6016C322.978 25.0859 324.119 24.2031 326.142 24.0781L328.439 23.9453V23.1953C328.439 22.2656 327.853 21.75 326.705 21.75C325.767 21.75 325.15 22.0938 324.947 22.6953L324.939 22.7266H323.306L323.314 22.6719C323.517 21.2812 324.853 20.3516 326.783 20.3516C328.916 20.3516 330.119 21.4141 330.119 23.1953V29H328.439V27.7969H328.306C327.806 28.6562 326.916 29.1406 325.791 29.1406ZM324.666 26.5469C324.666 27.3281 325.33 27.7891 326.244 27.7891C327.509 27.7891 328.439 26.9609 328.439 25.8672V25.1406L326.369 25.2734C325.197 25.3438 324.666 25.7656 324.666 26.5312V26.5469ZM336.017 19.3438C334.338 19.3438 333.228 18.2266 333.228 16.7266H334.619C334.627 17.5703 335.158 18.3047 336.017 18.3047C336.885 18.3047 337.4 17.5703 337.408 16.7266H338.799C338.799 18.2266 337.689 19.3438 336.017 19.3438ZM332.338 29V20.5156H334.017V26.4688H334.166L338.002 20.5156H339.682V29H338.002V23.0234H337.853L334.017 29H332.338ZM344.221 25.4766C344.049 27.875 343.315 29.0781 341.713 29.0781C341.393 29.0781 341.151 29.0234 341.033 28.9844V27.5078C341.112 27.5312 341.323 27.5625 341.533 27.5625C342.315 27.5625 342.604 26.5781 342.682 25.3438L343.01 20.5156H348.869V29H347.174V21.8516H344.494L344.221 25.4766Z" fill="#0C0D0E"/>
<path d="M56.0781 52.0684C55.5928 52.0684 55.1895 51.665 55.1895 51.1797C55.1895 50.6875 55.5928 50.291 56.0781 50.291C56.5703 50.291 56.9668 50.6875 56.9668 51.1797C56.9668 51.665 56.5703 52.0684 56.0781 52.0684ZM61.4544 52.0547C59.9368 52.0547 59.3011 51.4941 59.3011 50.0859V45.6152H58.139V44.6309H59.3011V42.7236H60.5315V44.6309H62.1448V45.6152H60.5315V49.7852C60.5315 50.6533 60.8323 51.002 61.598 51.002C61.8099 51.002 61.9261 50.9951 62.1448 50.9746V51.9863C61.9124 52.0273 61.6868 52.0547 61.4544 52.0547ZM63.1803 52L65.7027 48.3154L63.1529 44.6309H64.5543L66.3043 47.3721H66.4137L68.1432 44.6309H69.4762L66.9742 48.2676L69.5104 52H68.1158L66.3727 49.2178H66.2633L64.5133 52H63.1803ZM73.5741 52.0547C72.0566 52.0547 71.4208 51.4941 71.4208 50.0859V45.6152H70.2587V44.6309H71.4208V42.7236H72.6513V44.6309H74.2646V45.6152H72.6513V49.7852C72.6513 50.6533 72.9521 51.002 73.7177 51.002C73.9296 51.002 74.0458 50.9951 74.2646 50.9746V51.9863C74.0321 52.0273 73.8066 52.0547 73.5741 52.0547ZM80.6421 52.0684C80.1568 52.0684 79.7534 51.665 79.7534 51.1797C79.7534 50.6875 80.1568 50.291 80.6421 50.291C81.1343 50.291 81.5308 50.6875 81.5308 51.1797C81.5308 51.665 81.1343 52.0684 80.6421 52.0684ZM83.6737 54.4609V44.6309H84.8631V45.8066H84.9725C85.4237 44.9863 86.244 44.501 87.2694 44.501C89.1356 44.501 90.3592 46.0117 90.3592 48.3086V48.3223C90.3592 50.6328 89.1424 52.1299 87.2694 52.1299C86.2576 52.1299 85.3758 51.624 84.9725 50.8379H84.8631V54.4609H83.6737ZM86.9959 51.0771C88.3426 51.0771 89.1424 50.0381 89.1424 48.3223V48.3086C89.1424 46.5928 88.3426 45.5537 86.9959 45.5537C85.6561 45.5537 84.8358 46.6064 84.8358 48.3086V48.3223C84.8358 50.0244 85.6561 51.0771 86.9959 51.0771ZM94.7853 52.1299C92.9191 52.1299 91.6954 50.6191 91.6954 48.3223V48.3086C91.6954 45.998 92.9122 44.501 94.7853 44.501C95.797 44.501 96.6788 45.0068 97.0822 45.793H97.1915V41.7051H98.381V52H97.1915V50.8242H97.0822C96.631 51.6445 95.8107 52.1299 94.7853 52.1299ZM95.0587 51.0771C96.3986 51.0771 97.2189 50.0244 97.2189 48.3223V48.3086C97.2189 46.6064 96.3986 45.5537 95.0587 45.5537C93.712 45.5537 92.9122 46.5928 92.9122 48.3086V48.3223C92.9122 50.0381 93.712 51.0771 95.0587 51.0771ZM101.002 52V45.6152H99.7787V44.6309H101.002V43.8105C101.002 42.3408 101.741 41.6367 103.142 41.6367C103.429 41.6367 103.689 41.6572 103.935 41.7051V42.6553C103.791 42.6279 103.593 42.6211 103.381 42.6211C102.534 42.6211 102.192 43.0381 102.192 43.8447V44.6309H103.867V45.6152H102.192V52H101.002ZM110.183 52.0684C109.697 52.0684 109.294 51.665 109.294 51.1797C109.294 50.6875 109.697 50.291 110.183 50.291C110.675 50.291 111.071 50.6875 111.071 51.1797C111.071 51.665 110.675 52.0684 110.183 52.0684Z" fill="#4D535B"/>
</svg>
