
<svg viewBox="0 0 842 811" fill="none" xmlns="http://www.w3.org/2000/svg">
<rect x="102" width="708" height="811" rx="35" fill="#F6F6F9"/>
<path fill-rule="evenodd" clip-rule="evenodd" d="M295.116 289.952L329.29 285.834C333.883 285.28 337.342 281.613 337.808 277.199L391.302 261.863L421.274 225.198L424.079 223.825L417.302 215.472C417.259 215.419 417.218 215.365 417.179 215.309C416.332 214.085 416.636 212.407 417.859 211.559L460.814 181.796C460.969 181.689 461.135 181.598 461.309 181.525C462.682 180.951 464.26 181.598 464.834 182.971L472.049 200.218L492.83 189.663L616.717 179.901L671.076 218.04C665.783 226.591 662.29 232.14 660.599 234.686C657.886 238.77 655.824 241.982 656.113 245.658H535.957C539.305 267.472 542.197 283.865 544.634 294.837C547.072 305.81 549.687 314.214 552.481 320.049H464.954L460.85 311.137C460.85 310.921 460.797 310.703 460.686 310.5L459.838 308.94L459.168 307.484L459.086 307.556L441.566 275.33C441.21 274.676 440.392 274.434 439.739 274.79C439.085 275.145 438.843 275.963 439.199 276.617L457.003 309.365L442.547 321.918L316.89 330.461L295.116 289.952ZM120.574 166.494C120.574 166.494 121.989 164.643 124.82 160.94L143.027 177.858L157.389 139.537L165.479 142.091L148.669 185.689C148.452 186.253 148.12 186.766 147.695 187.195C145.993 188.913 143.221 188.927 141.503 187.225C134.527 180.315 127.551 173.404 120.574 166.494ZM135.73 221.735C135.73 221.735 137.145 219.884 139.976 216.182L158.183 233.099L172.545 194.778L180.635 197.332L163.825 240.93C163.608 241.494 163.276 242.007 162.851 242.436C161.149 244.155 158.377 244.168 156.659 242.466C149.683 235.556 142.707 228.645 135.73 221.735ZM166.547 406.666H220.099C224.47 406.666 228.013 410.21 228.013 414.581V431.086C228.013 435.458 224.47 439.002 220.099 439.002H166.547C162.176 439.002 158.633 435.458 158.633 431.086V414.581C158.633 410.21 162.176 406.666 166.547 406.666ZM204.804 423.617C204.907 423.15 204.77 422.629 204.321 422.275L195.658 415.446C195.073 414.985 194.226 415.085 193.766 415.67C193.305 416.254 193.405 417.101 193.99 417.562L199.766 422.115L183.692 422.676C182.948 422.702 182.366 423.326 182.392 424.07C182.418 424.813 183.042 425.395 183.786 425.369L200.46 424.787L195.472 429.343C194.923 429.845 194.884 430.697 195.386 431.246C195.888 431.796 196.74 431.835 197.289 431.333L204.387 424.85C204.741 424.526 204.883 424.057 204.804 423.617Z" fill="#0166FF"/>
<path fill-rule="evenodd" clip-rule="evenodd" d="M625.326 543.548L625.805 543.766C625.932 543.825 626.05 543.902 626.153 543.997L628.616 546.242H730.043C730.754 546.242 731.337 545.691 731.387 544.993H732.495C737.239 544.993 741.084 548.838 741.084 553.582C741.084 558.326 737.239 562.171 732.495 562.171H643.304C643.137 562.247 642.947 562.291 642.738 562.291H550.862C550.668 562.291 550.479 562.249 550.307 562.171H535.467C535.113 562.171 534.764 562.15 534.421 562.108H374.982L424.699 427.116L448.492 368.776C448.773 368.087 448.442 367.3 447.753 367.019C447.064 366.738 446.278 367.069 445.997 367.758L423.127 423.834L385.881 426.297L374.982 562.108L348.792 551.376L351.521 560.534C351.779 561.398 351.131 562.267 350.23 562.267H320.369C319.525 562.267 318.888 561.498 319.046 560.668L322.829 540.737L320.166 539.646L302.122 561.771C301.866 562.085 301.483 562.267 301.078 562.267H204.096C203.15 562.267 202.499 561.318 202.838 560.435L204.219 556.849C206.55 550.796 211.688 546.261 217.983 544.701L241.93 538.765L257.584 514.001L257.163 513.829L275.834 333.779C272.909 330.366 270.149 327.092 267.553 323.956L247.737 458.875C247.64 459.536 247.073 460.026 246.404 460.026H120.569C119.755 460.026 119.126 459.309 119.233 458.502C126.323 404.96 132.278 368.878 137.11 350.211C141.858 331.869 141.866 314.049 137.138 296.727L73.5239 146.83C73.1857 146.033 73.6762 145.128 74.5286 144.977L270.069 110.271C270.886 110.126 271.639 110.747 271.651 111.577L273.959 264.155L275.362 264.476C279.434 265.406 282.92 268.02 284.954 271.668L286.07 273.669L319.941 268.216C319.565 277.273 320.686 283.377 323.47 286.596C323.543 286.68 323.624 286.753 323.712 286.815L295.307 290.238L301.694 301.693C301.799 301.881 301.902 302.071 302.003 302.261L316.446 329.63L463.58 319.986L463.937 320.572L464.153 319.986L553.919 320.049L553.919 320.072L711.61 322.586C720.013 303.73 725.008 283.104 726.598 260.703H535.467C530.724 260.703 526.879 256.857 526.879 252.114C526.879 247.37 530.724 243.524 535.467 243.524H654.741C654.837 242.905 654.988 242.284 655.193 241.655C655.879 239.548 656.872 237.826 659.354 234.09C661.215 231.288 665.291 224.796 671.57 214.629C674.988 209.095 681.872 206.794 687.93 209.159L695.162 211.982C698.416 209.84 702.248 209.66 706.508 211.4C710.443 213.008 713.159 215.738 714.594 219.523C717.974 217.705 721.706 217.61 725.676 219.232C728.893 220.547 730.87 222.633 731.697 225.262C732.324 227.257 732.244 229.393 731.69 231.46C731.259 233.066 728.663 238.263 725.763 243.377C725.735 243.427 725.707 243.476 725.679 243.524H732.495C737.239 243.524 741.084 247.37 741.084 252.114C741.084 256.857 737.239 260.703 732.495 260.703H729.296C729.296 260.734 729.295 260.766 729.292 260.798C725.084 320.451 697.035 367.78 645.222 402.686C696.886 437.369 725.016 484.356 729.537 543.548H625.326ZM550.754 484.984L551.773 484.499C565.71 451.725 590.525 424.34 624.356 401.931C607.654 391.118 593.742 379.519 582.619 367.135C571.793 355.081 562.24 340.436 553.961 323.199L554.916 394.091L526.879 484.984H550.754ZM625.981 404.086C625.977 404.089 625.972 404.092 625.968 404.095C592.712 426.097 568.27 452.901 554.496 484.984H618.389C621.823 482.283 626.898 478.137 626.684 470.721C626.404 461.033 626.169 438.821 625.981 404.086ZM650.006 484.984H712.81C699.034 452.966 675.557 425.986 642.361 404.018C642.33 404.009 642.3 403.998 642.269 403.987C642.595 438.313 642.642 460.382 642.411 470.192C642.253 476.886 646.724 481.654 650.006 484.984ZM233.28 276.121L237.592 280.86C244.142 277.46 250.056 276.692 255.257 278.63L283.239 274.125L282.601 272.98C280.938 269.999 278.089 267.863 274.762 267.103L270.882 266.217C269.806 265.971 268.688 265.969 267.611 266.21L244.753 271.339C244.809 271.624 244.773 271.929 244.63 272.208C242.558 276.261 238.666 277.515 233.28 276.121ZM234.459 273.648C237.788 274.421 240.093 273.866 241.541 272.059L234.459 273.648ZM247.242 293.038C248.557 290.794 248.522 288.413 247.431 285.866C246.687 284.127 245.648 282.663 244.235 281.049C242.701 281.488 241.107 282.117 239.451 282.938C241.22 285.021 243.814 288.384 247.242 293.038ZM248.939 295.355C250.068 296.903 251.274 298.571 252.559 300.36C259.578 310.136 269.361 322.248 281.904 336.689L312.514 327.682L299.626 303.529C299.533 303.354 299.437 303.179 299.341 303.006L292.416 290.586L275.987 292.566C275.325 293.295 274.564 294.068 273.707 294.889C273.158 295.416 272.281 295.383 271.773 294.816C266.447 288.88 261.143 284.558 255.869 281.842C253.253 280.495 250.378 280.016 247.226 280.422C248.339 281.814 249.216 283.188 249.908 284.805C251.468 288.448 251.339 292.066 248.939 295.355ZM322.644 267.781L327.025 267.076C327.121 267.06 327.217 267.046 327.314 267.034C332.5 266.362 337.25 270.022 337.922 275.21C337.925 275.238 337.929 275.267 337.932 275.296C338.576 280.634 334.77 285.483 329.432 286.126L325.505 286.599C325.94 286.101 325.952 285.347 325.508 284.833C323.266 282.24 322.256 276.597 322.649 267.976C322.652 267.91 322.65 267.845 322.644 267.781ZM245.685 295.47L219.239 298.963L207.96 294.043L207.573 290.891L217.838 283.617L233.954 280.866L228.059 274.387C227.363 273.622 227.752 272.391 228.76 272.165L267.021 263.581C268.414 263.268 269.857 263.255 271.254 263.54L268.981 113.201L76.6651 147.334L139.654 295.757C139.678 295.813 139.697 295.87 139.713 295.928C144.591 313.737 144.591 332.065 139.718 350.887C134.968 369.238 129.093 404.734 122.107 457.332H245.241L265.242 321.148C259.379 313.98 254.422 307.576 250.37 301.932C248.67 299.565 247.109 297.41 245.685 295.47ZM185.17 169.799C184.431 169.889 183.76 169.362 183.671 168.624C183.581 167.885 184.108 167.214 184.846 167.124L248.565 159.413C249.303 159.324 249.975 159.85 250.064 160.589C250.153 161.328 249.627 161.999 248.888 162.089L185.17 169.799ZM191.795 230.1C191.057 230.189 190.386 229.663 190.296 228.924C190.207 228.186 190.733 227.514 191.472 227.425L255.19 219.714C255.929 219.625 256.6 220.151 256.689 220.89C256.779 221.629 256.252 222.3 255.514 222.389L191.795 230.1ZM186.07 178.564C185.331 178.653 184.66 178.127 184.571 177.388C184.481 176.65 185.008 175.978 185.746 175.889L249.465 168.178C250.203 168.089 250.874 168.615 250.964 169.354C251.053 170.093 250.527 170.764 249.788 170.853L186.07 178.564ZM193.479 239.195C192.741 239.284 192.07 238.758 191.98 238.019C191.891 237.28 192.417 236.609 193.156 236.519L256.874 228.809C257.613 228.719 258.284 229.246 258.373 229.984C258.463 230.723 257.936 231.394 257.198 231.484L193.479 239.195ZM155.957 388.972C155.158 388.972 154.535 388.281 154.616 387.487L160.318 332.144C160.389 331.459 160.963 330.938 161.651 330.935L249.619 330.461C250.44 330.457 251.073 331.181 250.961 331.993L243.239 387.81C243.147 388.476 242.577 388.972 241.904 388.972H155.957ZM240.731 386.278L248.079 333.164L162.875 333.623L157.45 386.278H240.731ZM124.941 170.843C125.639 171.534 126.336 172.224 127.033 172.915C126.338 174.909 125.958 177.068 125.958 179.323C125.958 189.48 133.667 197.681 143.134 197.681C152.602 197.681 160.311 189.48 160.311 179.323C160.311 174.58 158.63 170.263 155.873 167.009L156.957 164.198C160.689 168.028 163.006 173.393 163.006 179.323C163.006 190.932 154.128 200.375 143.134 200.375C132.141 200.375 123.263 190.932 123.263 179.323C123.263 176.308 123.862 173.439 124.941 170.843ZM128.84 164.699C132.45 160.737 137.516 158.271 143.134 158.271C145.512 158.271 147.79 158.712 149.9 159.522L148.954 162.047C147.136 161.347 145.176 160.965 143.134 160.965C138.308 160.965 133.938 163.097 130.814 166.533L128.84 164.699ZM142.058 228.026C142.735 228.697 143.412 229.367 144.089 230.038C143.045 232.407 142.461 235.054 142.461 237.849C142.461 248.006 150.17 256.207 159.638 256.207C169.105 256.207 176.814 248.006 176.814 237.849C176.814 232.108 174.351 226.991 170.498 223.627L171.521 220.974C176.373 224.816 179.509 230.95 179.509 237.849C179.509 249.458 170.631 258.901 159.638 258.901C148.644 258.901 139.766 249.458 139.766 237.849C139.766 234.304 140.594 230.96 142.058 228.026ZM146.386 222.161C149.899 218.827 154.541 216.797 159.638 216.797C161.171 216.797 162.663 216.981 164.095 217.328L163.141 219.874C162.009 219.623 160.838 219.492 159.638 219.492C155.329 219.492 151.384 221.19 148.365 223.999L146.386 222.161ZM174.12 312.352C163.126 312.352 154.249 302.909 154.249 291.3C154.249 279.691 163.126 270.247 174.12 270.247C185.114 270.247 193.991 279.691 193.991 291.3C193.991 302.909 185.114 312.352 174.12 312.352ZM174.12 309.657C183.587 309.657 191.297 301.456 191.297 291.3C191.297 281.143 183.587 272.942 174.12 272.942C164.653 272.942 156.943 281.143 156.943 291.3C156.943 301.456 164.653 309.657 174.12 309.657ZM345.589 550.064L325.373 541.78L321.996 559.572H348.423L345.589 550.064ZM317.56 538.578L260.115 515.039L243.918 540.663C243.732 540.956 243.441 541.167 243.103 541.25L218.631 547.316C213.19 548.665 208.749 552.585 206.734 557.817L206.058 559.572H300.439L317.56 538.578ZM676.827 251.861C680.216 253.805 683.28 254.763 686.015 254.762C688.694 254.762 691.894 253.843 695.598 251.983C695.594 251.801 695.628 251.616 695.702 251.437C698.273 245.301 700.94 239.985 703.707 235.488C706.29 231.291 709.209 226.687 712.466 221.674C711.43 217.945 709.133 215.384 705.489 213.895C701.79 212.383 698.74 212.627 696.157 214.576C696.104 214.616 696.048 214.652 695.991 214.683L676.881 251.765C676.864 251.798 676.846 251.83 676.827 251.861ZM674.35 251.34C674.311 251.072 674.353 250.79 674.486 250.53L693.246 214.127L686.951 211.669C682.104 209.777 676.597 211.618 673.862 216.045C667.566 226.239 663.482 232.745 661.598 235.581C659.256 239.106 658.338 240.699 657.755 242.489C657.064 244.61 657.159 246.536 658.169 248.743C659.044 250.657 661.121 251.955 664.092 252.682C666.192 253.196 668.442 253.358 670.239 253.301C671.245 253.27 672.63 252.638 674.335 251.352C674.34 251.348 674.345 251.344 674.35 251.34ZM698.646 251.395C701.46 252.672 703.914 253.301 705.999 253.301C706.713 253.301 707.263 253.321 708.659 253.387C709.473 253.425 709.882 253.442 710.355 253.455C713.251 253.535 715.077 253.265 716.414 252.42C717.483 251.744 720.282 247.581 723.419 242.048C726.193 237.156 728.74 232.059 729.087 230.762C729.52 229.15 729.581 227.515 729.126 226.07C728.545 224.221 727.145 222.743 724.657 221.727C721.205 220.316 718.142 220.479 715.332 222.207C715.322 222.223 715.313 222.239 715.302 222.255C711.824 227.595 708.724 232.477 706.002 236.901C703.475 241.007 701.022 245.839 698.646 251.395ZM663.346 241.748C663.448 243.969 664.661 245.058 667.444 245.266C670.197 245.472 671.36 244.687 671.555 242.731C671.629 241.99 672.289 241.45 673.029 241.524C673.77 241.597 674.31 242.257 674.236 242.998C673.883 246.548 671.345 248.26 667.243 247.953C663.173 247.649 660.823 245.539 660.654 241.872C660.62 241.128 661.195 240.498 661.938 240.464C662.681 240.43 663.312 241.005 663.346 241.748ZM685.521 242.374C685.624 244.595 686.837 245.685 689.62 245.893C692.372 246.099 693.536 245.314 693.731 243.357C693.805 242.617 694.465 242.076 695.205 242.15C695.945 242.224 696.486 242.884 696.412 243.624C696.058 247.175 693.521 248.887 689.419 248.58C685.348 248.276 682.999 246.165 682.83 242.498C682.796 241.755 683.37 241.125 684.114 241.091C684.857 241.056 685.487 241.631 685.521 242.374ZM706.769 243.469C706.871 245.69 708.084 246.779 710.867 246.987C713.62 247.193 714.783 246.408 714.978 244.452C715.052 243.711 715.712 243.171 716.452 243.245C717.192 243.318 717.733 243.978 717.659 244.719C717.305 248.269 714.768 249.981 710.666 249.674C706.595 249.37 704.246 247.259 704.077 243.593C704.043 242.849 704.618 242.219 705.361 242.185C706.104 242.151 706.734 242.725 706.769 243.469ZM413.282 181.836C413.107 182.305 412.952 182.795 412.818 183.305C416.048 183.717 418.831 183.109 421.223 181.496C423.614 179.882 425.22 177.53 426.049 174.38C422.819 173.969 420.036 174.576 417.644 176.19C417.064 176.582 416.529 177.017 416.041 177.496C416.855 177.718 417.577 178.32 417.945 179.188C418.563 180.644 417.953 182.295 416.583 182.877C415.397 183.38 414.028 182.916 413.282 181.836ZM419.004 172.469C417.163 170.934 414.765 168.625 411.808 165.541C408.093 169.539 405.811 174.813 405.604 180.526L405.037 196.161L413.848 192.601C414.539 192.322 415.326 192.657 415.603 193.349L416.733 196.165C419.052 195.523 420.546 194.418 421.314 192.855C421.642 192.187 422.449 191.912 423.117 192.24C423.785 192.568 424.06 193.375 423.732 194.043C422.633 196.28 420.606 197.823 417.742 198.678L421.82 208.84L419.548 210.414L413.606 195.605L404.12 199.438C403.215 199.804 402.234 199.116 402.269 198.14L402.911 180.428C403.261 170.773 408.925 162.238 417.404 158.08C414.676 157.499 412.284 155.616 411.163 152.85C411.159 152.842 411.156 152.834 411.153 152.826C409.849 149.582 410.768 145.996 413.188 143.754C411.108 143.145 409.321 141.624 408.447 139.47C408.444 139.462 408.441 139.455 408.438 139.447C407.012 135.899 408.734 131.866 412.282 130.441L417.227 128.454C420.159 127.276 423.517 128.125 425.538 130.555C427.676 133.128 427.743 136.737 425.925 139.358C427.946 139.671 429.842 140.701 431.218 142.347C434.013 145.692 433.841 150.531 430.988 153.666C436.049 152.777 441.202 155.191 443.719 159.797L457.142 184.366L454.915 185.909L447.531 172.395C444.984 170.046 441.223 169.259 437.851 170.69C434.781 171.994 432.809 174.808 432.421 177.916C430.742 177.832 429.247 177.603 427.937 177.23C426.829 179.96 425.091 182.136 422.729 183.73C419.383 185.987 415.42 186.644 410.925 185.719C410.207 185.571 409.739 184.877 409.871 184.157C410.697 179.642 412.791 176.213 416.137 173.956C417.048 173.342 418.004 172.846 419.004 172.469ZM551.538 559.596H639.261L624.494 546.13L571.496 521.956L550.405 514.356C549.206 513.924 549.221 512.223 550.428 511.812L569.562 505.306L552.179 487.29L511.965 506.41L551.538 559.596Z" fill="#0C0D0E"/>
<path d="M172.047 648.391C165.469 648.391 161.344 643.906 161.344 636.734V636.703C161.344 629.547 165.484 625.062 172.047 625.062C178.625 625.062 182.75 629.547 182.75 636.703V636.734C182.75 643.906 178.641 648.391 172.047 648.391ZM172.047 644.891C176.125 644.891 178.641 641.703 178.641 636.734V636.703C178.641 631.703 176.078 628.562 172.047 628.562C168.031 628.562 165.453 631.688 165.453 636.703V636.734C165.453 641.75 168.016 644.891 172.047 644.891ZM197.072 648V640.984H190.103V648H186.212V631.438H190.103V637.969H197.072V631.438H200.962V648H197.072ZM210.393 640.469C210.081 645.172 208.924 648.156 205.034 648.156C204.315 648.156 203.799 648.047 203.549 647.969V644.641C203.706 644.688 204.018 644.75 204.44 644.75C206.112 644.75 206.674 643.188 206.862 640.188L207.409 631.438H219.909V648H216.002V634.453H210.799L210.393 640.469ZM228.683 648.281C225.355 648.281 223.121 646.234 223.121 643.281V643.25C223.121 640.312 225.418 638.547 229.418 638.297L233.746 638.031V636.891C233.746 635.219 232.652 634.203 230.699 634.203C228.855 634.203 227.715 635.062 227.465 636.281L227.433 636.422H223.824L223.84 636.234C224.09 633.297 226.621 631.094 230.824 631.094C234.98 631.094 237.636 633.281 237.636 636.609V648H233.746V645.453H233.668C232.699 647.188 230.855 648.281 228.683 648.281ZM227.011 643.125C227.011 644.484 228.121 645.312 229.84 645.312C232.074 645.312 233.746 643.828 233.746 641.859V640.609L229.965 640.844C228.058 640.969 227.011 641.797 227.011 643.109V643.125ZM249.036 629.656C245.63 629.656 243.536 627.703 243.536 624.828V624.703H246.536V624.828C246.536 626.172 247.411 627.297 249.052 627.297C250.63 627.297 251.567 626.172 251.567 624.828V624.703H254.552V624.828C254.552 627.703 252.458 629.656 249.036 629.656ZM241.427 648V631.438H245.27V642.484H245.427L252.567 631.438H256.38V648H252.536V636.875H252.38L245.239 648H241.427ZM271.107 648V640.984H264.139V648H260.248V631.438H264.139V637.969H271.107V631.438H274.998V648H271.107ZM285.641 648V631.438H300.251V648H296.344V634.438H289.532V648H285.641ZM309.697 640.469C309.385 645.172 308.228 648.156 304.338 648.156C303.619 648.156 303.103 648.047 302.853 647.969V644.641C303.01 644.688 303.322 644.75 303.744 644.75C305.416 644.75 305.978 643.188 306.166 640.188L306.713 631.438H319.213V648H315.306V634.453H310.103L309.697 640.469ZM327.987 648.281C324.659 648.281 322.425 646.234 322.425 643.281V643.25C322.425 640.312 324.722 638.547 328.722 638.297L333.05 638.031V636.891C333.05 635.219 331.956 634.203 330.003 634.203C328.159 634.203 327.018 635.062 326.768 636.281L326.737 636.422H323.128L323.143 636.234C323.393 633.297 325.925 631.094 330.128 631.094C334.284 631.094 336.94 633.281 336.94 636.609V648H333.05V645.453H332.972C332.003 647.188 330.159 648.281 327.987 648.281ZM326.315 643.125C326.315 644.484 327.425 645.312 329.143 645.312C331.378 645.312 333.05 643.828 333.05 641.859V640.609L329.268 640.844C327.362 640.969 326.315 641.797 326.315 643.109V643.125ZM353.481 631.438V634.453H348.402V648H344.512V634.453H339.434V631.438H353.481ZM364.115 653.453V648.234C358.74 648.109 355.286 644.906 355.286 639.734V639.703C355.286 634.562 358.771 631.312 364.115 631.203V626.109H367.896V631.203C373.24 631.312 376.724 634.531 376.724 639.703V639.734C376.724 644.859 373.208 648.125 367.896 648.234V653.453H364.115ZM364.13 645.188V634.25C361.13 634.328 359.208 636.359 359.208 639.703V639.734C359.208 643.094 361.115 645.094 364.13 645.188ZM367.865 645.188C370.865 645.109 372.786 643.078 372.786 639.734V639.703C372.786 636.344 370.88 634.328 367.865 634.25V645.188ZM387.217 648.328C382.342 648.328 379.202 645.078 379.202 639.719V639.688C379.202 634.375 382.389 631.094 387.217 631.094C392.03 631.094 395.233 634.344 395.233 639.688V639.719C395.233 645.094 392.077 648.328 387.217 648.328ZM387.233 645.188C389.702 645.188 391.28 643.188 391.28 639.719V639.688C391.28 636.234 389.671 634.25 387.217 634.25C384.78 634.25 383.171 636.25 383.171 639.688V639.719C383.171 643.203 384.764 645.188 387.233 645.188ZM398.398 653.469V631.438H402.289V634.297H402.383C403.32 632.312 405.148 631.094 407.508 631.094C411.726 631.094 414.367 634.375 414.367 639.719V639.734C414.367 645.047 411.711 648.328 407.57 648.328C405.211 648.328 403.32 647.141 402.367 645.203H402.289V653.469H398.398ZM406.351 645.047C408.851 645.047 410.398 643 410.398 639.734V639.719C410.398 636.406 408.836 634.375 406.351 634.375C403.945 634.375 402.273 636.469 402.273 639.719V639.734C402.273 642.969 403.961 645.047 406.351 645.047ZM421.267 648H417.548V631.438H422.532L427.392 643H427.517L432.392 631.438H437.282V648H433.564V636.672H433.439L428.782 647.234H426.032L421.376 636.672H421.267V648ZM446.041 648.281C442.713 648.281 440.479 646.234 440.479 643.281V643.25C440.479 640.312 442.776 638.547 446.776 638.297L451.104 638.031V636.891C451.104 635.219 450.01 634.203 448.057 634.203C446.213 634.203 445.073 635.062 444.823 636.281L444.791 636.422H441.182L441.198 636.234C441.448 633.297 443.979 631.094 448.182 631.094C452.338 631.094 454.994 633.281 454.994 636.609V648H451.104V645.453H451.026C450.057 647.188 448.213 648.281 446.041 648.281ZM444.369 643.125C444.369 644.484 445.479 645.312 447.198 645.312C449.432 645.312 451.104 643.828 451.104 641.859V640.609L447.323 640.844C445.416 640.969 444.369 641.797 444.369 643.109V643.125ZM467.7 652.453H464.137V644.953H465.45C466.669 644.234 467.169 642.312 467.325 640.078L467.903 631.438H480.497V644.953H483.028V652.453H479.466V648H467.7V652.453ZM476.606 644.953V634.484H471.216L470.794 640.281C470.669 642.172 470.294 643.766 469.497 644.875V644.953H476.606ZM491.256 640.469C490.943 645.172 489.787 648.156 485.896 648.156C485.178 648.156 484.662 648.047 484.412 647.969V644.641C484.568 644.688 484.881 644.75 485.303 644.75C486.974 644.75 487.537 643.188 487.724 640.188L488.271 631.438H500.771V648H496.865V634.453H491.662L491.256 640.469ZM514.218 648V642.453H511.89L508.015 648H503.655L508.108 641.844C505.812 641.141 504.421 639.438 504.421 637.109V637.078C504.421 633.609 506.968 631.438 510.905 631.438H518.046V648H514.218ZM511.202 639.594H514.218V634.422H511.202C509.421 634.422 508.327 635.422 508.327 637.062V637.094C508.327 638.547 509.421 639.594 511.202 639.594ZM528.689 653.469V631.438H532.58V634.297H532.673C533.611 632.312 535.439 631.094 537.798 631.094C542.017 631.094 544.658 634.375 544.658 639.719V639.734C544.658 645.047 542.001 648.328 537.861 648.328C535.501 648.328 533.611 647.141 532.658 645.203H532.58V653.469H528.689ZM536.642 645.047C539.142 645.047 540.689 643 540.689 639.734V639.719C540.689 636.406 539.126 634.375 536.642 634.375C534.236 634.375 532.564 636.469 532.564 639.719V639.734C532.564 642.969 534.251 645.047 536.642 645.047ZM555.104 648.328C550.135 648.328 547.135 645.031 547.135 639.766V639.75C547.135 634.531 550.182 631.094 554.917 631.094C559.667 631.094 562.604 634.422 562.604 639.422V640.672H551.01C551.057 643.578 552.651 645.297 555.182 645.297C557.135 645.297 558.385 644.266 558.76 643.156L558.792 643.047H562.432L562.401 643.219C561.87 645.766 559.432 648.328 555.104 648.328ZM554.964 634.141C552.917 634.141 551.354 635.531 551.057 638.078H558.807C558.526 635.453 557.026 634.141 554.964 634.141ZM565.754 648V631.438H569.645V644.953H574.77V631.438H578.66V644.953H583.785V631.438H587.676V648H565.754ZM598.81 648.328C593.841 648.328 590.841 645.031 590.841 639.766V639.75C590.841 634.531 593.888 631.094 598.622 631.094C603.372 631.094 606.31 634.422 606.31 639.422V640.672H594.716C594.763 643.578 596.357 645.297 598.888 645.297C600.841 645.297 602.091 644.266 602.466 643.156L602.497 643.047H606.138L606.107 643.219C605.575 645.766 603.138 648.328 598.81 648.328ZM598.669 634.141C596.622 634.141 595.06 635.531 594.763 638.078H602.513C602.232 635.453 600.732 634.141 598.669 634.141ZM620.319 648V640.984H613.35V648H609.459V631.438H613.35V637.969H620.319V631.438H624.209V648H620.319ZM628.062 648V631.438H631.906V642.484H632.062L639.203 631.438H643.015V648H639.172V636.875H639.015L631.875 648H628.062ZM656.446 648V642.453H654.118L650.243 648H645.884L650.337 641.844C648.04 641.141 646.649 639.438 646.649 637.109V637.078C646.649 633.609 649.196 631.438 653.134 631.438H660.274V648H656.446ZM653.431 639.594H656.446V634.422H653.431C651.649 634.422 650.556 635.422 650.556 637.062V637.094C650.556 638.547 651.649 639.594 653.431 639.594ZM168.031 688.328C163.953 688.328 161.266 686.438 160.922 683.312L160.906 683.188H164.656L164.703 683.344C165.062 684.641 166.219 685.312 168.016 685.312C169.953 685.312 171.156 684.469 171.156 683.094V683.062C171.156 681.609 170.109 680.906 167.984 680.906H165.656V678.281H167.953C169.828 678.281 170.766 677.578 170.766 676.219V676.188C170.766 674.875 169.781 674.109 168.109 674.109C166.406 674.109 165.281 674.828 165.031 676.062L165.016 676.172H161.344L161.359 676.062C161.766 672.906 164.25 671.094 168.188 671.094C172.156 671.094 174.562 672.859 174.562 675.734V675.766C174.562 677.531 173.422 678.906 171.578 679.312V679.438C173.812 679.875 175.016 681.188 175.016 683.141V683.172C175.016 686.281 172.25 688.328 168.031 688.328ZM183.165 688.281C179.837 688.281 177.603 686.234 177.603 683.281V683.25C177.603 680.312 179.9 678.547 183.9 678.297L188.228 678.031V676.891C188.228 675.219 187.134 674.203 185.181 674.203C183.337 674.203 182.197 675.062 181.947 676.281L181.915 676.422H178.306L178.322 676.234C178.572 673.297 181.103 671.094 185.306 671.094C189.462 671.094 192.118 673.281 192.118 676.609V688H188.228V685.453H188.15C187.181 687.188 185.337 688.281 183.165 688.281ZM181.493 683.125C181.493 684.484 182.603 685.312 184.322 685.312C186.556 685.312 188.228 683.828 188.228 681.859V680.609L184.447 680.844C182.54 680.969 181.493 681.797 181.493 683.109V683.125ZM198.034 692.453H194.471V684.953H195.784C197.002 684.234 197.502 682.312 197.659 680.078L198.237 671.438H210.831V684.953H213.362V692.453H209.799V688H198.034V692.453ZM206.94 684.953V674.484H201.549L201.127 680.281C201.002 682.172 200.627 683.766 199.831 684.875V684.953H206.94ZM220.808 688.281C217.48 688.281 215.246 686.234 215.246 683.281V683.25C215.246 680.312 217.543 678.547 221.543 678.297L225.871 678.031V676.891C225.871 675.219 224.777 674.203 222.824 674.203C220.98 674.203 219.84 675.062 219.59 676.281L219.558 676.422H215.949L215.965 676.234C216.215 673.297 218.746 671.094 222.949 671.094C227.105 671.094 229.761 673.281 229.761 676.609V688H225.871V685.453H225.793C224.824 687.188 222.98 688.281 220.808 688.281ZM219.136 683.125C219.136 684.484 220.246 685.312 221.965 685.312C224.199 685.312 225.871 683.828 225.871 681.859V680.609L222.09 680.844C220.183 680.969 219.136 681.797 219.136 683.109V683.125ZM247.505 688H243.614V680.953H243.536C242.536 681.969 240.974 682.531 239.27 682.531C235.395 682.531 233.208 680.25 233.208 676.594V671.438H237.099V676.047C237.099 678.188 238.255 679.25 240.442 679.25C241.755 679.25 242.989 678.781 243.614 678.062V671.438H247.505V688ZM258.163 688V671.438H272.773V688H268.867V674.438H262.054V688H258.163ZM283.954 688.328C279.079 688.328 275.938 685.078 275.938 679.719V679.688C275.938 674.375 279.126 671.094 283.954 671.094C288.766 671.094 291.969 674.344 291.969 679.688V679.719C291.969 685.094 288.813 688.328 283.954 688.328ZM283.969 685.188C286.438 685.188 288.016 683.188 288.016 679.719V679.688C288.016 676.234 286.407 674.25 283.954 674.25C281.516 674.25 279.907 676.25 279.907 679.688V679.719C279.907 683.203 281.501 685.188 283.969 685.188ZM301.94 688V671.438H316.55V688H312.643V674.438H305.831V688H301.94ZM320.402 693.469V671.438H324.293V674.297H324.387C325.324 672.312 327.152 671.094 329.512 671.094C333.731 671.094 336.371 674.375 336.371 679.719V679.734C336.371 685.047 333.715 688.328 329.574 688.328C327.215 688.328 325.324 687.141 324.371 685.203H324.293V693.469H320.402ZM328.356 685.047C330.856 685.047 332.402 683 332.402 679.734V679.719C332.402 676.406 330.84 674.375 328.356 674.375C325.949 674.375 324.277 676.469 324.277 679.719V679.734C324.277 682.969 325.965 685.047 328.356 685.047ZM346.865 688.328C341.99 688.328 338.849 685.078 338.849 679.719V679.688C338.849 674.375 342.036 671.094 346.865 671.094C351.677 671.094 354.88 674.344 354.88 679.688V679.719C354.88 685.094 351.724 688.328 346.865 688.328ZM346.88 685.188C349.349 685.188 350.927 683.188 350.927 679.719V679.688C350.927 676.234 349.318 674.25 346.865 674.25C344.427 674.25 342.818 676.25 342.818 679.688V679.719C342.818 683.203 344.411 685.188 346.88 685.188ZM369.296 674.438H361.952V688H358.061V671.438H369.296V674.438ZM372.398 693.469V671.438H376.289V674.297H376.383C377.32 672.312 379.148 671.094 381.508 671.094C385.726 671.094 388.367 674.375 388.367 679.719V679.734C388.367 685.047 385.711 688.328 381.57 688.328C379.211 688.328 377.32 687.141 376.367 685.203H376.289V693.469H372.398ZM380.351 685.047C382.851 685.047 384.398 683 384.398 679.734V679.719C384.398 676.406 382.836 674.375 380.351 674.375C377.945 674.375 376.273 676.469 376.273 679.719V679.734C376.273 682.969 377.961 685.047 380.351 685.047ZM396.439 688.281C393.11 688.281 390.876 686.234 390.876 683.281V683.25C390.876 680.312 393.173 678.547 397.173 678.297L401.501 678.031V676.891C401.501 675.219 400.407 674.203 398.454 674.203C396.61 674.203 395.47 675.062 395.22 676.281L395.189 676.422H391.579L391.595 676.234C391.845 673.297 394.376 671.094 398.579 671.094C402.735 671.094 405.392 673.281 405.392 676.609V688H401.501V685.453H401.423C400.454 687.188 398.61 688.281 396.439 688.281ZM394.767 683.125C394.767 684.484 395.876 685.312 397.595 685.312C399.829 685.312 401.501 683.828 401.501 681.859V680.609L397.72 680.844C395.814 680.969 394.767 681.797 394.767 683.109V683.125ZM412.901 688H409.182V671.438H414.166L419.026 683H419.151L424.026 671.438H428.916V688H425.197V676.672H425.072L420.416 687.234H417.666L413.01 676.672H412.901V688ZM436.503 688H432.785V671.438H437.769L442.628 683H442.753L447.628 671.438H452.519V688H448.8V676.672H448.675L444.019 687.234H441.269L436.613 676.672H436.503V688ZM456.387 688V671.438H460.231V682.484H460.387L467.528 671.438H471.341V688H467.497V676.875H467.341L460.2 688H456.387ZM475.193 693.469V671.438H479.084V674.297H479.178C480.115 672.312 481.943 671.094 484.303 671.094C488.521 671.094 491.162 674.375 491.162 679.719V679.734C491.162 685.047 488.506 688.328 484.365 688.328C482.006 688.328 480.115 687.141 479.162 685.203H479.084V693.469H475.193ZM483.146 685.047C485.646 685.047 487.193 683 487.193 679.734V679.719C487.193 676.406 485.631 674.375 483.146 674.375C480.74 674.375 479.068 676.469 479.068 679.719V679.734C479.068 682.969 480.756 685.047 483.146 685.047ZM501.655 688.328C496.78 688.328 493.64 685.078 493.64 679.719V679.688C493.64 674.375 496.827 671.094 501.655 671.094C506.468 671.094 509.671 674.344 509.671 679.688V679.719C509.671 685.094 506.515 688.328 501.655 688.328ZM501.671 685.188C504.14 685.188 505.718 683.188 505.718 679.719V679.688C505.718 676.234 504.108 674.25 501.655 674.25C499.218 674.25 497.608 676.25 497.608 679.688V679.719C497.608 683.203 499.202 685.188 501.671 685.188ZM512.852 688V671.438H520.711C524.055 671.438 526.055 673.031 526.055 675.656V675.688C526.055 677.422 524.789 678.984 523.149 679.266V679.391C525.321 679.656 526.789 681.156 526.789 683.203V683.234C526.789 686.141 524.508 688 520.836 688H512.852ZM516.696 678.188H519.492C521.305 678.188 522.227 677.516 522.227 676.156V676.125C522.227 674.812 521.352 674.109 519.789 674.109H516.696V678.188ZM516.696 685.312H519.93C521.774 685.312 522.789 684.547 522.789 683.031V683C522.789 681.5 521.711 680.797 519.617 680.797H516.696V685.312ZM534.939 688.281C531.611 688.281 529.376 686.234 529.376 683.281V683.25C529.376 680.312 531.673 678.547 535.673 678.297L540.001 678.031V676.891C540.001 675.219 538.908 674.203 536.955 674.203C535.111 674.203 533.97 675.062 533.72 676.281L533.689 676.422H530.08L530.095 676.234C530.345 673.297 532.876 671.094 537.08 671.094C541.236 671.094 543.892 673.281 543.892 676.609V688H540.001V685.453H539.923C538.955 687.188 537.111 688.281 534.939 688.281ZM533.267 683.125C533.267 684.484 534.376 685.312 536.095 685.312C538.33 685.312 540.001 683.828 540.001 681.859V680.609L536.22 680.844C534.314 680.969 533.267 681.797 533.267 683.109V683.125ZM558.542 688V680.984H551.573V688H547.682V671.438H551.573V677.969H558.542V671.438H562.432V688H558.542ZM566.285 688V671.438H570.129V682.484H570.285L577.426 671.438H581.238V688H577.395V676.875H577.238L570.098 688H566.285ZM585.107 688V671.438H588.997V677.953H591.529C592.138 673.656 595.013 671.094 599.31 671.094C604.2 671.094 607.232 674.328 607.232 679.703V679.734C607.232 685.125 604.216 688.328 599.31 688.328C594.841 688.328 591.935 685.609 591.466 681H588.997V688H585.107ZM599.31 685.188C601.81 685.188 603.247 683.188 603.247 679.734V679.703C603.247 676.25 601.794 674.25 599.31 674.25C596.81 674.25 595.357 676.25 595.357 679.703V679.734C595.357 683.188 596.794 685.188 599.31 685.188Z" fill="#0C0D0E"/>
<path d="M161.516 730V718.727H165.766C167.883 718.727 169.383 720.188 169.383 722.328V722.344C169.383 724.484 167.883 725.977 165.766 725.977H162.922V730H161.516ZM165.406 719.977H162.922V724.727H165.406C167.016 724.727 167.945 723.844 167.945 722.359V722.344C167.945 720.859 167.016 719.977 165.406 719.977ZM174.633 730.148C172.227 730.148 170.774 728.461 170.774 725.82V725.812C170.774 723.211 172.258 721.43 174.547 721.43C176.836 721.43 178.227 723.133 178.227 725.648V726.18H172.164C172.203 727.922 173.164 728.938 174.664 728.938C175.805 728.938 176.508 728.398 176.735 727.891L176.766 727.82H178.125L178.11 727.883C177.821 729.023 176.618 730.148 174.633 730.148ZM174.539 722.641C173.289 722.641 172.336 723.492 172.188 725.094H176.844C176.703 723.43 175.782 722.641 174.539 722.641ZM180.165 730V721.578H181.524V728.875H184.688V721.578H186.048V728.875H189.212V721.578H190.571V730H180.165ZM195.243 730.148C193.642 730.148 192.431 729.18 192.431 727.648V727.633C192.431 726.133 193.54 725.266 195.501 725.148L197.915 725V724.234C197.915 723.195 197.282 722.633 196.024 722.633C195.017 722.633 194.353 723.008 194.134 723.664L194.126 723.688H192.767L192.774 723.641C192.993 722.32 194.274 721.43 196.071 721.43C198.126 721.43 199.274 722.484 199.274 724.234V730H197.915V728.758H197.79C197.259 729.656 196.376 730.148 195.243 730.148ZM193.821 727.617C193.821 728.469 194.548 728.969 195.524 728.969C196.907 728.969 197.915 728.062 197.915 726.859V726.094L195.665 726.234C194.384 726.312 193.821 726.766 193.821 727.602V727.617ZM205.095 720.406C203.486 720.406 202.415 719.297 202.415 717.844H203.634C203.634 718.695 204.189 719.484 205.095 719.484C206.017 719.484 206.556 718.695 206.556 717.844H207.775C207.775 719.297 206.704 720.406 205.095 720.406ZM201.587 730V721.578H202.947V727.859H203.072L207.236 721.578H208.595V730H207.236V723.719H207.111L202.947 730H201.587ZM217.056 721.578V722.703H214.33V730H212.97V722.703H210.244V721.578H217.056ZM221.83 730.148C219.424 730.148 217.971 728.461 217.971 725.82V725.812C217.971 723.211 219.455 721.43 221.744 721.43C224.033 721.43 225.424 723.133 225.424 725.648V726.18H219.361C219.4 727.922 220.361 728.938 221.861 728.938C223.002 728.938 223.705 728.398 223.932 727.891L223.963 727.82H225.322L225.307 727.883C225.018 729.023 223.814 730.148 221.83 730.148ZM221.736 722.641C220.486 722.641 219.533 723.492 219.385 725.094H224.041C223.9 723.43 222.978 722.641 221.736 722.641ZM234.409 730.156C232.612 730.156 231.245 729.266 231.073 727.906L231.065 727.844H232.448L232.463 727.906C232.635 728.594 233.385 729.031 234.409 729.031C235.651 729.031 236.385 728.43 236.385 727.594V727.578C236.385 726.664 235.698 726.242 234.409 726.242H233.096V725.117H234.409C235.487 725.117 236.088 724.688 236.088 723.812V723.797C236.088 723.078 235.534 722.547 234.456 722.547C233.495 722.547 232.768 722.977 232.635 723.648L232.628 723.688H231.299L231.307 723.633C231.503 722.281 232.737 721.422 234.456 721.422C236.338 721.422 237.417 722.352 237.417 723.695V723.711C237.417 724.562 236.862 725.336 236.026 725.531V725.656C237.135 725.898 237.721 726.57 237.721 727.508V727.523C237.721 729.086 236.37 730.156 234.409 730.156ZM241.979 730.148C240.378 730.148 239.167 729.18 239.167 727.648V727.633C239.167 726.133 240.276 725.266 242.237 725.148L244.651 725V724.234C244.651 723.195 244.018 722.633 242.761 722.633C241.753 722.633 241.089 723.008 240.87 723.664L240.862 723.688H239.503L239.511 723.641C239.729 722.32 241.011 721.43 242.808 721.43C244.862 721.43 246.011 722.484 246.011 724.234V730H244.651V728.758H244.526C243.995 729.656 243.112 730.148 241.979 730.148ZM240.558 727.617C240.558 728.469 241.284 728.969 242.261 728.969C243.643 728.969 244.651 728.062 244.651 726.859V726.094L242.401 726.234C241.12 726.312 240.558 726.766 240.558 727.602V727.617ZM248.519 732.227H247.253V728.875H247.956C248.573 728.469 248.878 727.406 248.956 726.273L249.284 721.578H255.027V728.875H256.37V732.227H255.105V730H248.519V732.227ZM253.667 728.875V722.703H250.488L250.222 726.305C250.144 727.328 249.925 728.227 249.527 728.75V728.875H253.667ZM260.136 730.148C258.535 730.148 257.324 729.18 257.324 727.648V727.633C257.324 726.133 258.433 725.266 260.394 725.148L262.808 725V724.234C262.808 723.195 262.175 722.633 260.918 722.633C259.91 722.633 259.246 723.008 259.027 723.664L259.019 723.688H257.66L257.668 723.641C257.886 722.32 259.168 721.43 260.964 721.43C263.019 721.43 264.168 722.484 264.168 724.234V730H262.808V728.758H262.683C262.152 729.656 261.269 730.148 260.136 730.148ZM258.714 727.617C258.714 728.469 259.441 728.969 260.418 728.969C261.8 728.969 262.808 728.062 262.808 726.859V726.094L260.558 726.234C259.277 726.312 258.714 726.766 258.714 727.602V727.617ZM272.902 730H271.543V726.492H271.418C270.965 726.812 270.316 727 269.41 727C267.379 727 266.324 725.781 266.324 723.984V721.578H267.683V723.984C267.683 725.094 268.262 725.797 269.41 725.797C270.465 725.797 271.191 725.523 271.543 725.133V721.578H272.902V730ZM275.254 730V721.578H276.613V727.859H276.738L280.902 721.578H282.262V730H280.902V723.719H280.777L276.613 730H275.254ZM284.207 732.867L284.887 728.422H286.442L285.215 732.867H284.207ZM296.685 730.148C294.325 730.148 292.818 728.438 292.818 725.766V725.75C292.818 723.133 294.318 721.43 296.677 721.43C298.724 721.43 299.95 722.609 300.2 724.109L300.208 724.156H298.857L298.849 724.133C298.638 723.305 297.888 722.633 296.677 722.633C295.161 722.633 294.208 723.852 294.208 725.75V725.766C294.208 727.703 295.177 728.945 296.677 728.945C297.81 728.945 298.528 728.445 298.841 727.508L298.857 727.461L300.2 727.453L300.185 727.539C299.841 729.062 298.708 730.148 296.685 730.148ZM305.49 730.148C303.091 730.148 301.607 728.492 301.607 725.797V725.781C301.607 723.078 303.091 721.43 305.49 721.43C307.888 721.43 309.372 723.078 309.372 725.781V725.797C309.372 728.492 307.888 730.148 305.49 730.148ZM305.49 728.945C307.083 728.945 307.982 727.781 307.982 725.797V725.781C307.982 723.789 307.083 722.633 305.49 722.633C303.896 722.633 302.997 723.789 302.997 725.781V725.797C302.997 727.781 303.896 728.945 305.49 728.945ZM311.318 732.812V721.578H312.678V722.922H312.803C313.318 721.984 314.256 721.43 315.428 721.43C317.56 721.43 318.959 723.156 318.959 725.781V725.797C318.959 728.438 317.568 730.148 315.428 730.148C314.271 730.148 313.263 729.57 312.803 728.672H312.678V732.812H311.318ZM315.115 728.945C316.654 728.945 317.568 727.758 317.568 725.797V725.781C317.568 723.82 316.654 722.633 315.115 722.633C313.584 722.633 312.646 723.836 312.646 725.781V725.797C312.646 727.742 313.584 728.945 315.115 728.945ZM324.357 730.148C321.951 730.148 320.498 728.461 320.498 725.82V725.812C320.498 723.211 321.982 721.43 324.272 721.43C326.561 721.43 327.951 723.133 327.951 725.648V726.18H321.889C321.928 727.922 322.889 728.938 324.389 728.938C325.529 728.938 326.232 728.398 326.459 727.891L326.49 727.82H327.85L327.834 727.883C327.545 729.023 326.342 730.148 324.357 730.148ZM324.264 722.641C323.014 722.641 322.061 723.492 321.912 725.094H326.568C326.428 723.43 325.506 722.641 324.264 722.641ZM329.889 730V721.578H333.459C335.053 721.578 335.983 722.445 335.983 723.766V723.781C335.983 724.617 335.397 725.406 334.608 725.57V725.695C335.678 725.844 336.358 726.594 336.358 727.57V727.586C336.358 729.047 335.288 730 333.475 730H329.889ZM331.248 725.141H333.045C334.139 725.141 334.631 724.719 334.631 723.922V723.906C334.631 723.188 334.209 722.703 333.264 722.703H331.248V725.141ZM331.248 728.875H333.42C334.452 728.875 334.975 728.406 334.975 727.562V727.547C334.975 726.656 334.373 726.266 333.163 726.266H331.248V728.875ZM343.866 730V726.188H339.694V730H338.335V721.578H339.694V725.062H343.866V721.578H345.225V730H343.866ZM348.304 732.953C348.124 732.953 347.89 732.938 347.702 732.906V731.789C347.866 731.82 348.077 731.828 348.265 731.828C349.038 731.828 349.507 731.477 349.812 730.508L349.968 730.008L346.851 721.578H348.304L350.616 728.508H350.741L353.046 721.578H354.476L351.187 730.516C350.491 732.406 349.796 732.953 348.304 732.953ZM359.609 720.406C357.999 720.406 356.929 719.297 356.929 717.844H358.148C358.148 718.695 358.702 719.484 359.609 719.484C360.531 719.484 361.07 718.695 361.07 717.844H362.288C362.288 719.297 361.218 720.406 359.609 720.406ZM356.101 730V721.578H357.46V727.859H357.585L361.749 721.578H363.109V730H361.749V723.719H361.624L357.46 730H356.101ZM371.57 721.578V722.703H368.843V730H367.484V722.703H364.758V721.578H371.57ZM376.344 730.148C373.938 730.148 372.484 728.461 372.484 725.82V725.812C372.484 723.211 373.969 721.43 376.258 721.43C378.547 721.43 379.938 723.133 379.938 725.648V726.18H373.875C373.914 727.922 374.875 728.938 376.375 728.938C377.516 728.938 378.219 728.398 378.445 727.891L378.477 727.82H379.836L379.82 727.883C379.531 729.023 378.328 730.148 376.344 730.148ZM376.25 722.641C375 722.641 374.047 723.492 373.898 725.094H378.555C378.414 723.43 377.492 722.641 376.25 722.641ZM385.328 730.148C382.969 730.148 381.461 728.438 381.461 725.766V725.75C381.461 723.133 382.961 721.43 385.321 721.43C387.367 721.43 388.594 722.609 388.844 724.109L388.852 724.156H387.5L387.492 724.133C387.282 723.305 386.532 722.633 385.321 722.633C383.805 722.633 382.852 723.852 382.852 725.75V725.766C382.852 727.703 383.821 728.945 385.321 728.945C386.453 728.945 387.172 728.445 387.485 727.508L387.5 727.461L388.844 727.453L388.828 727.539C388.485 729.062 387.352 730.148 385.328 730.148ZM390.665 730V721.578H392.024V724.281H393.673C395.602 724.281 396.837 725.391 396.837 727.133V727.148C396.837 728.891 395.602 730 393.673 730H390.665ZM393.673 725.406H392.024V728.875H393.673C394.782 728.875 395.477 728.188 395.477 727.148V727.133C395.477 726.086 394.774 725.406 393.673 725.406ZM402.79 730V721.578H406.361C407.954 721.578 408.884 722.445 408.884 723.766V723.781C408.884 724.617 408.298 725.406 407.509 725.57V725.695C408.579 725.844 409.259 726.594 409.259 727.57V727.586C409.259 729.047 408.189 730 406.376 730H402.79ZM404.15 725.141H405.947C407.04 725.141 407.533 724.719 407.533 723.922V723.906C407.533 723.188 407.111 722.703 406.165 722.703H404.15V725.141ZM404.15 728.875H406.322C407.353 728.875 407.876 728.406 407.876 727.562V727.547C407.876 726.656 407.275 726.266 406.064 726.266H404.15V728.875ZM415.424 732.812V721.578H416.783V722.922H416.908C417.424 721.984 418.361 721.43 419.533 721.43C421.666 721.43 423.064 723.156 423.064 725.781V725.797C423.064 728.438 421.674 730.148 419.533 730.148C418.377 730.148 417.369 729.57 416.908 728.672H416.783V732.812H415.424ZM419.221 728.945C420.76 728.945 421.674 727.758 421.674 725.797V725.781C421.674 723.82 420.76 722.633 419.221 722.633C417.689 722.633 416.752 723.836 416.752 725.781V725.797C416.752 727.742 417.689 728.945 419.221 728.945ZM428.463 730.148C426.057 730.148 424.604 728.461 424.604 725.82V725.812C424.604 723.211 426.088 721.43 428.377 721.43C430.666 721.43 432.057 723.133 432.057 725.648V726.18H425.994C426.033 727.922 426.994 728.938 428.494 728.938C429.635 728.938 430.338 728.398 430.565 727.891L430.596 727.82H431.955L431.94 727.883C431.651 729.023 430.448 730.148 428.463 730.148ZM428.369 722.641C427.119 722.641 426.166 723.492 426.018 725.094H430.674C430.533 723.43 429.612 722.641 428.369 722.641ZM437.503 720.406C435.893 720.406 434.823 719.297 434.823 717.844H436.042C436.042 718.695 436.596 719.484 437.503 719.484C438.424 719.484 438.963 718.695 438.963 717.844H440.182C440.182 719.297 439.112 720.406 437.503 720.406ZM433.995 730V721.578H435.354V727.859H435.479L439.643 721.578H441.003V730H439.643V723.719H439.518L435.354 730H433.995ZM449.464 721.578V722.703H446.737V730H445.378V722.703H442.651V721.578H449.464ZM451.105 730V721.578H452.464V727.859H452.589L456.753 721.578H458.112V730H456.753V723.719H456.628L452.464 730H451.105ZM466.003 730V726.188H461.832V730H460.472V721.578H461.832V725.062H466.003V721.578H467.363V730H466.003ZM475.105 722.703H471.074V730H469.715V721.578H475.105V722.703ZM480.043 730.148C477.637 730.148 476.184 728.461 476.184 725.82V725.812C476.184 723.211 477.668 721.43 479.957 721.43C482.246 721.43 483.637 723.133 483.637 725.648V726.18H477.574C477.613 727.922 478.574 728.938 480.074 728.938C481.215 728.938 481.918 728.398 482.145 727.891L482.176 727.82H483.535L483.52 727.883C483.231 729.023 482.027 730.148 480.043 730.148ZM479.949 722.641C478.699 722.641 477.746 723.492 477.598 725.094H482.254C482.113 723.43 481.192 722.641 479.949 722.641ZM485.161 732.867L485.84 728.422H487.395L486.168 732.867H485.161ZM494.185 730V721.578H500.997V730H499.638V722.703H495.544V730H494.185ZM503.357 732.812V721.578H504.716V722.922H504.841C505.357 721.984 506.294 721.43 507.466 721.43C509.599 721.43 510.997 723.156 510.997 725.781V725.797C510.997 728.438 509.607 730.148 507.466 730.148C506.31 730.148 505.302 729.57 504.841 728.672H504.716V732.812H503.357ZM507.154 728.945C508.693 728.945 509.607 727.758 509.607 725.797V725.781C509.607 723.82 508.693 722.633 507.154 722.633C505.622 722.633 504.685 723.836 504.685 725.781V725.797C504.685 727.742 505.622 728.945 507.154 728.945ZM516.42 730.148C514.021 730.148 512.537 728.492 512.537 725.797V725.781C512.537 723.078 514.021 721.43 516.42 721.43C518.818 721.43 520.302 723.078 520.302 725.781V725.797C520.302 728.492 518.818 730.148 516.42 730.148ZM516.42 728.945C518.013 728.945 518.912 727.781 518.912 725.797V725.781C518.912 723.789 518.013 722.633 516.42 722.633C514.826 722.633 513.927 723.789 513.927 725.781V725.797C513.927 727.781 514.826 728.945 516.42 728.945ZM524.029 726.164H523.6V730H522.24V721.578H523.6V725.102H524.029L527.287 721.578H528.92L525.131 725.547L529.068 730H527.326L524.029 726.164ZM532.709 730.148C531.108 730.148 529.897 729.18 529.897 727.648V727.633C529.897 726.133 531.006 725.266 532.967 725.148L535.381 725V724.234C535.381 723.195 534.748 722.633 533.491 722.633C532.483 722.633 531.819 723.008 531.6 723.664L531.592 723.688H530.233L530.241 723.641C530.459 722.32 531.741 721.43 533.538 721.43C535.592 721.43 536.741 722.484 536.741 724.234V730H535.381V728.758H535.256C534.725 729.656 533.842 730.148 532.709 730.148ZM531.288 727.617C531.288 728.469 532.014 728.969 532.991 728.969C534.373 728.969 535.381 728.062 535.381 726.859V726.094L533.131 726.234C531.85 726.312 531.288 726.766 531.288 727.602V727.617ZM545.475 730H544.116V726.492H543.991C543.538 726.812 542.889 727 541.983 727C539.952 727 538.897 725.781 538.897 723.984V721.578H540.257V723.984C540.257 725.094 540.835 725.797 541.983 725.797C543.038 725.797 543.764 725.523 544.116 725.133V721.578H545.475V730ZM547.827 730V721.578H549.187V727.859H549.312L553.476 721.578H554.835V730H553.476V723.719H553.351L549.187 730H547.827ZM557.195 730V721.578H560.765C562.359 721.578 563.288 722.445 563.288 723.766V723.781C563.288 724.617 562.703 725.406 561.913 725.57V725.695C562.984 725.844 563.663 726.594 563.663 727.57V727.586C563.663 729.047 562.593 730 560.781 730H557.195ZM558.554 725.141H560.351C561.445 725.141 561.937 724.719 561.937 723.922V723.906C561.937 723.188 561.515 722.703 560.57 722.703H558.554V725.141ZM558.554 728.875H560.726C561.757 728.875 562.281 728.406 562.281 727.562V727.547C562.281 726.656 561.679 726.266 560.468 726.266H558.554V728.875ZM567.961 730.148C566.359 730.148 565.148 729.18 565.148 727.648V727.633C565.148 726.133 566.258 725.266 568.218 725.148L570.633 725V724.234C570.633 723.195 570 722.633 568.742 722.633C567.734 722.633 567.07 723.008 566.851 723.664L566.843 723.688H565.484L565.492 723.641C565.711 722.32 566.992 721.43 568.789 721.43C570.843 721.43 571.992 722.484 571.992 724.234V730H570.633V728.758H570.508C569.976 729.656 569.093 730.148 567.961 730.148ZM566.539 727.617C566.539 728.469 567.265 728.969 568.242 728.969C569.625 728.969 570.633 728.062 570.633 726.859V726.094L568.383 726.234C567.101 726.312 566.539 726.766 566.539 727.602V727.617ZM577.812 720.406C576.203 720.406 575.133 719.297 575.133 717.844H576.352C576.352 718.695 576.906 719.484 577.812 719.484C578.734 719.484 579.273 718.695 579.273 717.844H580.492C580.492 719.297 579.422 720.406 577.812 720.406ZM574.305 730V721.578H575.664V727.859H575.789L579.953 721.578H581.312V730H579.953V723.719H579.828L575.664 730H574.305ZM589.774 721.578V722.703H587.047V730H585.688V722.703H582.961V721.578H589.774ZM594.547 730.148C592.141 730.148 590.688 728.461 590.688 725.82V725.812C590.688 723.211 592.172 721.43 594.462 721.43C596.751 721.43 598.141 723.133 598.141 725.648V726.18H592.079C592.118 727.922 593.079 728.938 594.579 728.938C595.719 728.938 596.422 728.398 596.649 727.891L596.68 727.82H598.04L598.024 727.883C597.735 729.023 596.532 730.148 594.547 730.148ZM594.454 722.641C593.204 722.641 592.251 723.492 592.102 725.094H596.758C596.618 723.43 595.696 722.641 594.454 722.641ZM609.79 730V726.188H605.618V730H604.259V721.578H605.618V725.062H609.79V721.578H611.15V730H609.79ZM615.822 730.148C614.22 730.148 613.009 729.18 613.009 727.648V727.633C613.009 726.133 614.119 725.266 616.08 725.148L618.494 725V724.234C618.494 723.195 617.861 722.633 616.603 722.633C615.595 722.633 614.931 723.008 614.712 723.664L614.705 723.688H613.345L613.353 723.641C613.572 722.32 614.853 721.43 616.65 721.43C618.705 721.43 619.853 722.484 619.853 724.234V730H618.494V728.758H618.369C617.837 729.656 616.955 730.148 615.822 730.148ZM614.4 727.617C614.4 728.469 615.127 728.969 616.103 728.969C617.486 728.969 618.494 728.062 618.494 726.859V726.094L616.244 726.234C614.962 726.312 614.4 726.766 614.4 727.602V727.617ZM622.166 730V721.578H625.736C627.33 721.578 628.26 722.445 628.26 723.766V723.781C628.26 724.617 627.674 725.406 626.885 725.57V725.695C627.955 725.844 628.635 726.594 628.635 727.57V727.586C628.635 729.047 627.564 730 625.752 730H622.166ZM623.525 725.141H625.322C626.416 725.141 626.908 724.719 626.908 723.922V723.906C626.908 723.188 626.486 722.703 625.541 722.703H623.525V725.141ZM623.525 728.875H625.697C626.728 728.875 627.252 728.406 627.252 727.562V727.547C627.252 726.656 626.65 726.266 625.439 726.266H623.525V728.875ZM630.612 730V721.578H631.971V724.281H633.619C635.549 724.281 636.783 725.391 636.783 727.133V727.148C636.783 728.891 635.549 730 633.619 730H630.612ZM638.252 730V721.578H639.612V730H638.252ZM633.619 725.406H631.971V728.875H633.619C634.729 728.875 635.424 728.188 635.424 727.148V727.133C635.424 726.086 634.721 725.406 633.619 725.406ZM643.753 726.164H643.323V730H641.963V721.578H643.323V725.102H643.753L647.01 721.578H648.643L644.854 725.547L648.792 730H647.049L643.753 726.164ZM161.336 752V743.578H168.148V752H166.789V744.703H162.695V752H161.336ZM170.508 754.812V743.578H171.868V744.922H171.993C172.508 743.984 173.446 743.43 174.618 743.43C176.75 743.43 178.149 745.156 178.149 747.781V747.797C178.149 750.438 176.758 752.148 174.618 752.148C173.461 752.148 172.453 751.57 171.993 750.672H171.868V754.812H170.508ZM174.305 750.945C175.844 750.945 176.758 749.758 176.758 747.797V747.781C176.758 745.82 175.844 744.633 174.305 744.633C172.774 744.633 171.836 745.836 171.836 747.781V747.797C171.836 749.742 172.774 750.945 174.305 750.945ZM183.571 752.148C181.173 752.148 179.688 750.492 179.688 747.797V747.781C179.688 745.078 181.173 743.43 183.571 743.43C185.969 743.43 187.454 745.078 187.454 747.781V747.797C187.454 750.492 185.969 752.148 183.571 752.148ZM183.571 750.945C185.165 750.945 186.063 749.781 186.063 747.797V747.781C186.063 745.789 185.165 744.633 183.571 744.633C181.977 744.633 181.079 745.789 181.079 747.781V747.797C181.079 749.781 181.977 750.945 183.571 750.945ZM194.782 744.703H190.751V752H189.392V743.578H194.782V744.703ZM196.517 754.812V743.578H197.876V744.922H198.001C198.517 743.984 199.454 743.43 200.626 743.43C202.759 743.43 204.158 745.156 204.158 747.781V747.797C204.158 750.438 202.767 752.148 200.626 752.148C199.47 752.148 198.462 751.57 198.001 750.672H197.876V754.812H196.517ZM200.314 750.945C201.853 750.945 202.767 749.758 202.767 747.797V747.781C202.767 745.82 201.853 744.633 200.314 744.633C198.783 744.633 197.845 745.836 197.845 747.781V747.797C197.845 749.742 198.783 750.945 200.314 750.945ZM208.431 752.148C206.83 752.148 205.619 751.18 205.619 749.648V749.633C205.619 748.133 206.728 747.266 208.689 747.148L211.103 747V746.234C211.103 745.195 210.47 744.633 209.213 744.633C208.205 744.633 207.541 745.008 207.322 745.664L207.314 745.688H205.955L205.963 745.641C206.181 744.32 207.463 743.43 209.259 743.43C211.314 743.43 212.463 744.484 212.463 746.234V752H211.103V750.758H210.978C210.447 751.656 209.564 752.148 208.431 752.148ZM207.009 749.617C207.009 750.469 207.736 750.969 208.713 750.969C210.095 750.969 211.103 750.062 211.103 748.859V748.094L208.853 748.234C207.572 748.312 207.009 748.766 207.009 749.602V749.617ZM216.135 752H214.775V743.578H216.424L219.424 750.109H219.549L222.564 743.578H224.143V752H222.783V746.008H222.635L219.978 751.766H218.932L216.283 746.008H216.135V752ZM227.862 752H226.502V743.578H228.151L231.151 750.109H231.276L234.291 743.578H235.869V752H234.51V746.008H234.362L231.705 751.766H230.658L228.01 746.008H227.862V752ZM238.229 752V743.578H239.588V749.859H239.713L243.878 743.578H245.237V752H243.878V745.719H243.753L239.588 752H238.229ZM247.604 754.812V743.578H248.964V744.922H249.089C249.604 743.984 250.542 743.43 251.714 743.43C253.847 743.43 255.245 745.156 255.245 747.781V747.797C255.245 750.438 253.854 752.148 251.714 752.148C250.558 752.148 249.55 751.57 249.089 750.672H248.964V754.812H247.604ZM251.401 750.945C252.94 750.945 253.854 749.758 253.854 747.797V747.781C253.854 745.82 252.94 744.633 251.401 744.633C249.87 744.633 248.933 745.836 248.933 747.781V747.797C248.933 749.742 249.87 750.945 251.401 750.945ZM260.667 752.148C258.269 752.148 256.784 750.492 256.784 747.797V747.781C256.784 745.078 258.269 743.43 260.667 743.43C263.066 743.43 264.55 745.078 264.55 747.781V747.797C264.55 750.492 263.066 752.148 260.667 752.148ZM260.667 750.945C262.261 750.945 263.159 749.781 263.159 747.797V747.781C263.159 745.789 262.261 744.633 260.667 744.633C259.073 744.633 258.175 745.789 258.175 747.781V747.797C258.175 749.781 259.073 750.945 260.667 750.945ZM266.488 752V743.578H270.058C271.652 743.578 272.582 744.445 272.582 745.766V745.781C272.582 746.617 271.996 747.406 271.207 747.57V747.695C272.277 747.844 272.957 748.594 272.957 749.57V749.586C272.957 751.047 271.886 752 270.074 752H266.488ZM267.847 747.141H269.644C270.738 747.141 271.23 746.719 271.23 745.922V745.906C271.23 745.188 270.808 744.703 269.863 744.703H267.847V747.141ZM267.847 750.875H270.019C271.05 750.875 271.574 750.406 271.574 749.562V749.547C271.574 748.656 270.972 748.266 269.761 748.266H267.847V750.875ZM277.254 752.148C275.652 752.148 274.441 751.18 274.441 749.648V749.633C274.441 748.133 275.551 747.266 277.512 747.148L279.926 747V746.234C279.926 745.195 279.293 744.633 278.035 744.633C277.027 744.633 276.363 745.008 276.144 745.664L276.137 745.688H274.777L274.785 745.641C275.004 744.32 276.285 743.43 278.082 743.43C280.137 743.43 281.285 744.484 281.285 746.234V752H279.926V750.758H279.801C279.269 751.656 278.387 752.148 277.254 752.148ZM275.832 749.617C275.832 750.469 276.558 750.969 277.535 750.969C278.918 750.969 279.926 750.062 279.926 748.859V748.094L277.676 748.234C276.394 748.312 275.832 748.766 275.832 749.602V749.617ZM289.129 752V748.188H284.957V752H283.598V743.578H284.957V747.062H289.129V743.578H290.488V752H289.129ZM292.84 752V743.578H294.2V749.859H294.325L298.489 743.578H299.848V752H298.489V745.719H298.364L294.2 752H292.84ZM306.677 752V748.984H305.247L303.098 752H301.497L303.848 748.734C302.661 748.398 301.942 747.523 301.942 746.375V746.359C301.942 744.633 303.177 743.578 305.106 743.578H308.036V752H306.677ZM305.106 747.859H306.677V744.703H305.106C303.997 744.703 303.333 745.312 303.333 746.328V746.344C303.333 747.227 304.005 747.859 305.106 747.859Z" fill="#4D535B"/>
</svg>
