
<svg viewBox="0 0 269 185" fill="none" xmlns="http://www.w3.org/2000/svg">
<path d="M132.218 22.7212L130.972 22.4919C131.542 23.0924 131.938 23.8929 132.054 24.7163C132.062 24.7701 132.068 24.8234 132.073 24.8761L132.925 24.7564L132.819 24.2781C132.695 23.7179 132.49 23.1955 132.218 22.7212ZM125.336 21.454C123.766 23.6251 122.444 26.0282 121.369 28.664L125.233 28.113C124.445 27.3999 123.994 26.722 123.873 25.866C123.703 24.6513 124.126 23.5633 125.037 22.644C125.462 22.2152 125.899 21.8757 126.358 21.6422L125.336 21.454ZM123.018 22.4977C122.682 23.0985 122.468 23.7735 122.407 24.4865C122.984 23.4359 123.608 22.4281 124.277 21.4632L123.018 22.4977ZM133.616 25.4621C133.557 25.5109 133.484 25.5445 133.403 25.556L132.035 25.7482C131.935 26.2676 131.692 26.7682 131.309 27.3253C130.572 28.398 129.633 29.1193 128.524 29.2752C127.713 29.3892 126.946 29.2286 126.232 28.8375L122.435 29.3788L122.506 36.8899L121.641 36.9104L121.561 29.5035L120.758 29.6181C120.433 29.6643 120.179 29.3444 120.297 29.0387C120.68 28.0461 121.097 27.0844 121.547 26.1536L121.538 25.2162C121.383 22.2049 123.554 19.5731 126.54 19.1533C129.838 18.6898 132.938 20.841 133.657 24.0926L133.743 24.4809C133.885 24.4374 134.031 24.4049 134.179 24.384C135.913 24.1403 137.516 25.5327 137.788 27.4624C138.053 29.3524 136.949 31.099 135.274 31.3991L136.329 36.1678C136.362 36.3169 136.313 36.4652 136.212 36.5654L135.623 36.5793C135.559 36.5216 135.511 36.4439 135.491 36.3532L134.331 31.1071C134.271 30.8374 134.478 30.5823 134.754 30.5853C134.852 30.5863 134.95 30.58 135.048 30.5662C136.285 30.3925 137.146 29.0665 136.938 27.5819C136.729 26.0973 135.535 25.0602 134.299 25.234C134.066 25.2667 133.844 25.3399 133.638 25.4509C133.631 25.4549 133.624 25.4586 133.616 25.4621ZM127.433 26.2708C127.661 26.2489 127.89 26.2154 128.121 26.1706C128.691 26.0597 129.226 25.8878 129.726 25.655C129.978 25.5376 130.145 25.2908 130.159 25.0132C130.181 24.599 129.862 24.2458 129.448 24.2242C128.897 24.1955 128.337 24.2364 127.766 24.3473C127.196 24.4582 126.661 24.63 126.161 24.8629C125.909 24.9802 125.743 25.2271 125.728 25.5046C125.715 25.7606 125.831 25.9934 126.02 26.1389C125.984 26.0517 125.961 25.9567 125.954 25.8566C125.921 25.3855 126.254 24.9786 126.697 24.9476C127.141 24.9166 127.527 25.2733 127.56 25.7443C127.573 25.9378 127.525 26.1206 127.433 26.2708ZM128.404 28.4253C129.238 28.3081 129.988 27.7317 130.602 26.8389C131.118 26.0894 131.302 25.5302 131.204 24.8357C131.11 24.165 130.771 23.5018 130.292 23.0239C129.591 22.3235 128.596 22.0063 127.523 22.157C126.878 22.2476 126.262 22.6278 125.647 23.2482C124.914 23.9872 124.592 24.8146 124.723 25.7466C124.812 26.3803 125.174 26.911 125.855 27.5187C126.651 28.2277 127.497 28.5528 128.404 28.4253ZM128.285 27.0131C127.646 27.1372 127.016 27.1831 126.394 27.1508C125.507 27.1046 124.825 26.3476 124.871 25.46C124.902 24.8653 125.259 24.3363 125.799 24.0848C126.363 23.8221 126.964 23.6288 127.603 23.5048C128.241 23.3807 128.871 23.3347 129.493 23.3671C130.38 23.4133 131.062 24.1703 131.016 25.0579C130.985 25.6526 130.628 26.1816 130.088 26.433C129.524 26.6957 128.923 26.889 128.285 27.0131ZM124.827 30.8068C124.601 30.7337 124.478 30.4917 124.551 30.2662C124.624 30.0408 124.866 29.9172 125.092 29.9903C125.585 30.1503 126.157 30.0516 126.826 29.6672C127.031 29.5491 127.293 29.6199 127.411 29.8254C127.53 30.0309 127.459 30.2932 127.253 30.4113C126.389 30.908 125.574 31.0488 124.827 30.8068Z" fill="#0C0D0E"/>
<path fill-rule="evenodd" clip-rule="evenodd" d="M80.0926 50.114C79.0612 52.1697 78.1135 53.4748 77.2495 54.0291C76.1085 54.7611 73.6359 55.7841 70.7617 55.2135C70.1525 55.0926 69.3365 54.7819 68.3138 54.2816C67.5054 53.8861 66.7692 53.3724 66.1264 52.7629L65.7175 52.8405L84.3959 84.3814L142.647 90.4229L142.674 90.1661L178.6 93.1044L179.745 66.4365L148.422 36.3091L114.21 37.1191L93.538 63.5678L83.0229 49.5582L80.0926 50.114ZM156.303 76.871L159.033 87.1601L127.907 88.1662C126.941 88.1974 126.133 87.4402 126.102 86.475C126.09 86.0816 126.21 85.6954 126.444 85.379C126.786 84.9157 127.41 84.6858 128.316 84.6894L127.637 84.4584C126.571 84.0953 126.001 82.9366 126.364 81.8703C126.587 81.2161 127.126 80.7192 127.797 80.5502C128.806 80.2957 130.434 80.0829 132.678 79.9118L131.062 68.8104C130.929 67.8945 131.563 67.044 132.479 66.9107C132.993 66.836 133.512 67.0032 133.885 67.3635C134.591 68.0459 135.648 70.6013 137.056 75.0296H143.554C142.054 72.486 141.248 70.7221 141.134 69.7378C141.02 68.7453 141.732 67.848 142.725 67.7338C143.279 67.6699 143.832 67.8656 144.223 68.2642L152.451 76.6534L155.759 76.4791L154.355 70.0027C154.307 69.7841 154.436 69.5657 154.65 69.501L158.366 68.378L150.62 60.8259C150.45 60.6604 150.447 60.3887 150.612 60.219C150.777 60.0493 151.049 60.0459 151.219 60.2113L159.278 68.0678C159.287 68.0766 159.295 68.0856 159.303 68.0949L163.058 66.9602C163.285 66.8917 163.524 67.02 163.593 67.2469C163.661 67.4738 163.533 67.7132 163.306 67.7818L155.277 70.208L156.612 76.3653C156.661 76.5905 156.524 76.8127 156.303 76.871ZM114.332 60.063L115.941 73.67C115.969 73.9054 115.801 74.1188 115.565 74.1466C115.33 74.1744 115.117 74.0062 115.089 73.7708L113.479 60.1638C113.452 59.9284 113.62 59.715 113.855 59.6872C114.091 59.6594 114.304 59.8276 114.332 60.063ZM144.225 47.5358C144.225 48.4055 144.294 49.4072 144.431 50.5408C144.83 53.8431 142.476 56.8437 139.174 57.2428C139.033 57.2598 138.892 57.2718 138.751 57.2788C135.888 57.4212 133.452 55.2158 133.309 52.3531C133.286 51.8725 133.329 51.391 133.437 50.9223C133.931 48.7934 134.31 47.1913 134.575 46.1159C134.59 46.0549 134.607 45.9955 134.627 45.9377C135.509 43.3606 138.314 41.9869 140.891 42.8695C142.886 43.5526 144.225 45.4276 144.225 47.5358ZM85.8826 31.4375L79.4149 32.6137L80.362 41.5653L83.0155 37.3886L85.9437 40.8093L85.8826 31.4375Z" fill="#0166FF"/>
<path d="M137.799 66.8077C137.498 64.5475 137.365 62.1861 137.402 59.7235C137.054 59.6514 136.724 59.4831 136.453 59.2222C135.778 58.5702 135.3 58.0206 135.019 57.5734C134.631 56.9554 134.128 55.9187 133.511 54.4631C133.409 54.2243 133.408 53.9546 133.508 53.715L133.552 53.6102C133.65 53.3739 133.921 53.2621 134.157 53.3604C134.173 53.367 134.188 53.3744 134.203 53.3826L136.736 54.7814L137.668 53.9896C138.12 53.6061 138.797 53.6614 139.181 54.1131C139.229 54.1701 139.271 54.2321 139.307 54.298L139.867 55.3356L142.718 54.2645C142.984 54.1647 143.282 54.2848 143.404 54.5409L143.452 54.6421C143.559 54.8664 143.548 55.1291 143.423 55.3438C143.005 56.0594 142.572 56.6346 142.123 57.0692C141.697 57.4811 140.612 58.2705 138.868 59.4376C138.678 59.5646 138.473 59.654 138.261 59.7067C138.225 61.9897 138.337 64.1821 138.597 66.284L145.937 61.4671C146.086 61.3696 146.286 61.411 146.383 61.5596C146.456 61.6706 146.453 61.815 146.376 61.9231L141.008 69.4502C140.216 70.5605 138.936 71.2196 137.572 71.2196C136.24 71.2196 135.023 70.467 134.427 69.2755L131.231 62.8815C131.152 62.7225 131.216 62.5292 131.375 62.4497C131.485 62.3952 131.615 62.407 131.713 62.4803L137.623 66.9231L137.799 66.8077ZM132.538 79.2203C132.578 79.207 132.621 79.1994 132.666 79.1987L136.458 79.1324C136.695 79.1283 136.891 79.3171 136.895 79.554C136.899 79.791 136.71 79.9865 136.473 79.9906L132.681 80.0568C132.555 80.059 132.441 80.0071 132.361 79.9225C130.258 80.0898 128.723 80.2955 127.755 80.5395C127.085 80.7084 126.546 81.2053 126.323 81.8596C125.96 82.9258 126.53 84.0845 127.596 84.4477L127.955 84.5701C128.011 84.4092 128.161 84.2904 128.341 84.282L135.28 83.9589C135.517 83.9479 135.717 84.1309 135.728 84.3677C135.739 84.6044 135.556 84.8053 135.32 84.8163L128.381 85.1394C128.144 85.1504 127.943 84.9674 127.932 84.7306C127.932 84.7167 127.932 84.7029 127.932 84.6893C127.21 84.7394 126.7 84.9657 126.402 85.3682C126.168 85.6847 126.048 86.0708 126.061 86.4642C126.092 87.4295 126.9 88.1867 127.865 88.1555L158.973 87.1499L159.027 87.1663L148.871 127.101L148.89 127.09L146.535 134.645C146.464 134.871 146.59 135.111 146.817 135.182C147.043 135.253 147.284 135.126 147.354 134.9L149.986 126.461L155.251 123.437L156.055 124.751L170.838 114.624C171.122 114.429 171.508 114.631 171.51 114.975L171.823 167.2C171.825 167.504 171.517 167.714 171.234 167.601L170.277 167.217C168.268 166.412 166.809 164.636 166.41 162.509L165.389 157.069L157.051 167.173H92.2663L107.752 125.112C107.8 125.068 107.839 125.013 107.864 124.948L117.944 98.585C118.029 98.3636 117.918 98.1155 117.696 98.0309C117.475 97.9462 117.227 98.0571 117.142 98.2785L111.422 113.238L107.463 112.457L83.0176 167.173L76.8072 164.8L75.9007 167.318C75.8394 167.488 75.6779 167.602 75.4969 167.602H25.5057C25.2044 167.602 24.997 167.3 25.1053 167.018L25.5616 165.834C26.3647 163.75 28.2071 162.243 30.4095 161.869L42.1067 159.885C40.3572 159.37 39.145 158.851 38.4565 158.315C37.3521 157.456 37.4931 156.439 38.7649 155.632C39.9483 154.881 41.0902 154.884 42.0929 155.664C42.9124 156.302 43.6288 157.451 44.2613 159.115L48.3482 153.925L44.6646 152.517L93.4213 67.3772L132.531 79.1741L132.538 79.2203ZM199.435 167.408C199.491 167.322 199.517 167.217 199.5 167.108L193.307 126.645C193.306 126.636 193.304 126.628 193.303 126.62C193.831 126.554 194.339 126.31 194.732 125.892C195.309 125.275 195.739 124.809 196.023 124.494C196.455 124.012 197.176 123.238 198.185 122.173C198.519 121.819 198.584 121.289 198.344 120.866C198.306 120.798 198.26 120.736 198.209 120.681C198.716 119.578 198.895 118.313 198.649 117.03C198.433 115.909 198.295 114.914 198.234 114.047C198.087 111.944 196.62 110.167 194.582 109.624C191.95 108.924 189.248 110.49 188.547 113.122C188.532 113.181 188.519 113.242 188.508 113.304C188.319 114.395 188.053 116.019 187.709 118.177C187.633 118.653 187.623 119.136 187.681 119.614C187.713 119.885 187.766 120.149 187.838 120.404C187.766 120.488 187.708 120.587 187.671 120.699C187.52 121.147 187.617 121.641 187.925 121.999L191.222 125.82C191.276 125.883 191.334 125.944 191.395 126.001C191.71 126.295 192.083 126.487 192.475 126.578C192.455 126.639 192.448 126.706 192.459 126.775L198.651 167.238C198.66 167.296 198.68 167.349 198.709 167.396L184.725 167.173L178.595 93.1106L191.701 99.9132L191.044 91.134C190.773 91.0773 190.511 90.9617 190.279 90.7864C189.529 90.2217 188.987 89.7344 188.654 89.3247C188.264 88.8445 187.754 88.0753 187.126 87.0169C186.556 86.3028 186.152 85.4392 185.985 84.4753C185.896 83.962 185.879 83.4388 185.934 82.9208C186.165 80.7459 186.346 79.1079 186.477 78.0062C186.486 77.9312 186.498 77.8576 186.514 77.7852C187.125 74.8879 189.968 73.0343 192.866 73.6451C195.108 74.1178 196.802 75.9634 197.081 78.2378C197.185 79.0827 197.372 80.052 197.642 81.1447C198.14 83.1577 197.633 85.1838 196.441 86.6946C196.192 87.1872 195.926 87.6085 195.643 87.9586C195.271 88.4192 194.291 89.335 192.702 90.7059C192.465 90.9098 192.191 91.0476 191.904 91.1185L192.552 99.7855L200.651 92.5553L205.471 136.268L207.691 111.962C207.587 111.904 207.488 111.835 207.394 111.757C206.675 111.153 206.159 110.639 205.848 110.212C205.483 109.712 205.015 108.917 204.443 107.827C203.911 107.084 203.553 106.201 203.437 105.229C203.375 104.712 203.385 104.189 203.467 103.674C203.811 101.515 204.078 99.8883 204.267 98.795C204.28 98.7206 204.296 98.6477 204.315 98.5762C205.076 95.7148 208.013 94.0126 210.875 94.7742C213.089 95.3637 214.684 97.2953 214.844 99.5813C214.903 100.43 215.039 101.408 215.252 102.514C215.644 104.55 215.032 106.547 213.762 107.993C213.488 108.472 213.2 108.879 212.9 109.213C212.504 109.654 211.477 110.517 209.818 111.803C209.529 112.027 209.193 112.158 208.849 112.196L206.26 137.154L212.442 128.527L220.26 167.74L199.435 167.408ZM166.1 156.207L167.253 162.35C167.598 164.189 168.859 165.724 170.596 166.42L170.961 166.566L170.864 150.434L166.1 156.207ZM170.855 148.913L170.656 115.788L156.504 125.483L170.855 148.913ZM76.0053 164.493L49.1879 154.246L45.0124 159.548H53.3065C53.5435 159.548 53.7357 159.74 53.7357 159.977C53.7357 160.214 53.5435 160.406 53.3065 160.406H46.907C48.2071 160.763 49.1472 161.143 49.7349 161.553C50.8828 162.353 50.7952 163.376 49.5674 164.249C48.4249 165.061 47.2844 165.118 46.2423 164.391C45.2951 163.731 44.4423 162.432 43.657 160.493L30.553 162.715C28.6493 163.038 27.0567 164.341 26.3625 166.143L26.131 166.744H75.1953L76.0053 164.493ZM41.5659 156.342C40.8622 155.794 40.1144 155.792 39.2249 156.357C38.4238 156.865 38.3816 157.17 38.9835 157.638C39.6954 158.192 41.1876 158.774 43.4373 159.363C42.8624 157.868 42.2325 156.86 41.5659 156.342ZM46.7331 163.687C47.4645 164.197 48.2114 164.16 49.0701 163.55C49.8435 163 49.8697 162.693 49.2441 162.257C48.5043 161.742 46.9836 161.238 44.7062 160.768C45.3585 162.231 46.0403 163.204 46.7331 163.687ZM204.493 106.048C204.559 106.04 204.627 106.047 204.695 106.069C204.711 106.075 204.727 106.081 204.742 106.088L207.366 107.307L208.241 106.452C208.665 106.038 209.344 106.046 209.758 106.47C209.811 106.523 209.857 106.582 209.897 106.645L210.528 107.641L213.298 106.374C213.474 106.293 213.673 106.314 213.825 106.414C214.428 105.313 214.665 104.004 214.409 102.676C214.19 101.538 214.05 100.527 213.988 99.6412C213.854 97.7211 212.514 96.0987 210.654 95.6036C208.251 94.9639 205.784 96.3936 205.144 98.797C205.132 98.8436 205.121 98.8916 205.113 98.9411C204.924 100.03 204.658 101.653 204.314 103.81C204.245 104.245 204.236 104.689 204.289 105.127C204.327 105.446 204.396 105.754 204.493 106.048ZM187.082 85.2377C187.148 85.2264 187.217 85.2291 187.285 85.2482C187.302 85.2527 187.318 85.2582 187.334 85.2646L190.018 86.3443L190.847 85.4447C191.248 85.0091 191.927 84.9814 192.363 85.383C192.418 85.4337 192.467 85.4901 192.511 85.5511L193.193 86.5128L195.893 85.1021C196.065 85.0123 196.264 85.0226 196.422 85.1146C196.965 83.9837 197.134 82.6641 196.809 81.3508C196.531 80.2265 196.338 79.2241 196.229 78.3424C195.995 76.4321 194.572 74.882 192.689 74.485C190.255 73.9719 187.867 75.5288 187.354 77.9623C187.344 78.0095 187.336 78.058 187.33 78.1078C187.199 79.2052 187.018 80.8399 186.787 83.0115C186.741 83.4504 186.755 83.8936 186.831 84.3285C186.886 84.6451 186.971 84.949 187.082 85.2377ZM191.872 125.259L188.575 121.438C188.465 121.31 188.43 121.133 188.484 120.973C188.49 120.955 188.51 120.945 188.527 120.951C188.529 120.952 188.53 120.952 188.531 120.953L191.155 122.171C191.317 122.247 191.508 122.214 191.635 122.089L192.511 121.234C192.765 120.986 193.172 120.991 193.421 121.245C193.452 121.277 193.48 121.312 193.504 121.35L194.135 122.346C194.25 122.528 194.481 122.596 194.676 122.507L197.446 121.239C197.501 121.214 197.567 121.235 197.597 121.288C197.651 121.384 197.636 121.503 197.561 121.583C196.548 122.653 195.823 123.432 195.384 123.92C195.106 124.23 194.679 124.692 194.105 125.305C193.538 125.91 192.588 125.941 191.982 125.374C191.943 125.338 191.906 125.3 191.872 125.259ZM66.9629 34.8503C66.1789 33.4531 65.4662 32.5486 64.8436 32.1435C64.5713 31.9664 64.2464 31.841 63.8657 31.7688C63.6326 31.7245 63.3922 31.7383 63.1656 31.8089C62.4027 32.0466 61.9769 32.8578 62.2147 33.6207C62.2309 33.6728 62.2373 33.7233 62.2354 33.7713L65.1367 39.5649C65.2428 39.7769 65.157 40.0347 64.9451 40.1408C64.7332 40.2469 64.4753 40.1612 64.3692 39.9492L61.4044 34.0287C61.387 33.9939 61.3747 33.9578 61.3674 33.9214C60.5998 33.1842 59.9815 32.7552 59.5395 32.6329C59.2758 32.5599 58.9952 32.5775 58.7427 32.683C58.1216 32.9423 57.8276 33.655 58.0842 34.2765L66.3184 52.6713C66.4152 52.8877 66.3184 53.1415 66.1021 53.2384C65.8857 53.3352 65.6319 53.2383 65.535 53.022L57.2985 34.6219L57.2942 34.6119C56.8514 33.5519 57.3519 32.3337 58.4119 31.891C58.8418 31.7114 59.3195 31.6814 59.7685 31.8057C60.2238 31.9317 60.7422 32.2427 61.3353 32.7378C61.496 31.9384 62.0769 31.2492 62.9103 30.9895C63.2712 30.877 63.6543 30.8551 64.0257 30.9255C64.5125 31.0179 64.9421 31.1837 65.3117 31.4241C66.069 31.9169 66.8619 32.9157 67.7101 34.4274C69.7416 33.3297 75.6508 30.3031 85.4375 25.3477L85.479 27.5217L85.4451 27.5389L90.4546 30.5982L97.2523 29.358L98.5008 48.92L75.6294 50.5364L67.517 35.9791C67.1265 35.3839 66.9248 35.022 66.9118 34.8932C66.9113 34.8877 66.9283 34.8733 66.9629 34.8503ZM85.8279 31.4423L89.1866 30.8295L87.0565 29.5286C87.0312 29.5443 87.004 29.5576 86.9749 29.5681L81.5962 31.5075C81.3733 31.5879 81.1273 31.4723 81.047 31.2493C80.9666 31.0264 81.0821 30.7804 81.3051 30.7001L86.1275 28.9613L84.6404 28.0531C84.6098 28.0344 84.5824 28.0125 84.5583 27.9881L73.1877 33.7483L79.6961 32.5609L80.5115 41.3747L82.9682 37.2025L85.9383 40.5602L85.8279 31.4423Z" fill="#0C0D0E"/>
<path d="M74.9185 47.8031L76.3438 44.4453" stroke="#0C0D0E" stroke-width="0.858288" stroke-linecap="round" stroke-linejoin="round"/>
</svg>
