<svg viewBox="0 0 252 174" fill="none" xmlns="http://www.w3.org/2000/svg">
<path fill-rule="evenodd" clip-rule="evenodd" d="M128.52 70.7304L125.079 64.5803L110.83 39.1081C110.645 38.7777 110.661 38.3717 110.871 38.0567L116.234 30.0144C116.423 29.7299 116.744 29.561 117.086 29.5658L127.815 29.7156L127.971 25.9412C127.989 25.509 128.344 25.168 128.777 25.1681L134.307 25.1702C134.409 25.1703 134.51 25.1688 134.612 25.1657L142.046 24.9437C142.458 24.9314 142.812 25.2316 142.869 25.6399L143.501 30.2396L160.516 35.1943L158.14 49.7804L169.672 47.4483L173.728 65.2782L129.869 72.2762L140.93 84.9442L121.023 125.246L102.161 89.7654L88.0124 88.65L92.399 88.6105C92.5838 88.6089 92.7682 88.5931 92.9506 88.5634C94.9286 88.2407 96.2705 86.3757 95.9478 84.3977L94.7372 76.9766C94.5988 76.1279 94.336 75.3112 93.9625 74.5506L102.822 72.0774C103.076 72.0065 103.195 71.7149 103.063 71.4868L97.1901 61.3564C97.0784 61.1637 96.8317 61.0981 96.639 61.2098C96.4464 61.3215 96.3807 61.5682 96.4924 61.7608L102.104 71.4407L93.562 73.8251C93.1084 73.0889 92.5439 72.4193 91.8829 71.8421L85.8718 66.5939C85.6995 66.4435 85.4988 66.3291 85.2816 66.2574C84.3829 65.9609 83.414 66.4491 83.1175 67.3479C82.9459 67.8679 82.8837 68.4188 82.9308 69.0004C82.9907 69.7394 83.6927 70.5383 84.2306 71.33C84.5456 71.7937 85.0243 72.5091 85.6665 73.4762L80.2425 74.1359C78.7366 74.5688 77.9902 75.3507 78.0031 76.4816C78.0153 77.5485 78.594 78.3963 79.7391 79.0249C78.5818 79.4706 77.9862 80.233 77.9523 81.3121C77.916 82.4691 78.4999 83.2406 79.7042 83.6264C78.5916 84.224 78.0245 85.0975 78.0031 86.2468C77.9994 86.4429 78.0099 86.6296 78.0345 86.8069C78.093 87.229 78.2678 87.6094 78.5238 87.9178H62.898L52.5225 69.8543L52.5256 69.7154C53.8584 69.8064 55.2034 69.5737 56.442 69.024C57.4198 68.59 58.1361 68.1903 58.5911 67.8249C60.7376 66.1008 61.4946 63.7034 61.6568 62.4401C61.6919 62.1664 61.687 61.8506 61.6419 61.4927L77.3928 66.1777L76.7795 68.8271C76.7293 69.044 76.8645 69.2606 77.0814 69.3108C77.2984 69.361 77.515 69.2259 77.5652 69.0089L78.2826 65.9093L79.2631 65.1376C80.2297 65.5134 81.3763 65.58 82.5124 65.2563C82.7266 65.1952 82.8507 64.9722 82.7897 64.758C82.7287 64.5438 82.5056 64.4197 82.2915 64.4807C81.5067 64.7043 80.7235 64.7089 80.0275 64.5359L94.0203 53.5224L93.626 53.6567C92.7434 53.9572 91.7667 53.7146 91.1273 53.036L90.7062 52.5893C90.6827 52.5642 90.6607 52.5377 90.6405 52.5099C90.3789 52.1494 90.4591 51.6452 90.8195 51.3836L103.899 41.892C103.948 41.8563 104.001 41.8264 104.056 41.8026C104.466 41.6282 104.94 41.819 105.114 42.2287L106.313 45.0454C106.35 45.1316 106.384 45.2191 106.414 45.3078C106.434 45.3679 106.453 45.4281 106.47 45.4885L106.477 45.4837L128.52 70.7304ZM190.845 46.5828L198.984 26.4473C199.265 25.7503 199.974 25.3235 200.722 25.4005C200.805 25.409 200.887 25.4282 200.965 25.4576C201.472 25.6474 201.729 26.2122 201.539 26.7191C200.35 29.8958 199.516 32.1093 199.039 33.3594C196.502 39.9993 194.367 45.4581 192.733 49.6955C192.427 50.4916 192.095 51.3509 191.738 52.2736L196.63 83.4432C196.637 83.4886 196.642 83.5344 196.645 83.5802C196.701 84.4217 196.063 85.1486 195.221 85.2037C194.281 85.2652 193.452 84.5909 193.321 83.6576L189.666 57.6283C187.785 62.4838 185.456 68.4839 182.677 75.6289C182.661 75.6705 182.643 75.7113 182.624 75.7514C182.249 76.5099 181.331 76.8215 180.573 76.4473C179.727 76.0304 179.347 75.0321 179.7 74.1582L188.819 51.5954L186.166 32.6967C186.061 31.9523 186.462 31.2284 187.148 30.9212C187.226 30.886 187.309 30.8615 187.394 30.8481C187.923 30.7651 188.42 31.1268 188.503 31.6562L190.845 46.5828ZM135.768 29.6658C135.656 29.4732 135.41 29.4076 135.217 29.5193C135.024 29.631 134.959 29.8778 135.071 30.0704L147.822 52.0552C147.909 52.2048 148.081 52.2824 148.251 52.2481L157.61 50.3555C157.828 50.3113 157.97 50.0986 157.925 49.8804C157.881 49.6621 157.669 49.5209 157.45 49.5651L148.374 51.4004L135.768 29.6658ZM102.21 89.2786H115.304C115.526 89.2786 115.707 89.0981 115.707 88.8754C115.707 88.6527 115.526 88.4722 115.304 88.4722H102.21C101.987 88.4722 101.807 88.6527 101.807 88.8754C101.807 89.0981 101.987 89.2786 102.21 89.2786Z" fill="#0166FF"/>
<path fill-rule="evenodd" clip-rule="evenodd" d="M157.736 105.156L157.852 92.6161C157.854 92.3934 157.675 92.2112 157.452 92.2092C157.229 92.2071 157.047 92.386 157.045 92.6086L156.926 105.499C156.925 105.578 156.947 105.652 156.986 105.714L156.051 149.553C156.031 150.476 155.591 151.34 154.855 151.898L151.925 154.119L152.523 157.469L165.065 159.597C165.383 159.651 165.692 159.73 165.991 159.832L165.103 112.092L157.736 105.156ZM63.0394 87.926C62.949 87.7246 62.8987 87.5013 62.8987 87.2662V86.5606C62.8987 85.6699 63.6208 84.9478 64.5115 84.9478H75.1244C75.6475 83.5646 76.114 82.2743 76.5238 81.077L66.6545 80.0499C65.9988 79.9817 65.5226 79.3948 65.5909 78.7392C65.5925 78.7233 65.5945 78.7075 65.5968 78.6917C65.6963 78.0047 66.3203 77.5188 67.0107 77.5906L77.3124 78.6628C77.5706 77.8274 77.794 77.0493 77.9824 76.3283C77.9786 76.388 77.977 76.4487 77.9777 76.5104C77.9874 77.354 78.3511 78.0605 79.069 78.6301C79.1178 78.609 79.1717 78.5974 79.2283 78.5974H85.4779C85.7006 78.5974 85.8811 78.7779 85.8811 79.0006C85.8811 79.2233 85.7006 79.4038 85.4779 79.4038H79.2283C79.1713 79.4038 79.1172 79.392 79.0681 79.3707C78.3342 79.8281 77.9538 80.4849 77.9269 81.3409C77.8995 82.214 78.2253 82.8676 78.9043 83.3015C78.9682 83.259 79.045 83.2342 79.1275 83.2342H85.3771C85.5998 83.2342 85.7803 83.4147 85.7803 83.6374C85.7803 83.8601 85.5998 84.0406 85.3771 84.0406H79.1275C79.1139 84.0406 79.1005 84.0399 79.0873 84.0386C78.3648 84.606 77.995 85.3517 77.9777 86.2757C77.9741 86.4717 77.9846 86.6584 78.0091 86.8358C78.0661 87.2464 78.2331 87.6176 78.4778 87.9214H63.1003C63.0796 87.9214 63.0592 87.923 63.0394 87.926ZM79.7823 58.4821C80.1086 58.3876 80.4631 58.3366 80.8411 58.3366C82.8296 58.3366 84.1675 59.7488 84.1675 61.4699C84.1675 62.8588 83.619 64.0638 82.3622 64.4772C81.3325 64.7604 80.3374 64.7733 79.4761 64.3969C78.6313 64.0278 77.9832 63.2126 77.7447 62.3862C77.2791 60.7727 78.1027 59.1713 79.7823 58.4821ZM82.7973 65.0111C83.2228 65.413 83.6051 65.8711 83.9441 66.3854C83.5544 66.5831 83.2398 66.929 83.0921 67.3767C82.9205 67.8968 82.8583 68.4476 82.9055 69.0293C82.9653 69.7682 83.6674 70.5671 84.2053 71.3588C84.5203 71.8225 84.9989 72.5379 85.6412 73.5051L80.2172 74.1648C79.1577 74.4693 78.4741 74.9466 78.1665 75.5967C78.8697 72.6794 78.9336 70.8111 78.3581 69.9917C78.1151 69.6457 77.8348 69.3562 77.5172 69.1232C77.5358 69.0893 77.55 69.0518 77.5588 69.0115L78.5092 64.6522C79.6022 65.3683 81.093 65.6046 82.5661 65.1849C82.666 65.1564 82.7463 65.0927 82.7973 65.0111ZM77.1559 69.3222L76.0405 73.9916C75.8336 74.8579 74.9635 75.3925 74.0971 75.1855C74.0899 75.1838 74.0827 75.182 74.0755 75.1802L68.7611 73.8329C67.8977 73.614 67.3752 72.7366 67.5941 71.8732C67.6124 71.801 67.6357 71.7301 67.6638 71.661L73.7005 56.8438C73.9623 56.2013 74.5981 55.8097 75.2687 55.8411C75.272 55.7273 75.2876 55.6121 75.3163 55.4972L76.3548 51.3317C76.5703 50.4675 77.4456 49.9415 78.3099 50.157L79.0923 50.3521C79.9566 50.5676 80.4825 51.4429 80.267 52.3072L79.2285 56.4726C79.1936 56.6127 79.1413 56.7438 79.0746 56.8644C79.3564 57.0595 79.567 57.3391 79.679 57.6579C77.4949 58.4477 76.3681 60.5241 76.97 62.6098C77.1371 63.1889 77.4425 63.6944 77.848 64.1098L76.8189 68.8297C76.7716 69.0466 76.8989 69.2631 77.1032 69.3133C77.1208 69.3176 77.1384 69.3206 77.1559 69.3222ZM84.4214 66.3391C84.3997 66.1175 84.5617 65.9202 84.7833 65.8985C85.0049 65.8768 85.2022 66.0388 85.2239 66.2604C85.4285 68.346 86.2601 69.0974 87.8571 68.7301C88.0741 68.6802 88.2905 68.8157 88.3404 69.0327C88.3903 69.2497 88.2549 69.4661 88.0378 69.516C85.9214 70.0027 84.6698 68.8719 84.4214 66.3391ZM45.4623 48.147L43.6205 57.895L46.6848 58.8907C46.8965 58.9595 47.0124 59.1869 46.9436 59.3987C46.8748 59.6105 46.6473 59.7264 46.4356 59.6576L43.1233 58.5814C43.102 58.5796 43.0805 58.5761 43.059 58.5707C40.8381 58.0181 39.2774 57.8841 38.4121 58.1478C38.1202 58.2367 37.8337 58.3949 37.5518 58.6253C37.3792 58.7664 37.2439 58.9477 37.1579 59.1534C36.8682 59.8461 37.1949 60.6424 37.8876 60.932C37.9349 60.9518 37.9751 60.9777 38.0086 61.008L43.9305 62.4189C44.1472 62.4705 44.2809 62.6879 44.2293 62.9045C44.1777 63.1211 43.9603 63.2549 43.7437 63.2033L37.6919 61.7616C37.6563 61.7531 37.623 61.7401 37.5923 61.7234C36.5981 61.8307 35.916 62.0167 35.561 62.2609C35.3492 62.4066 35.1924 62.6192 35.1159 62.8646C34.927 63.4698 35.2645 64.1134 35.8696 64.3023L52.5891 69.3156C52.8024 69.3795 52.9234 69.6043 52.8595 69.8176C52.7955 70.0309 52.5707 70.152 52.3575 70.088L35.6337 65.0734C34.5991 64.7506 34.0245 63.6547 34.3461 62.6243C34.4765 62.2065 34.7434 61.8446 35.104 61.5965C35.4696 61.3449 36.0065 61.1596 36.7211 61.0318C36.2428 60.4333 36.0975 59.599 36.4139 58.8423C36.551 58.5146 36.7665 58.2256 37.0416 58.0009C37.402 57.7063 37.7808 57.4972 38.1771 57.3764C39.1581 57.0775 40.7023 57.1871 42.8389 57.6879L44.6775 47.9572C44.7413 47.6195 44.8885 47.3186 45.0937 47.0718C45.0014 46.6635 44.9563 46.2375 44.9563 45.782C44.9563 44.1989 45.5158 42.5769 46.4633 41.321C47.317 40.1894 48.478 39.3467 49.8341 38.87L50.0972 28.7558C50.0978 28.7324 50.1004 28.7096 50.1047 28.6876C50.0767 28.5457 50.1263 28.3934 50.2466 28.296C51.5526 27.2385 53.0127 27.2385 54.521 28.2773C54.6296 28.3521 54.6901 28.4706 54.6952 28.593C54.7173 28.6396 54.7308 28.6916 54.7334 28.7476L55.2077 38.973L55.3048 39.1095C55.9262 39.4083 56.5368 39.7945 57.1498 40.2611C59.0413 41.7009 60.0763 43.5504 60.0763 45.782C60.0763 47.3698 59.406 48.7303 58.0935 50.2804C57.8232 50.5995 57.5435 50.8944 57.2544 51.1637C57.2806 51.2051 57.3054 51.2475 57.3289 51.2909C60.3535 56.8863 61.9137 60.2613 62.045 61.5432C62.0677 61.7647 61.9065 61.9627 61.685 61.9854C61.4634 62.0081 61.2655 61.8469 61.2428 61.6254C61.1278 60.5019 59.5784 57.1493 56.6301 51.694C55.8259 52.3131 54.955 52.7454 54.0167 52.9675C54.0306 53.9201 54.2201 55.3234 54.5897 57.1595L56.124 60.1708C56.2251 60.3692 56.1462 60.612 55.9478 60.7131C55.7494 60.8142 55.5066 60.7353 55.4055 60.5369L53.9671 57.7137L48.3728 55.3879C48.2206 55.3247 48.1223 55.1752 48.1244 55.0104C48.1427 53.6007 48.1325 52.3852 48.0953 51.3688C47.709 51.0475 47.3342 50.6873 46.9722 50.2922C46.2932 49.551 45.794 48.8609 45.4623 48.147ZM53.2139 53.104C52.9851 53.1282 52.7525 53.1404 52.5163 53.1404C51.254 53.1404 50.0462 52.7255 48.9216 51.9839C48.941 52.8009 48.945 53.7216 48.934 54.7479L53.6824 56.7221C53.3954 55.2108 53.2385 54.0082 53.2139 53.104ZM55.8454 63.8266C53.2577 62.21 50.5411 62.6225 47.6044 65.1155C47.4347 65.2596 47.1802 65.2388 47.0361 65.069C46.892 64.8992 46.9128 64.6448 47.0826 64.5007C50.2698 61.795 53.3635 61.3253 56.2726 63.1427C56.4615 63.2607 56.519 63.5094 56.401 63.6983C56.283 63.8871 56.0342 63.9446 55.8454 63.8266ZM59.2563 45.3704C59.1376 43.5909 58.2427 42.1064 56.6614 40.9027C56.0595 40.4446 55.4653 40.0728 54.8672 39.7945C54.8038 39.7651 54.7492 39.7196 54.7087 39.6626L54.4819 39.3437C54.437 39.2807 54.4113 39.206 54.4077 39.1287L53.9543 29.3545C53.3561 29.579 52.8654 29.6927 52.4733 29.6927C52.0756 29.6927 51.5512 29.5752 50.8886 29.3426L50.6342 39.1205C50.6317 39.2155 50.5959 39.3064 50.5329 39.3775L50.4673 39.4515C50.4192 39.5057 50.3573 39.546 50.2882 39.5681C49.0003 39.9793 47.9032 40.7513 47.1071 41.8066C46.5044 42.6054 46.0766 43.5748 45.8815 44.5757C45.8932 44.5755 45.905 44.5752 45.9167 44.5749C45.8748 44.8338 45.8667 45.1623 45.8667 45.7492V45.782C45.8667 47.1516 46.7493 48.7698 47.9655 50.0432C49.3171 51.4584 50.8839 52.3176 52.5688 52.3337C54.456 52.3171 56.0839 51.4057 57.4781 49.7592C57.6744 49.5274 57.8544 49.3014 58.0182 49.0796C58.3326 48.5985 58.618 48.0636 58.8314 47.5202C59.1201 46.7847 59.2702 46.0624 59.2563 45.3704ZM51.2214 28.6044C51.7706 28.793 52.1911 28.8863 52.4733 28.8863C52.736 28.8863 53.1015 28.8047 53.5627 28.6391C52.7239 28.2069 51.956 28.1976 51.2214 28.6044ZM58.2187 44.2423C58.5791 45.1246 58.5065 46.141 58.0807 47.2255C57.7479 48.0733 57.213 48.9096 56.6937 49.4979C55.5367 50.8085 54.186 51.5276 52.6171 51.5276C51.1667 51.5276 49.7746 50.7699 48.5487 49.4863C47.4621 48.3485 46.6731 46.9021 46.6731 45.782V45.7492C46.6731 45.0523 46.6847 44.7815 46.7467 44.5567C48.9203 44.5102 50.5328 44.4869 51.5843 44.4869C52.0213 44.4869 52.6295 44.4743 53.409 44.4489C53.3533 44.5821 53.3227 44.7275 53.3227 44.8798C53.3227 45.52 53.8642 46.039 54.5323 46.039C55.2003 46.039 55.7419 45.52 55.7419 44.8798C55.7419 44.6943 55.6964 44.519 55.6156 44.3635C56.3907 44.33 57.2584 44.2896 58.2187 44.2423ZM89.0913 46.8103C89.7392 46.4559 89.929 46.2757 90.0904 45.9849C90.0862 45.9926 90.1351 45.904 90.1499 45.8776C90.2594 45.6837 90.5054 45.6153 90.6993 45.7248C90.8932 45.8342 90.9616 46.0802 90.8522 46.2741C90.8396 46.2964 90.7929 46.381 90.7954 46.3765C90.5617 46.7972 90.275 47.0726 89.5442 47.4809L91.7393 50.731L91.0863 51.2049L88.1779 46.8987L85.6032 48.5707C85.3582 48.7298 85.0306 48.5836 84.9853 48.2951L84.4105 44.6351C84.3292 44.538 84.2523 44.4334 84.179 44.3206C83.7354 43.6375 83.5234 42.7841 83.5806 41.9776C83.6296 41.286 83.8707 40.6353 84.2738 40.0762C84.6935 38.2915 85.7384 36.6883 87.2503 35.5841C86.4233 35.5485 85.6293 35.1186 85.1589 34.3679C85.1575 34.3657 85.1561 34.3635 85.1547 34.3613C84.602 33.473 84.6863 32.3685 85.2833 31.5819C84.6384 31.5106 84.0327 31.1553 83.6631 30.5657C83.6618 30.5637 83.6605 30.5616 83.6593 30.5596C83.0547 29.5878 83.3525 28.3099 84.3243 27.7054L85.6784 26.863C86.4816 26.3634 87.5154 26.4391 88.2372 27.0503C89.0011 27.6973 89.2084 28.7575 88.8088 29.6243C89.4208 29.6116 90.0331 29.8165 90.5243 30.2303C91.5096 31.0604 91.7175 32.471 91.0689 33.5389C92.4752 33.114 94.0331 33.579 94.9701 34.7714L101.783 43.4421L101.13 43.9161L96.5057 38.0309C95.6984 37.6805 94.7406 37.7265 93.9521 38.2385C93.1063 38.7878 92.6711 39.7333 92.7288 40.6794C92.0577 40.7459 91.4672 40.725 90.9571 40.6169C90.9567 40.6168 90.9562 40.6167 90.9558 40.6166C91.1719 41.1808 91.2007 41.8146 91.1017 42.5891C90.947 43.7999 90.4335 44.766 89.4925 45.3771C88.6096 45.9505 87.4997 46.0174 86.3153 45.7114C85.945 45.6158 85.6236 45.5033 85.341 45.362L85.6855 47.5557L88.0708 46.0067C88.2551 45.887 88.5014 45.937 88.6245 46.1192L89.0913 46.8103ZM87.0088 42.9632C86.9772 43.1652 86.96 43.3759 86.9571 43.5955C87.9249 43.4811 88.689 43.1032 89.2668 42.4615C89.8419 41.8228 90.1377 41.0279 90.153 40.0597C90.1497 40.0555 90.1463 40.0513 90.143 40.0472C89.18 40.163 88.4193 40.5405 87.8435 41.18C87.731 41.3049 87.6292 41.4358 87.5381 41.5728C87.8203 41.5665 88.1061 41.7104 88.2784 41.9757C88.5361 42.3726 88.4423 42.8909 88.0687 43.1335C87.732 43.3522 87.2828 43.272 87.0088 42.9632ZM90.3111 42.4106C90.1821 42.618 90.0337 42.8149 89.8661 43.0011C89.0577 43.8989 87.9544 44.3765 86.5821 44.4334C86.3631 44.4425 86.1769 44.2749 86.163 44.0561C86.0761 42.6853 86.4358 41.5382 87.2442 40.6404C87.6835 40.1525 88.2098 39.7888 88.819 39.5491C88.5196 39.4298 88.1854 39.3574 87.8175 39.33C86.9991 39.2692 86.3273 39.3798 85.8142 39.7131C84.961 40.2671 84.4508 41.1055 84.385 42.0346C84.34 42.6687 84.5087 43.3476 84.8553 43.8814C85.2142 44.434 85.6894 44.7169 86.517 44.9307C87.5027 45.1853 88.3896 45.1318 89.0533 44.7008C89.7751 44.232 90.1749 43.4799 90.3018 42.4868C90.3051 42.4612 90.3082 42.4358 90.3111 42.4106ZM102.21 123.526C102.208 123.476 102.197 123.427 102.176 123.379L97.6101 113.021C97.5202 112.817 97.2822 112.725 97.0785 112.815C96.8747 112.904 96.7824 113.142 96.8722 113.346L101.439 123.704C101.46 123.752 101.489 123.794 101.523 123.828L103.109 127.781C103.343 128.366 103.126 129.02 102.623 129.357L114.889 159.452L129.425 72.3509L157.794 67.836L157.793 67.8808L157.815 67.8728L191.093 91.0113C191.124 91.0036 191.156 90.9995 191.19 90.9995H204.682L212.799 16.6921L196.175 19.6087L195.472 24.7256C195.47 24.7424 195.467 24.759 195.462 24.7754C194.975 26.5888 193.996 27.5572 192.555 27.5659C191.454 27.5725 190.531 27.0879 189.804 26.1414C189.251 27.1226 188.405 27.6588 187.294 27.7131C186.108 27.7711 185.214 27.286 184.653 26.2999C183.972 27.2187 183.045 27.7104 181.895 27.7519C181.398 27.7699 180.943 27.7108 180.532 27.5726C179.457 27.2107 178.736 26.198 178.747 25.0635L178.771 22.6621L163.427 25.3541L161.164 35.3587C161.115 35.5759 160.899 35.7121 160.682 35.663C160.465 35.6139 160.329 35.398 160.378 35.1808L162.7 24.9144C162.736 24.7558 162.863 24.6343 163.023 24.6062L178.778 21.842L178.829 16.6117C178.846 14.815 180.222 13.324 182.012 13.1632C182.977 13.0766 183.824 13.4389 184.533 14.2217C185.063 13.2714 185.963 12.8028 187.183 12.8503C188.352 12.8957 189.24 13.3841 189.814 14.2895C190.537 13.1085 191.541 12.4525 192.809 12.3549C194.522 12.2229 195.797 13.3997 198.719 18.3435L213.188 15.805C213.453 15.7586 213.688 15.979 213.659 16.246L205.444 91.4465C205.422 91.6511 205.249 91.806 205.044 91.806H191.74L206.364 149.934C206.66 151.113 206.222 152.355 205.252 153.086L203.487 154.417L204.032 157.469L216.574 159.597C218.643 159.948 220.374 161.364 221.129 163.322L221.558 164.435C221.659 164.699 221.464 164.983 221.181 164.983H174.212C174.141 164.983 174.073 164.964 174.015 164.931H169.871C169.813 164.964 169.746 164.983 169.673 164.983H122.704C122.632 164.983 122.564 164.964 122.506 164.931H116.713C116.661 164.956 116.602 164.971 116.538 164.971H112.551C112.396 164.971 112.255 164.882 112.188 164.743L108.311 156.706L107.256 164.621C107.229 164.821 107.058 164.971 106.856 164.971H78.7384C78.4556 164.971 78.2607 164.687 78.3619 164.423L78.9959 162.77C79.6802 160.985 81.1803 159.638 83.0279 159.15L89.9051 157.33L82.7326 136.123L78.1425 137.673C78.0154 137.716 77.8854 137.738 77.7565 137.741C77.5913 137.781 77.4154 137.79 77.237 137.761L73.0516 137.08L75.6511 164.549C75.6735 164.785 75.4874 164.99 75.2497 164.99H71.2622C71.064 164.99 70.8952 164.846 70.864 164.65L69.3358 155.067L63.8009 164.786C63.7292 164.912 63.5955 164.99 63.4506 164.99H47.5816H47.5687L38.4924 164.697C38.2153 164.688 38.0296 164.409 38.1289 164.15L38.7629 162.496C39.4471 160.712 40.9473 159.365 42.7949 158.876L49.8276 157.016L52.8671 133.798L52.6347 133.76C52.1064 133.674 51.6835 133.275 51.5664 132.753L42.4464 92.0885C42.3956 91.862 42.3711 91.6304 42.3732 91.3982C42.3887 89.7552 43.7118 88.4305 45.3449 88.4032L45.3217 88.3669L101.807 88.732L120.601 124.416L102.21 123.526ZM132.82 8.89708C132.606 8.30296 132.439 7.84939 132.32 7.53697C132.254 7.36474 132.204 7.23642 132.169 7.15362C132.159 7.13052 132.151 7.11176 132.144 7.09806C132.097 7.03211 132.07 6.9514 132.07 6.86423C132.07 6.64155 132.25 6.46103 132.473 6.46103C132.67 6.46103 132.73 6.52071 132.815 6.64683C132.83 6.66881 132.842 6.69025 132.855 6.71494C132.871 6.74692 132.889 6.78752 132.911 6.83945C132.951 6.93304 133.005 7.06933 133.074 7.2499C133.199 7.5781 133.374 8.05593 133.601 8.68405C133.619 8.67688 133.637 8.66959 133.655 8.66219C135.603 7.8402 140.154 4.9053 141.566 6.87004C142.494 8.16177 141.984 9.35693 140.036 10.4555C140.784 11.1785 141.33 12.1177 141.569 13.1884L146.447 14.9718C146.778 15.0926 146.806 15.5489 146.493 15.7093L141.993 18.0145L142.535 25.137C142.393 25.0282 142.214 24.9664 142.022 24.9721L141.715 24.9813L141.265 19.0832C140.786 19.1841 140.246 19.0275 139.669 18.641C139.484 18.517 139.435 18.2666 139.559 18.0816C139.683 17.8966 139.933 17.8472 140.118 17.9712C140.59 18.2874 140.938 18.3681 141.203 18.2599L141.168 17.8084C141.156 17.6465 141.242 17.493 141.387 17.419L145.304 15.4123L142.511 14.3916C142.631 15.08 142.259 15.7821 141.584 16.0527C140.962 16.3026 140.303 16.4396 139.612 16.4638C138.92 16.488 138.254 16.3972 137.615 16.1913C137.187 16.0535 136.843 15.7324 136.675 15.3153C136.364 14.5403 136.741 13.66 137.516 13.349C138.138 13.0991 138.797 12.9621 139.488 12.9379C139.898 12.9236 140.299 12.9496 140.69 13.016C140.411 12.1027 139.863 11.3193 139.147 10.7461L129.166 13.7715C129.153 13.8876 129.147 14.0052 129.147 14.124V25.1967L128.754 25.1965C128.603 25.1965 128.462 25.2379 128.341 25.3101V14.124C128.341 14.0289 128.344 13.9344 128.35 13.8406C126.313 13.8257 125.294 13.0374 125.294 11.4758C125.294 9.19311 130.314 9.39072 132.82 8.89708ZM140.133 13.758C139.931 13.7413 139.725 13.7366 139.517 13.7439C138.917 13.7648 138.351 13.8826 137.816 14.0974C137.454 14.2425 137.279 14.6534 137.424 15.015C137.502 15.2097 137.663 15.3595 137.862 15.4238C138.411 15.6007 138.984 15.6788 139.583 15.6579C140.183 15.637 140.749 15.5191 141.284 15.3043C141.646 15.1592 141.821 14.7484 141.676 14.3867C141.648 14.3159 141.608 14.251 141.56 14.1941C141.564 14.228 141.566 14.2626 141.566 14.2977C141.566 14.7709 141.205 15.1545 140.76 15.1545C140.314 15.1545 139.953 14.7709 139.953 14.2977C139.953 14.0931 140.021 13.9053 140.133 13.758ZM136.134 20.4117C134.545 21.086 132.711 20.3448 132.036 18.7562C131.362 17.1676 132.103 15.3332 133.692 14.6589C133.897 14.5719 134.134 14.6675 134.221 14.8725C134.308 15.0775 134.212 15.3142 134.007 15.4012C132.828 15.9015 132.279 17.2625 132.779 18.4411C133.279 19.6198 134.64 20.1697 135.819 19.6694C136.024 19.5824 136.26 19.678 136.347 19.883C136.434 20.088 136.339 20.3247 136.134 20.4117ZM132.473 7.26743C132.297 7.26743 132.236 7.22246 132.167 7.12739C132.241 7.21315 132.351 7.26743 132.473 7.26743ZM89.5292 133.827L83.4966 135.865L90.8072 157.481C90.882 157.702 90.754 157.94 90.5284 158L83.2341 159.929C81.6371 160.352 80.3403 161.516 79.7489 163.059L79.3249 164.164H106.503L107.69 155.265C107.743 154.868 108.279 154.783 108.452 155.143L112.804 164.164H115.939L101.977 129.91L89.5292 133.827ZM72.2289 136.946L53.6635 133.927L50.592 157.389C50.5708 157.551 50.4536 157.684 50.2954 157.726L43.0011 159.656C41.404 160.078 40.1073 161.243 39.5158 162.785L39.0847 163.909L47.5881 164.183H63.2162L69.2029 153.671C69.3914 153.34 69.8914 153.431 69.9514 153.807L71.6062 164.183H74.8065L72.2289 136.946ZM190.544 164.177H220.594L220.376 163.612C219.724 161.919 218.228 160.695 216.439 160.392L203.617 158.217C203.449 158.188 203.318 158.058 203.288 157.89L202.765 154.961L190.544 164.177ZM138.663 164.177H166.072L166.007 160.698C165.664 160.559 165.304 160.455 164.93 160.392L152.108 158.217C151.941 158.188 151.809 158.058 151.779 157.89L151.204 154.666L138.663 164.177ZM169.815 39.2298C167.984 37.4888 167.011 36.4716 166.898 36.1782C165.051 31.4044 171.639 28.2826 175.506 28.2826C178.099 28.2826 179.708 29.5148 180.334 31.9793C183.594 29.455 187.413 28.7586 191.791 29.8901C193.459 30.3212 195.271 30.8001 197.029 31.4048L187.279 55.5289C185.438 55.0644 183.47 54.3487 181.376 53.3818L180.468 59.6378C180.439 59.8432 180.263 59.9823 180.071 59.9834L173.348 63.5894L173.164 62.7731L179.708 59.2633L182.355 41.0098C181.367 40.5311 180.829 39.6769 180.66 38.5846C180.579 38.0647 180.584 37.5769 180.645 37.0471C179.781 37.444 179.127 38.0217 178.676 38.7787C177.769 40.3044 177.108 42.2424 176.697 44.5934C176.658 44.8179 176.441 44.9653 176.218 44.9188C174.499 44.5608 173.559 44.1254 173.404 43.4465C172.467 43.7132 171.341 44.0336 170.026 44.4077L169.806 47.6033C169.801 47.6754 169.797 47.7475 169.793 47.8195L169.721 47.4988L168.995 47.6456C168.997 47.613 168.999 47.5804 169.001 47.5478L169.202 44.6424C165.696 45.6401 160.992 46.9787 155.089 48.6582C154.023 48.9615 152.913 48.3433 152.61 47.2773C152.606 47.2625 152.602 47.2477 152.598 47.2328C152.361 46.3201 152.757 45.5273 153.785 44.8546L169.464 40.8417L169.47 40.7608C169.506 40.2316 169.624 39.7157 169.815 39.2298ZM199.412 32.3308C205.503 35.0259 209.666 39.8818 202.28 50.7047C199.457 54.8413 195.45 56.6309 190.259 56.0736L199.412 32.3308ZM189.449 15.3716C189.44 15.3552 189.432 15.3377 189.425 15.3193C189.02 14.2379 188.284 13.7001 187.152 13.6561C186.048 13.6131 185.369 14.0738 185.028 15.0968C185.061 15.1572 185.08 15.2272 185.079 15.3018L185.032 25.193C185.057 25.2268 185.078 25.2659 185.093 25.3103C185.482 26.4535 186.176 26.9604 187.255 26.9077C188.264 26.8584 188.949 26.3031 189.361 25.1759C189.389 25.1 189.434 25.0398 189.49 24.9962L189.449 15.3716ZM190.22 15.234L190.264 25.3985C190.876 26.3242 191.629 26.7651 192.55 26.7595C193.576 26.7533 194.275 26.0679 194.677 24.5904L195.447 18.981C195.473 18.7915 195.628 18.6464 195.819 18.6336L197.853 18.4971C195.279 14.1972 194.104 13.0639 192.87 13.1589C191.711 13.2482 190.837 13.9227 190.22 15.234ZM184.305 15.2384C184.303 15.236 184.301 15.2336 184.3 15.2311C183.667 14.2941 182.941 13.8895 182.084 13.9664C180.707 14.0901 179.648 15.2372 179.635 16.6194L179.554 25.0713C179.546 25.8567 180.045 26.5578 180.789 26.8083C181.104 26.9141 181.462 26.9606 181.866 26.946C182.907 26.9085 183.69 26.4192 184.251 25.4428L184.3 15.2963C184.301 15.2766 184.302 15.2573 184.305 15.2384ZM180.877 23.796C180.853 24.0174 180.654 24.1772 180.432 24.153C180.211 24.1288 180.051 23.9297 180.075 23.7084C180.177 22.7768 180.841 22.289 181.91 22.2976C182.982 22.3063 183.629 22.7892 183.669 23.6989C183.679 23.9214 183.506 24.1097 183.284 24.1196C183.061 24.1294 182.873 23.9571 182.863 23.7346C182.844 23.3038 182.584 23.1095 181.904 23.104C181.22 23.0985 180.93 23.3116 180.877 23.796ZM186.261 23.5632C186.237 23.7846 186.038 23.9444 185.816 23.9202C185.595 23.896 185.435 23.6969 185.459 23.4756C185.561 22.544 186.225 22.0562 187.294 22.0648C188.366 22.0734 189.012 22.5564 189.053 23.4661C189.063 23.6885 188.89 23.8769 188.668 23.8867C188.445 23.8966 188.257 23.7243 188.247 23.5018C188.228 23.071 187.968 22.8766 187.287 22.8712C186.604 22.8657 186.314 23.0788 186.261 23.5632ZM191.481 23.5639C191.457 23.7853 191.258 23.9451 191.036 23.9209C190.815 23.8967 190.655 23.6977 190.679 23.4763C190.781 22.5447 191.445 22.0569 192.514 22.0655C193.586 22.0742 194.233 22.5571 194.273 23.4668C194.283 23.6893 194.11 23.8776 193.888 23.8875C193.665 23.8973 193.477 23.725 193.467 23.5025C193.448 23.0717 193.188 22.8774 192.508 22.8719C191.824 22.8664 191.534 23.0795 191.481 23.5639ZM170.291 40.63L177.785 38.7119C177.85 38.5947 177.916 38.4795 177.983 38.3663C178.95 36.7418 180.682 35.8338 183.135 35.6326L183.409 33.7438L173.279 36.6914C172.923 36.7952 172.598 36.9869 172.334 37.2489L171.544 38.0357C170.842 38.7341 170.401 39.6498 170.291 40.63ZM176.292 42.6249C175.841 42.7531 175.14 42.9526 174.188 43.2236C174.187 43.2339 174.188 43.2442 174.189 43.2545C174.191 43.2748 174.208 43.3071 174.256 43.3563C174.331 43.432 174.454 43.5148 174.626 43.5991C174.941 43.7534 175.393 43.9013 175.979 44.0398C176.072 43.551 176.176 43.0794 176.292 42.6249ZM182.479 40.1575L183.016 36.4529C182.466 36.5073 181.962 36.6004 181.504 36.732C181.401 37.3656 181.37 37.9018 181.456 38.461C181.573 39.2134 181.893 39.7891 182.479 40.1575Z" fill="#0C0D0E"/>
</svg>
