<svg viewBox="0 0 1176 900" fill="none" xmlns="http://www.w3.org/2000/svg">
<g clip-path="url(#clip0_205_2350)">
<rect width="1176" height="900" fill="#F6F6F9"/>
<path d="M382.625 478V458.844H375.891V455.453H393.391V458.844H386.656V478H382.625ZM396.931 483.5C396.165 483.5 395.384 483.406 394.931 483.328V480.359C395.212 480.422 395.665 480.5 396.212 480.5C397.712 480.5 398.525 480.078 399.025 478.688L399.275 478.016L393.322 461.438H397.556L401.431 474.688H401.556L405.431 461.438H409.54L403.572 478.562C402.322 482.203 400.368 483.5 396.931 483.5ZM424.971 461.438V464.453H419.893V478H416.002V464.453H410.924V461.438H424.971ZM441.848 478.328C436.927 478.328 433.848 475.016 433.848 469.703V469.688C433.848 464.406 436.973 461.094 441.817 461.094C446.177 461.094 448.88 463.859 449.114 467.172L449.13 467.297H445.458L445.442 467.156C445.114 465.547 443.927 464.25 441.848 464.25C439.395 464.25 437.817 466.328 437.817 469.719V469.734C437.817 473.188 439.411 475.188 441.88 475.188C443.848 475.188 445.083 474.016 445.442 472.281L445.473 472.141H449.145V472.25C448.848 475.703 446.036 478.328 441.848 478.328ZM456.592 470.797H456.014V478H452.123V461.438H456.014V468.125H456.592L462.201 461.438H466.686L460.014 469.172L467.014 478H462.279L456.592 470.797ZM476.351 478.328C471.476 478.328 468.335 475.078 468.335 469.719V469.688C468.335 464.375 471.523 461.094 476.351 461.094C481.163 461.094 484.367 464.344 484.367 469.688V469.719C484.367 475.094 481.21 478.328 476.351 478.328ZM476.367 475.188C478.835 475.188 480.413 473.188 480.413 469.719V469.688C480.413 466.234 478.804 464.25 476.351 464.25C473.913 464.25 472.304 466.25 472.304 469.688V469.719C472.304 473.203 473.898 475.188 476.367 475.188ZM487.532 483.469V461.438H491.422V464.297H491.516C492.454 462.312 494.282 461.094 496.641 461.094C500.86 461.094 503.501 464.375 503.501 469.719V469.734C503.501 475.047 500.844 478.328 496.704 478.328C494.344 478.328 492.454 477.141 491.501 475.203H491.422V483.469H487.532ZM495.485 475.047C497.985 475.047 499.532 473 499.532 469.734V469.719C499.532 466.406 497.969 464.375 495.485 464.375C493.079 464.375 491.407 466.469 491.407 469.719V469.734C491.407 472.969 493.094 475.047 495.485 475.047ZM513.994 478.328C509.119 478.328 505.978 475.078 505.978 469.719V469.688C505.978 464.375 509.166 461.094 513.994 461.094C518.806 461.094 522.01 464.344 522.01 469.688V469.719C522.01 475.094 518.853 478.328 513.994 478.328ZM514.01 475.188C516.478 475.188 518.056 473.188 518.056 469.719V469.688C518.056 466.234 516.447 464.25 513.994 464.25C511.556 464.25 509.947 466.25 509.947 469.688V469.719C509.947 473.203 511.541 475.188 514.01 475.188ZM531.981 478V461.438H546.59V478H542.684V464.438H535.871V478H531.981ZM557.771 478.328C552.896 478.328 549.755 475.078 549.755 469.719V469.688C549.755 464.375 552.943 461.094 557.771 461.094C562.583 461.094 565.786 464.344 565.786 469.688V469.719C565.786 475.094 562.63 478.328 557.771 478.328ZM557.786 475.188C560.255 475.188 561.833 473.188 561.833 469.719V469.688C561.833 466.234 560.224 464.25 557.771 464.25C555.333 464.25 553.724 466.25 553.724 469.688V469.719C553.724 473.203 555.318 475.188 557.786 475.188ZM578.405 478V472.453H576.077L572.202 478H567.842L572.296 471.844C569.999 471.141 568.608 469.438 568.608 467.109V467.078C568.608 463.609 571.155 461.438 575.092 461.438H582.233V478H578.405ZM575.389 469.594H578.405V464.422H575.389C573.608 464.422 572.514 465.422 572.514 467.062V467.094C572.514 468.547 573.608 469.594 575.389 469.594ZM586.101 478V461.438H593.961C597.305 461.438 599.305 463.031 599.305 465.656V465.688C599.305 467.422 598.039 468.984 596.398 469.266V469.391C598.57 469.656 600.039 471.156 600.039 473.203V473.234C600.039 476.141 597.758 478 594.086 478H586.101ZM589.945 468.188H592.742C594.555 468.188 595.476 467.516 595.476 466.156V466.125C595.476 464.812 594.601 464.109 593.039 464.109H589.945V468.188ZM589.945 475.312H593.18C595.023 475.312 596.039 474.547 596.039 473.031V473C596.039 471.5 594.961 470.797 592.867 470.797H589.945V475.312ZM603.298 478V461.438H607.142V472.484H607.298L614.439 461.438H618.251V478H614.407V466.875H614.251L607.11 478H603.298ZM635.088 461.438V464.453H630.01V478H626.119V464.453H621.041V461.438H635.088ZM644.863 478.328C639.941 478.328 636.863 475.016 636.863 469.703V469.688C636.863 464.406 639.988 461.094 644.832 461.094C649.191 461.094 651.894 463.859 652.128 467.172L652.144 467.297H648.472L648.457 467.156C648.128 465.547 646.941 464.25 644.863 464.25C642.41 464.25 640.832 466.328 640.832 469.719V469.734C640.832 473.188 642.425 475.188 644.894 475.188C646.863 475.188 648.097 474.016 648.457 472.281L648.488 472.141H652.16V472.25C651.863 475.703 649.05 478.328 644.863 478.328ZM664.544 478V472.453H662.216L658.341 478H653.981L658.434 471.844C656.137 471.141 654.747 469.438 654.747 467.109V467.078C654.747 463.609 657.294 461.438 661.231 461.438H668.372V478H664.544ZM661.528 469.594H664.544V464.422H661.528C659.747 464.422 658.653 465.422 658.653 467.062V467.094C658.653 468.547 659.747 469.594 661.528 469.594ZM679.015 483.469V461.438H682.905V464.297H682.999C683.937 462.312 685.765 461.094 688.124 461.094C692.343 461.094 694.983 464.375 694.983 469.719V469.734C694.983 475.047 692.327 478.328 688.187 478.328C685.827 478.328 683.937 477.141 682.983 475.203H682.905V483.469H679.015ZM686.968 475.047C689.468 475.047 691.015 473 691.015 469.734V469.719C691.015 466.406 689.452 464.375 686.968 464.375C684.562 464.375 682.89 466.469 682.89 469.719V469.734C682.89 472.969 684.577 475.047 686.968 475.047ZM705.43 478.328C700.461 478.328 697.461 475.031 697.461 469.766V469.75C697.461 464.531 700.508 461.094 705.242 461.094C709.992 461.094 712.93 464.422 712.93 469.422V470.672H701.336C701.383 473.578 702.977 475.297 705.508 475.297C707.461 475.297 708.711 474.266 709.086 473.156L709.117 473.047H712.758L712.727 473.219C712.196 475.766 709.758 478.328 705.43 478.328ZM705.289 464.141C703.242 464.141 701.68 465.531 701.383 468.078H709.133C708.852 465.453 707.352 464.141 705.289 464.141ZM723.689 459.656C720.283 459.656 718.189 457.703 718.189 454.828V454.703H721.189V454.828C721.189 456.172 722.064 457.297 723.705 457.297C725.283 457.297 726.22 456.172 726.22 454.828V454.703H729.205V454.828C729.205 457.703 727.111 459.656 723.689 459.656ZM716.08 478V461.438H719.923V472.484H720.08L727.22 461.438H731.033V478H727.189V466.875H727.033L719.892 478H716.08ZM747.87 461.438V464.453H742.792V478H738.901V464.453H733.823V461.438H747.87ZM750.66 478V461.438H754.504V472.484H754.66L761.801 461.438H765.613V478H761.77V466.875H761.613L754.473 478H750.66ZM780.341 478V470.984H773.372V478H769.482V461.438H773.372V467.969H780.341V461.438H784.232V478H780.341ZM799.319 464.438H791.975V478H788.084V461.438H799.319V464.438Z" fill="#0C0D0E"/>
<path d="M364.516 520V508.727H368.828C370.898 508.727 372.164 509.812 372.164 511.531V511.547C372.164 512.711 371.305 513.773 370.219 513.969V514.094C371.758 514.289 372.734 515.344 372.734 516.828V516.844C372.734 518.82 371.312 520 368.914 520H364.516ZM368.531 509.969H365.922V513.586H368.172C369.875 513.586 370.742 512.977 370.742 511.789V511.773C370.742 510.633 369.93 509.969 368.531 509.969ZM368.57 514.797H365.922V518.758H368.703C370.398 518.758 371.289 518.07 371.289 516.773V516.758C371.289 515.461 370.367 514.797 368.57 514.797ZM374.688 520V511.578H376.047V514.281H377.696C379.625 514.281 380.86 515.391 380.86 517.133V517.148C380.86 518.891 379.625 520 377.696 520H374.688ZM382.328 520V511.578H383.688V520H382.328ZM377.696 515.406H376.047V518.875H377.696C378.805 518.875 379.5 518.188 379.5 517.148V517.133C379.5 516.086 378.797 515.406 377.696 515.406ZM391.579 520H390.22V511.578H391.868L394.868 518.109H394.993L398.009 511.578H399.587V520H398.228V514.008H398.079L395.423 519.766H394.376L391.728 514.008H391.579V520ZM405.415 520.148C403.017 520.148 401.533 518.492 401.533 515.797V515.781C401.533 513.078 403.017 511.43 405.415 511.43C407.814 511.43 409.298 513.078 409.298 515.781V515.797C409.298 518.492 407.814 520.148 405.415 520.148ZM405.415 518.945C407.009 518.945 407.908 517.781 407.908 515.797V515.781C407.908 513.789 407.009 512.633 405.415 512.633C403.822 512.633 402.923 513.789 402.923 515.781V515.797C402.923 517.781 403.822 518.945 405.415 518.945ZM411.595 520H409.916L413.548 515.562L410.041 511.578H411.673L414.619 515.125H415.119V511.578H416.431V515.125H416.931L419.877 511.578H421.486L418.002 515.531L421.658 520H419.955L416.931 516.141H416.431V520H415.119V516.141H414.619L411.595 520ZM426.299 520.148C423.893 520.148 422.439 518.461 422.439 515.82V515.812C422.439 513.211 423.924 511.43 426.213 511.43C428.502 511.43 429.893 513.133 429.893 515.648V516.18H423.83C423.869 517.922 424.83 518.938 426.33 518.938C427.471 518.938 428.174 518.398 428.4 517.891L428.432 517.82H429.791L429.775 517.883C429.486 519.023 428.283 520.148 426.299 520.148ZM426.205 512.641C424.955 512.641 424.002 513.492 423.853 515.094H428.51C428.369 513.43 427.447 512.641 426.205 512.641ZM437.307 511.578V512.703H434.58V520H433.221V512.703H430.494V511.578H437.307ZM442.081 520.148C439.674 520.148 438.221 518.461 438.221 515.82V515.812C438.221 513.211 439.706 511.43 441.995 511.43C444.284 511.43 445.674 513.133 445.674 515.648V516.18H439.612C439.651 517.922 440.612 518.938 442.112 518.938C443.253 518.938 443.956 518.398 444.182 517.891L444.213 517.82H445.573L445.557 517.883C445.268 519.023 444.065 520.148 442.081 520.148ZM441.987 512.641C440.737 512.641 439.784 513.492 439.635 515.094H444.292C444.151 513.43 443.229 512.641 441.987 512.641ZM451.792 520V511.578H458.605V520H457.245V512.703H453.152V520H451.792ZM464.425 520.148C462.027 520.148 460.543 518.492 460.543 515.797V515.781C460.543 513.078 462.027 511.43 464.425 511.43C466.824 511.43 468.308 513.078 468.308 515.781V515.797C468.308 518.492 466.824 520.148 464.425 520.148ZM464.425 518.945C466.019 518.945 466.918 517.781 466.918 515.797V515.781C466.918 513.789 466.019 512.633 464.425 512.633C462.832 512.633 461.933 513.789 461.933 515.781V515.797C461.933 517.781 462.832 518.945 464.425 518.945ZM470.254 522.812V511.578H471.613V512.922H471.738C472.254 511.984 473.191 511.43 474.363 511.43C476.496 511.43 477.894 513.156 477.894 515.781V515.797C477.894 518.438 476.504 520.148 474.363 520.148C473.207 520.148 472.199 519.57 471.738 518.672H471.613V522.812H470.254ZM474.051 518.945C475.59 518.945 476.504 517.758 476.504 515.797V515.781C476.504 513.82 475.59 512.633 474.051 512.633C472.519 512.633 471.582 513.836 471.582 515.781V515.797C471.582 517.742 472.519 518.945 474.051 518.945ZM483.293 520.148C480.887 520.148 479.434 518.461 479.434 515.82V515.812C479.434 513.211 480.918 511.43 483.207 511.43C485.496 511.43 486.887 513.133 486.887 515.648V516.18H480.824C480.863 517.922 481.824 518.938 483.324 518.938C484.465 518.938 485.168 518.398 485.395 517.891L485.426 517.82H486.785L486.77 517.883C486.481 519.023 485.277 520.148 483.293 520.148ZM483.199 512.641C481.949 512.641 480.996 513.492 480.848 515.094H485.504C485.363 513.43 484.442 512.641 483.199 512.641ZM488.825 520V511.578H490.184V518.875H493.348V511.578H494.707V518.875H497.872V511.578H499.231V520H488.825ZM503.903 520.148C502.302 520.148 501.091 519.18 501.091 517.648V517.633C501.091 516.133 502.2 515.266 504.161 515.148L506.575 515V514.234C506.575 513.195 505.942 512.633 504.684 512.633C503.677 512.633 503.012 513.008 502.794 513.664L502.786 513.688H501.427L501.434 513.641C501.653 512.32 502.934 511.43 504.731 511.43C506.786 511.43 507.934 512.484 507.934 514.234V520H506.575V518.758H506.45C505.919 519.656 505.036 520.148 503.903 520.148ZM502.481 517.617C502.481 518.469 503.208 518.969 504.184 518.969C505.567 518.969 506.575 518.062 506.575 516.859V516.094L504.325 516.234C503.044 516.312 502.481 516.766 502.481 517.602V517.617ZM516.349 511.578V512.703H513.622V520H512.263V512.703H509.536V511.578H516.349ZM517.99 520V511.578H519.349V514.281H520.997C522.927 514.281 524.162 515.391 524.162 517.133V517.148C524.162 518.891 522.927 520 520.997 520H517.99ZM520.997 515.406H519.349V518.875H520.997C522.107 518.875 522.802 518.188 522.802 517.148V517.133C522.802 516.086 522.099 515.406 520.997 515.406ZM532.982 520.156C531.186 520.156 529.818 519.266 529.647 517.906L529.639 517.844H531.022L531.037 517.906C531.209 518.594 531.959 519.031 532.982 519.031C534.225 519.031 534.959 518.43 534.959 517.594V517.578C534.959 516.664 534.272 516.242 532.982 516.242H531.67V515.117H532.982C534.061 515.117 534.662 514.688 534.662 513.812V513.797C534.662 513.078 534.107 512.547 533.029 512.547C532.068 512.547 531.342 512.977 531.209 513.648L531.201 513.688H529.873L529.881 513.633C530.076 512.281 531.311 511.422 533.029 511.422C534.912 511.422 535.99 512.352 535.99 513.695V513.711C535.99 514.562 535.436 515.336 534.6 515.531V515.656C535.709 515.898 536.295 516.57 536.295 517.508V517.523C536.295 519.086 534.943 520.156 532.982 520.156ZM540.553 520.148C538.952 520.148 537.741 519.18 537.741 517.648V517.633C537.741 516.133 538.85 515.266 540.811 515.148L543.225 515V514.234C543.225 513.195 542.592 512.633 541.334 512.633C540.327 512.633 539.663 513.008 539.444 513.664L539.436 513.688H538.077L538.084 513.641C538.303 512.32 539.584 511.43 541.381 511.43C543.436 511.43 544.584 512.484 544.584 514.234V520H543.225V518.758H543.1C542.569 519.656 541.686 520.148 540.553 520.148ZM539.131 517.617C539.131 518.469 539.858 518.969 540.834 518.969C542.217 518.969 543.225 518.062 543.225 516.859V516.094L540.975 516.234C539.694 516.312 539.131 516.766 539.131 517.602V517.617ZM547.092 522.227H545.827V518.875H546.53C547.147 518.469 547.452 517.406 547.53 516.273L547.858 511.578H553.6V518.875H554.944V522.227H553.678V520H547.092V522.227ZM552.241 518.875V512.703H549.061L548.796 516.305C548.717 517.328 548.499 518.227 548.1 518.75V518.875H552.241ZM558.71 520.148C557.108 520.148 555.898 519.18 555.898 517.648V517.633C555.898 516.133 557.007 515.266 558.968 515.148L561.382 515V514.234C561.382 513.195 560.749 512.633 559.491 512.633C558.483 512.633 557.819 513.008 557.601 513.664L557.593 513.688H556.233L556.241 513.641C556.46 512.32 557.741 511.43 559.538 511.43C561.593 511.43 562.741 512.484 562.741 514.234V520H561.382V518.758H561.257C560.726 519.656 559.843 520.148 558.71 520.148ZM557.288 517.617C557.288 518.469 558.015 518.969 558.991 518.969C560.374 518.969 561.382 518.062 561.382 516.859V516.094L559.132 516.234C557.851 516.312 557.288 516.766 557.288 517.602V517.617ZM571.476 520H570.117V516.492H569.992C569.538 516.812 568.89 517 567.984 517C565.952 517 564.898 515.781 564.898 513.984V511.578H566.257V513.984C566.257 515.094 566.835 515.797 567.984 515.797C569.038 515.797 569.765 515.523 570.117 515.133V511.578H571.476V520ZM573.828 520V511.578H575.187V517.859H575.312L579.476 511.578H580.836V520H579.476V513.719H579.351L575.187 520H573.828ZM582.781 522.867L583.461 518.422H585.016L583.789 522.867H582.781ZM598.227 520H596.868V516.492H596.743C596.29 516.812 595.641 517 594.735 517C592.704 517 591.649 515.781 591.649 513.984V511.578H593.008V513.984C593.008 515.094 593.587 515.797 594.735 515.797C595.79 515.797 596.516 515.523 596.868 515.133V511.578H598.227V520ZM606.681 511.578V512.703H603.954V520H602.595V512.703H599.868V511.578H606.681ZM611.478 520.148C609.079 520.148 607.595 518.492 607.595 515.797V515.781C607.595 513.078 609.079 511.43 611.478 511.43C613.876 511.43 615.361 513.078 615.361 515.781V515.797C615.361 518.492 613.876 520.148 611.478 520.148ZM611.478 518.945C613.072 518.945 613.97 517.781 613.97 515.797V515.781C613.97 513.789 613.072 512.633 611.478 512.633C609.884 512.633 608.986 513.789 608.986 515.781V515.797C608.986 517.781 609.884 518.945 611.478 518.945ZM620.806 520.156C618.228 520.156 616.884 518.398 616.884 515.023V515.008C616.884 510.539 618.127 508.633 621.134 508.492L621.978 508.453C622.65 508.422 623.447 508.297 624.173 508V509.203C623.908 509.453 623.017 509.656 622.041 509.703L621.181 509.742C619.22 509.828 618.369 510.742 618.056 513.039L618.033 513.211H618.158C618.728 512.203 619.736 511.656 621.009 511.656C623.275 511.656 624.728 513.273 624.728 515.812V515.828C624.728 518.5 623.236 520.156 620.806 520.156ZM620.806 518.953C622.416 518.953 623.337 517.805 623.337 515.828V515.812C623.337 513.93 622.416 512.859 620.806 512.859C619.197 512.859 618.275 513.93 618.275 515.812V515.828C618.275 517.805 619.197 518.953 620.806 518.953ZM626.666 520V511.578H628.025V514.281H629.674C631.603 514.281 632.838 515.391 632.838 517.133V517.148C632.838 518.891 631.603 520 629.674 520H626.666ZM634.307 520V511.578H635.666V520H634.307ZM629.674 515.406H628.025V518.875H629.674C630.783 518.875 631.478 518.188 631.478 517.148V517.133C631.478 516.086 630.775 515.406 629.674 515.406ZM642.924 522.953C642.745 522.953 642.51 522.938 642.323 522.906V521.789C642.487 521.82 642.698 521.828 642.885 521.828C643.659 521.828 644.128 521.477 644.432 520.508L644.588 520.008L641.471 511.578H642.924L645.237 518.508H645.362L647.667 511.578H649.096L645.807 520.516C645.112 522.406 644.417 522.953 642.924 522.953ZM652.386 516.703C652.206 519.023 651.487 520.078 650.081 520.078C649.792 520.078 649.573 520.031 649.464 519.992V518.766C649.534 518.789 649.745 518.82 649.948 518.82C650.722 518.82 651.034 517.844 651.12 516.594L651.479 511.578H656.987V520H655.628V512.703H652.698L652.386 516.703ZM660.066 522.953C659.886 522.953 659.652 522.938 659.464 522.906V521.789C659.628 521.82 659.839 521.828 660.027 521.828C660.8 521.828 661.269 521.477 661.573 520.508L661.73 520.008L658.612 511.578H660.066L662.378 518.508H662.503L664.808 511.578H666.237L662.948 520.516C662.253 522.406 661.558 522.953 660.066 522.953ZM674.128 520H672.769V516.492H672.644C672.191 516.812 671.543 517 670.636 517C668.605 517 667.55 515.781 667.55 513.984V511.578H668.91V513.984C668.91 515.094 669.488 515.797 670.636 515.797C671.691 515.797 672.418 515.523 672.769 515.133V511.578H674.128V520ZM676.48 520V511.578H677.84V518.875H681.004V511.578H682.363V518.875H685.527V511.578H686.887V520H676.48ZM689.238 520V511.578H690.598V517.859H690.723L694.887 511.578H696.246V520H694.887V513.719H694.762L690.598 520H689.238ZM704.707 511.578V512.703H701.981V520H700.622V512.703H697.895V511.578H704.707ZM706.348 520V511.578H707.708V514.281H709.356C711.286 514.281 712.52 515.391 712.52 517.133V517.148C712.52 518.891 711.286 520 709.356 520H706.348ZM709.356 515.406H707.708V518.875H709.356C710.466 518.875 711.161 518.188 711.161 517.148V517.133C711.161 516.086 710.458 515.406 709.356 515.406ZM721.927 520.148C719.568 520.148 718.06 518.438 718.06 515.766V515.75C718.06 513.133 719.56 511.43 721.919 511.43C723.966 511.43 725.193 512.609 725.443 514.109L725.451 514.156H724.099L724.091 514.133C723.88 513.305 723.13 512.633 721.919 512.633C720.404 512.633 719.451 513.852 719.451 515.75V515.766C719.451 517.703 720.419 518.945 721.919 518.945C723.052 518.945 723.771 518.445 724.083 517.508L724.099 517.461L725.443 517.453L725.427 517.539C725.083 519.062 723.951 520.148 721.927 520.148ZM727.263 520V511.578H730.834C732.427 511.578 733.357 512.445 733.357 513.766V513.781C733.357 514.617 732.771 515.406 731.982 515.57V515.695C733.052 515.844 733.732 516.594 733.732 517.57V517.586C733.732 519.047 732.662 520 730.849 520H727.263ZM728.623 515.141H730.42C731.513 515.141 732.006 514.719 732.006 513.922V513.906C732.006 513.188 731.584 512.703 730.638 512.703H728.623V515.141ZM728.623 518.875H730.795C731.826 518.875 732.349 518.406 732.349 517.562V517.547C732.349 516.656 731.748 516.266 730.537 516.266H728.623V518.875ZM739.1 520.148C736.701 520.148 735.217 518.492 735.217 515.797V515.781C735.217 513.078 736.701 511.43 739.1 511.43C741.498 511.43 742.983 513.078 742.983 515.781V515.797C742.983 518.492 741.498 520.148 739.1 520.148ZM739.1 518.945C740.693 518.945 741.592 517.781 741.592 515.797V515.781C741.592 513.789 740.693 512.633 739.1 512.633C737.506 512.633 736.608 513.789 736.608 515.781V515.797C736.608 517.781 737.506 518.945 739.1 518.945ZM744.92 520V511.578H746.28V517.859H746.405L750.569 511.578H751.928V520H750.569V513.719H750.444L746.28 520H744.92ZM763.999 520V516.188H759.827V520H758.468V511.578H759.827V515.062H763.999V511.578H765.358V520H763.999ZM770.031 520.148C768.429 520.148 767.218 519.18 767.218 517.648V517.633C767.218 516.133 768.328 515.266 770.288 515.148L772.703 515V514.234C772.703 513.195 772.07 512.633 770.812 512.633C769.804 512.633 769.14 513.008 768.921 513.664L768.913 513.688H767.554L767.562 513.641C767.781 512.32 769.062 511.43 770.859 511.43C772.913 511.43 774.062 512.484 774.062 514.234V520H772.703V518.758H772.578C772.046 519.656 771.163 520.148 770.031 520.148ZM768.609 517.617C768.609 518.469 769.335 518.969 770.312 518.969C771.695 518.969 772.703 518.062 772.703 516.859V516.094L770.453 516.234C769.171 516.312 768.609 516.766 768.609 517.602V517.617ZM776.375 520V511.578H779.945C781.539 511.578 782.468 512.445 782.468 513.766V513.781C782.468 514.617 781.883 515.406 781.093 515.57V515.695C782.164 515.844 782.843 516.594 782.843 517.57V517.586C782.843 519.047 781.773 520 779.961 520H776.375ZM777.734 515.141H779.531C780.625 515.141 781.117 514.719 781.117 513.922V513.906C781.117 513.188 780.695 512.703 779.75 512.703H777.734V515.141ZM777.734 518.875H779.906C780.937 518.875 781.461 518.406 781.461 517.562V517.547C781.461 516.656 780.859 516.266 779.648 516.266H777.734V518.875ZM784.82 520V511.578H786.18V514.281H787.828C789.758 514.281 790.992 515.391 790.992 517.133V517.148C790.992 518.891 789.758 520 787.828 520H784.82ZM792.461 520V511.578H793.82V520H792.461ZM787.828 515.406H786.18V518.875H787.828C788.938 518.875 789.633 518.188 789.633 517.148V517.133C789.633 516.086 788.93 515.406 787.828 515.406ZM797.961 516.164H797.532V520H796.172V511.578H797.532V515.102H797.961L801.219 511.578H802.852L799.063 515.547L803 520H801.258L797.961 516.164ZM804.555 520V511.578H805.915V517.859H806.04L810.204 511.578H811.563V520H810.204V513.719H810.079L805.915 520H804.555Z" fill="#4D535B"/>
<rect x="355.5" y="565" width="465" height="72" rx="8" fill="#0166FF"/>
<path d="M530.992 607V595.727H535.383C537.594 595.727 539.125 597.211 539.125 599.422V599.438C539.125 601.641 537.594 603.148 535.383 603.148H532.742V607H530.992ZM534.945 597.203H532.742V601.68H534.945C536.461 601.68 537.344 600.859 537.344 599.445V599.43C537.344 598.023 536.461 597.203 534.945 597.203ZM544.414 607.164C541.93 607.164 540.43 605.469 540.43 602.781V602.773C540.43 600.125 541.961 598.352 544.328 598.352C546.696 598.352 548.149 600.062 548.149 602.609V603.203H542.133C542.164 604.828 543.055 605.773 544.453 605.773C545.539 605.773 546.188 605.234 546.391 604.797L546.422 604.734L548.055 604.727L548.039 604.797C547.758 605.914 546.586 607.164 544.414 607.164ZM544.336 599.742C543.18 599.742 542.305 600.531 542.157 601.992H546.469C546.336 600.477 545.485 599.742 544.336 599.742ZM549.993 607V598.516H551.688V605.648H554.594V598.516H556.29V605.648H559.196V598.516H560.891V607H549.993ZM565.493 607.141C563.876 607.141 562.681 606.156 562.681 604.617V604.602C562.681 603.086 563.821 602.203 565.845 602.078L568.142 601.945V601.195C568.142 600.266 567.556 599.75 566.407 599.75C565.47 599.75 564.853 600.094 564.649 600.695L564.642 600.727H563.009L563.017 600.672C563.22 599.281 564.556 598.352 566.485 598.352C568.618 598.352 569.821 599.414 569.821 601.195V607H568.142V605.797H568.009C567.509 606.656 566.618 607.141 565.493 607.141ZM564.368 604.547C564.368 605.328 565.032 605.789 565.946 605.789C567.212 605.789 568.142 604.961 568.142 603.867V603.141L566.071 603.273C564.899 603.344 564.368 603.766 564.368 604.531V604.547ZM578.384 598.516V599.852H575.712V607H574.017V599.852H571.345V598.516H578.384ZM579.955 607V598.516H581.65V601.148H583.314C585.283 601.148 586.541 602.281 586.541 604.062V604.078C586.541 605.867 585.283 607 583.314 607H579.955ZM583.173 602.484H581.65V605.664H583.173C584.197 605.664 584.838 605.023 584.838 604.078V604.062C584.838 603.109 584.189 602.484 583.173 602.484ZM595.377 607.164C593.494 607.164 592.033 606.289 591.854 604.758L591.846 604.695H593.518L593.533 604.75C593.705 605.422 594.401 605.828 595.362 605.828C596.502 605.828 597.174 605.289 597.174 604.523V604.508C597.174 603.688 596.541 603.289 595.362 603.289H594.096V602.055H595.354C596.377 602.055 596.908 601.641 596.908 600.859V600.844C596.908 600.18 596.401 599.688 595.385 599.688C594.479 599.688 593.83 600.102 593.705 600.742L593.697 600.781H592.072L592.08 600.727C592.276 599.289 593.494 598.344 595.424 598.344C597.385 598.344 598.557 599.266 598.557 600.672V600.688C598.557 601.562 597.994 602.289 597.112 602.492V602.625C598.268 602.867 598.846 603.539 598.846 604.492V604.508C598.846 606.078 597.471 607.164 595.377 607.164ZM603.034 607.141C601.417 607.141 600.221 606.156 600.221 604.617V604.602C600.221 603.086 601.362 602.203 603.385 602.078L605.682 601.945V601.195C605.682 600.266 605.096 599.75 603.948 599.75C603.01 599.75 602.393 600.094 602.19 600.695L602.182 600.727H600.549L600.557 600.672C600.76 599.281 602.096 598.352 604.026 598.352C606.159 598.352 607.362 599.414 607.362 601.195V607H605.682V605.797H605.549C605.049 606.656 604.159 607.141 603.034 607.141ZM601.909 604.547C601.909 605.328 602.573 605.789 603.487 605.789C604.753 605.789 605.682 604.961 605.682 603.867V603.141L603.612 603.273C602.44 603.344 601.909 603.766 601.909 604.531V604.547ZM610.128 609.227H608.565V605.648H609.253C609.878 605.266 610.159 604.227 610.237 603.086L610.55 598.516H616.675V605.648H618.003V609.227H616.448V607H610.128V609.227ZM614.987 605.648V599.867H612.011L611.776 603.156C611.698 604.133 611.495 604.992 611.112 605.516V605.648H614.987ZM621.722 607.141C620.105 607.141 618.909 606.156 618.909 604.617V604.602C618.909 603.086 620.05 602.203 622.073 602.078L624.37 601.945V601.195C624.37 600.266 623.784 599.75 622.636 599.75C621.698 599.75 621.081 600.094 620.878 600.695L620.87 600.727H619.238L619.245 600.672C619.448 599.281 620.784 598.352 622.714 598.352C624.847 598.352 626.05 599.414 626.05 601.195V607H624.37V605.797H624.238C623.738 606.656 622.847 607.141 621.722 607.141ZM620.597 604.547C620.597 605.328 621.261 605.789 622.175 605.789C623.441 605.789 624.37 604.961 624.37 603.867V603.141L622.3 603.273C621.128 603.344 620.597 603.766 620.597 604.531V604.547ZM635.066 607H633.378V603.547H633.246C632.793 603.883 632.128 604.078 631.246 604.078C629.214 604.078 628.105 602.859 628.105 601V598.516H629.8V600.906C629.8 601.984 630.355 602.625 631.449 602.625C632.394 602.625 633.05 602.383 633.378 602.031V598.516H635.066V607ZM637.34 607V598.516H639.019V604.469H639.168L643.004 598.516H644.683V607H643.004V601.023H642.855L639.019 607H637.34Z" fill="#FCFCFD"/>
<path d="M424 329.5H460.5L482.5 312L548.5 327L504.5 378L473.5 365.5L415 337.5L424 329.5Z" fill="white"/>
<g filter="url(#filter0_dd_205_2350)">
<rect x="180" y="-544" width="831" height="859" rx="415.5" fill="white"/>
</g>
<path fill-rule="evenodd" clip-rule="evenodd" d="M569.551 314.069C569.537 314.032 569.52 313.995 569.5 313.959L569.233 313.463L576.326 297.931C576.554 297.424 576.327 296.828 575.819 296.601C575.312 296.374 574.717 296.601 574.489 297.108L568.217 311.117L561.15 298.002C560.886 297.513 560.275 297.33 559.786 297.594C559.297 297.857 559.114 298.468 559.378 298.957L567.18 313.435L566.984 313.873C566.972 313.9 566.961 313.927 566.951 313.954L533.598 345.84L533.125 345.593L505.699 379.85C505.409 380.213 504.909 380.33 504.488 380.134L414.19 338.026C413.55 337.727 413.408 336.88 413.916 336.39L418.164 332.284C420.932 329.61 424.63 328.114 428.479 328.114H459.739L475.593 315.597L434.099 293.962L517.06 213.559L461.555 203.772L464.453 187.334L431.541 178.712C431.092 178.594 430.782 178.185 430.79 177.721L432.237 94.8075L395.529 108.371C393.775 112.491 391.094 116.594 387.497 120.993C379.267 131.059 369.457 136.697 358.004 136.697C347.329 136.697 337.327 130.819 328.661 121.023C321.337 112.744 318 105.724 318 96.4403C318 87.7929 320.958 78.9122 325.962 72.0432C333.316 61.9472 344.882 56.1835 358.004 56.1835C365.792 56.1835 373.379 59.4146 381.074 65.174L392.204 47.8945C396.423 41.3436 403.44 37.1174 411.203 36.4507L446.01 33.4615C447.6 33.3249 449.161 33.9546 450.211 35.1568C452.03 37.2403 451.817 40.4044 449.733 42.2242L446.198 45.3123C445.343 46.0593 444.869 47.1517 444.909 48.2865C444.982 50.3696 446.729 51.9993 448.812 51.9265L455.047 51.7088C456.618 51.6539 458.115 52.3777 459.048 53.6431C460.609 55.7608 460.158 58.7429 458.04 60.3039L453.444 63.6918C452.594 64.3184 452.045 65.2724 451.931 66.3222C451.706 68.3944 453.204 70.2567 455.276 70.4818L467.084 71.7645C468.982 71.9707 470.599 73.2327 471.261 75.0231C472.224 77.63 470.892 80.5241 468.285 81.4874L448.376 88.8439L459.639 112.473L475.775 123.126L479.901 99.7254L537.101 123.571L538.729 115.912C538.897 115.12 539.661 114.602 540.46 114.738L602.014 125.261C602.836 125.401 603.388 126.181 603.247 127.003C603.242 127.033 603.242 127.033 603.236 127.063C601.542 134.92 599.954 142.285 598.473 149.157L598.577 149.2L628.204 192.627C623.248 190.029 617.091 190.935 613.092 195.015C610.127 198.04 607.796 200.824 606.1 203.367C603.1 207.863 600.861 211.22 599.381 213.439L612.245 216.038C612.298 215.924 612.374 215.818 612.471 215.726C614.305 214.015 616.329 211.407 618.529 207.906C620.811 204.274 624.389 199.869 629.266 194.678C629.647 194.273 630.284 194.253 630.689 194.634C631.094 195.014 631.114 195.651 630.733 196.056C625.937 201.161 622.436 205.472 620.233 208.977C618.219 212.182 616.33 214.69 614.554 216.504L626.052 218.827C626.08 218.733 626.122 218.642 626.178 218.557C628.55 214.975 630.881 211.924 633.175 209.405C635.438 206.919 637.995 204.19 640.844 201.217C641.229 200.816 641.866 200.802 642.267 201.187C642.668 201.571 642.682 202.208 642.297 202.61C639.459 205.571 636.914 208.288 634.664 210.76C632.533 213.1 630.357 215.929 628.136 219.247L634.622 220.557C632.495 219.737 631.568 218.209 632.175 216.237C632.339 215.706 632.902 215.407 633.433 215.571C633.964 215.734 634.262 216.298 634.099 216.829C633.818 217.74 634.174 218.282 635.543 218.751C636.929 219.226 637.663 218.979 638.139 217.982C638.379 217.48 638.979 217.268 639.481 217.508C639.982 217.747 640.195 218.348 639.955 218.85C639.282 220.259 638.167 220.975 636.753 220.988L639.617 221.566C639.528 221.2 639.65 220.799 639.962 220.546L653.133 209.895C653.565 209.546 654.199 209.613 654.548 210.045C654.898 210.477 654.831 211.111 654.399 211.46L641.445 221.936L650.064 223.676L647.798 233.562V233.949L669.627 238.331L669.409 237.876L722.211 247.56L704.645 286.495L711.012 289.918C715.256 292.2 720.545 290.647 722.882 286.434C730.545 272.622 737.991 259.38 745.222 246.709C752.949 233.169 758.768 218.085 762.678 201.455C763.529 197.837 762.016 194.074 758.898 192.051L739.255 179.308C738.788 179.006 738.656 178.382 738.958 177.916C739.261 177.45 739.884 177.317 740.35 177.619L759.994 190.363C763.824 192.848 765.683 197.471 764.637 201.916C760.684 218.73 754.795 233.994 746.97 247.706C739.744 260.371 732.301 273.606 724.642 287.411C721.771 292.587 715.272 294.494 710.059 291.691L703.815 288.335L701 296C698.568 301.39 694.5 305 688.608 305.587L659.5 310.5L629.5 313.959L599.5 315L569.551 314.069ZM530.395 344.17L477.549 316.617L462.01 328.886L478.936 336.548C479.442 336.777 479.667 337.373 479.438 337.88C479.208 338.386 478.612 338.611 478.106 338.381L459.872 330.127H428.479C425.152 330.127 421.955 331.42 419.562 333.732L416.367 336.82L494.407 373.212C503.515 364.411 511.593 359.973 518.694 359.973C518.799 359.973 518.901 359.99 518.997 360.02L531.256 344.707L530.395 344.17ZM464.804 185.345L475.394 125.286L458.297 113.999C458.144 113.898 458.022 113.757 457.943 113.592L445.609 87.7175C444.227 84.8178 441.808 82.542 438.829 81.3398L434.515 79.5988L433.479 138.954C433.749 138.744 434.12 138.676 434.462 138.809C447.839 143.983 452.892 158.284 449.769 181.407L464.804 185.345ZM698.686 135.439C699.354 135.622 700.041 135.718 700.749 135.731C702.904 135.768 704.895 135.017 706.751 133.445C704.951 131.809 702.988 130.989 700.833 130.951C699.708 130.931 698.628 131.127 697.589 131.541C697.779 131.533 697.973 131.553 698.164 131.605C699.238 131.892 699.861 133.05 699.555 134.191C699.413 134.722 699.094 135.156 698.686 135.439ZM695.593 133.874C695.579 133.637 695.602 133.393 695.667 133.149C695.753 132.827 695.904 132.541 696.101 132.302C695.67 132.573 695.247 132.884 694.831 133.237C695.082 133.465 695.336 133.677 695.593 133.874ZM694.046 122.685L690.143 124.422C688.934 125.731 687.993 127.32 687.431 129.125L681.027 149.689C685.248 152.455 689.693 154.498 694.364 155.82C699.05 157.147 704.689 157.667 711.28 157.373L712.073 149.289C712.135 148.647 712.776 148.23 713.388 148.431C713.619 148.506 713.856 148.568 714.098 148.615C717.235 149.225 720.272 147.176 720.882 144.039C721.492 140.901 719.443 137.864 716.306 137.254C715.7 137.136 715.09 137.116 714.491 137.189C713.908 137.261 713.401 136.824 713.364 136.26C709.883 132.385 707.283 129.53 705.563 127.696C703.948 125.974 702.006 123.883 699.736 121.423C693.748 124.09 689.998 129.568 688.461 137.972L694.005 139.05C694.551 139.156 694.907 139.684 694.801 140.23C694.695 140.776 694.167 141.132 693.621 141.026L687.112 139.76C686.579 139.657 686.225 139.15 686.31 138.615C687.433 131.549 690.015 126.222 694.046 122.685ZM706.571 120.209C712.085 122.99 715.645 128.773 715.446 135.137C715.861 135.151 716.277 135.198 716.69 135.278C720.918 136.1 723.68 140.194 722.858 144.423C722.052 148.568 718.102 151.304 713.963 150.635L713.301 157.383C720.979 156.199 727.071 152.443 730.473 146.136C735.726 136.4 737.961 127.322 737.718 118.879C737.532 112.379 735.917 106.659 733.299 101.468C731.181 97.2704 724.902 92.0277 717.768 88.8545C709.266 85.073 700.691 84.5301 693.591 88.0487C685.589 92.0149 676.966 101.009 671.764 110.946C665.996 121.963 665.117 132.512 670.152 140.099C672.263 143.281 675.399 146.261 679.184 148.835L685.509 128.527C687.15 123.259 691.568 119.57 696.702 118.65C694.164 116.757 693.349 113.234 694.921 110.384C695.77 108.847 697.181 107.763 698.794 107.303C697.337 105.66 696.968 103.222 698.051 101.163C699.15 99.0737 701.472 97.9318 703.798 98.3372L707.719 99.0205C710.533 99.5109 712.417 102.19 711.927 105.004C711.926 105.01 711.925 105.016 711.924 105.022C711.591 106.895 710.34 108.382 708.708 109.091C710.573 110.443 711.593 112.796 711.129 115.208C711.128 115.214 711.126 115.22 711.125 115.227C710.644 117.682 708.831 119.551 706.571 120.209ZM723.385 64.289L716.808 86.2701C717.401 86.5036 717.994 86.752 718.586 87.0153C726.111 90.3626 732.745 95.9013 735.096 100.562C737.84 106.002 739.535 112.005 739.73 118.821C739.983 127.623 737.662 137.05 732.244 147.092C726.628 157.502 714.471 161.488 700.08 159.162C686.969 157.042 674.246 149.911 668.475 141.212C662.966 132.909 663.906 121.615 669.981 110.012C675.37 99.7168 684.292 90.4111 692.698 86.2452C699.353 82.9465 707.116 82.9333 714.914 85.5765L721.451 63.73C720.936 63.4529 720.501 63.0919 720.237 62.6882C719.237 61.1621 720.914 58.6399 722.345 57.9213C723.775 57.2027 725.588 58.4062 725.957 59.1486C726.327 59.8909 726.729 61.2843 725.699 63.2079C725.251 64.0459 724.346 64.3448 723.385 64.289ZM700.714 137.743C697.699 137.691 694.993 136.395 692.638 133.902C692.262 133.505 692.273 132.88 692.663 132.495C695.103 130.087 697.853 128.886 700.868 128.938C703.883 128.991 706.589 130.287 708.944 132.779C709.319 133.177 709.308 133.802 708.919 134.187C706.479 136.595 703.729 137.796 700.714 137.743ZM689.178 143.251C688.734 142.916 688.644 142.285 688.979 141.841C689.313 141.397 689.944 141.308 690.388 141.642C691.441 142.435 692.892 142.67 694.803 142.302C695.349 142.197 695.877 142.555 695.982 143.1C696.087 143.646 695.73 144.174 695.184 144.279C692.753 144.747 690.73 144.419 689.178 143.251ZM496.364 374.124L504.622 377.975L517.377 362.043C511.332 362.556 504.315 366.565 496.364 374.124ZM447.807 180.893C450.753 158.737 446.014 145.435 433.736 140.686C433.63 140.645 433.535 140.588 433.452 140.519L432.816 176.965L447.807 180.893ZM358.004 134.684C368.787 134.684 378.061 129.354 385.939 119.719C392.654 111.507 395.996 104.48 395.996 96.4403C395.996 84.9291 390.858 75.4209 381.299 67.8851C373.42 61.6739 365.757 58.1963 358.004 58.1963C345.519 58.1963 334.561 63.6575 327.589 73.2284C322.833 79.7568 320.013 88.2237 320.013 96.4403C320.013 105.164 323.142 111.746 330.168 119.689C338.488 129.094 348 134.684 358.004 134.684ZM406.152 200.054L400.266 228.292L416.984 240.48L395.662 242.995L378.986 262.377L381.76 238.298L365.913 225.199L388.271 225.097L406.152 200.054ZM339.384 309.622L356.232 332L374.237 329.173L362.513 343.989L364.184 366.387L350.926 349.714L332.896 351.433L346.768 337.472L339.384 309.622ZM789.714 54.6159L809.247 79.63L830.437 76.2332L816.486 93.0635L818.185 118.279L802.803 99.6507L781.597 101.8L798.061 85.9071L789.714 54.6159ZM849.073 179.889L841.812 206.942L855.124 219.39L836.232 219.273L819.611 234.379L824.587 213.667L812.132 200.517L831.673 202.853L849.073 179.889ZM830.954 334.504C830.46 333.993 829.932 333.508 829.369 333.06C847.488 323.685 861.438 316.269 864.393 314.27C873.541 308.08 873.98 296.937 865.137 291.206C859.142 287.32 845.599 289.746 824.728 298.693L813.629 304.539C818.471 307.852 822.124 311.608 823.726 314.717C825.947 319.028 828.265 325.064 828.856 332.669C826.156 330.706 822.7 329.618 818.384 330.566C804.978 333.509 800.93 343.395 787.801 337.695C774.672 331.994 773.595 323.658 760.029 326.467C755.478 327.409 751.965 328.117 749.49 328.591C755.288 315.722 766.423 303.896 776.62 298.949C788.273 293.296 801.936 297.234 811.698 303.281L823.825 296.894C823.849 296.881 823.873 296.87 823.898 296.859C845.405 287.635 859.444 285.117 866.232 289.517C876.33 296.062 875.821 308.968 865.521 315.937C862.554 317.944 848.83 325.249 830.954 334.504ZM827.688 347.903C826.439 353.466 824.21 359.544 820.623 366.106C810.084 385.389 779.715 381.914 761.077 369.964C741.242 379.834 725.614 387.394 722.363 388.501C712.498 391.862 704.216 384.3 702.514 372.252C701.419 364.503 713.329 354.6 738.193 341.996L744.544 338.651L744.462 339.833C753.095 335.66 759.592 334.294 763.952 335.736C770.493 337.898 788.405 351.831 799.743 347.941C810.587 344.22 824.051 338.366 827.688 347.903ZM759.157 368.673C755.164 365.858 751.818 362.641 749.479 359.183C745.709 353.609 744.814 347.007 745.895 340.215L739.124 343.781L739.11 343.788C715.115 355.95 703.597 365.527 704.507 371.971C705.234 377.119 707.345 381.574 710.358 384.325C713.5 387.193 717.416 388.06 721.714 386.596C724.847 385.528 739.903 378.249 759.157 368.673ZM824.763 298.675L824.691 298.709C824.703 298.704 824.715 298.699 824.728 298.693L824.763 298.675ZM623.153 69.6833L624.798 70.4432C624.837 70.4407 624.876 70.4404 624.915 70.4424C627.657 70.1017 629.137 68.9842 629.581 67.0584C630.043 65.0574 629.118 63.3507 626.593 61.7954C626.531 61.757 626.474 61.7128 626.423 61.6639L608.106 53.2803C607.922 53.1965 607.777 53.0646 607.676 52.9064C605.214 52.8742 603.826 53.8669 603.256 56.0261C602.633 58.3841 603.424 60.1479 605.776 61.5475C605.933 61.641 606.051 61.7635 606.132 61.9011C606.26 61.9063 606.389 61.9362 606.513 61.9933L622.75 69.4968C620.963 68.3436 620.578 66.4974 621.583 64.3331C622.615 62.1119 624.284 61.2513 626.261 62.0946C626.772 62.3127 627.009 62.904 626.791 63.4152C626.573 63.9264 625.982 64.164 625.471 63.9459C624.594 63.572 624.018 63.8691 623.409 65.1809C622.791 66.51 622.96 67.2656 623.902 67.8435C624.375 68.1342 624.524 68.7539 624.233 69.2277C624.002 69.6047 623.562 69.7757 623.153 69.6833ZM624.466 72.5073L605.669 63.8205C605.488 63.7369 605.343 63.6065 605.243 63.4502C602.73 64.0716 601.244 65.5098 600.656 67.855C600.238 69.5253 600.362 70.9745 601.014 72.2472C601.475 73.1485 602.225 73.8691 603.145 74.294L608.516 76.7774C608.575 76.7895 608.634 76.8071 608.692 76.8304L619.807 81.3129C622.721 81.5525 624.583 80.6333 625.609 78.5293C626.593 76.5116 626.245 74.559 624.466 72.5073ZM612.302 80.4567L610.371 97.0993L634.67 93.2744C638.245 92.7115 641.006 89.8315 641.417 86.2351L647.09 36.5893C643.431 33.5523 643.546 29.6438 647.321 25.3463C646.638 24.5519 645.585 24.0994 644.466 24.2281C641.008 24.6258 638.984 26.4166 638.214 29.7512C637.918 31.035 636.503 36.2951 633.956 45.5864C633.816 46.0968 633.305 46.4116 632.786 46.3069L622.11 44.1509L630.146 48.3385C630.173 48.3529 630.2 48.3685 630.226 48.3854C633.406 50.4375 634.73 53.0852 634.017 56.1714C633.435 58.6944 631.758 60.3574 629.112 61.1265C631.255 62.9176 632.105 65.0732 631.543 67.5112C630.992 69.8981 629.341 71.4477 626.728 72.1409C628.363 74.4945 628.616 76.956 627.418 79.4117C625.983 82.3537 623.26 83.6603 619.475 83.3043C619.378 83.2952 619.283 83.272 619.193 83.2357L612.302 80.4567ZM615.038 42.7229L611.551 42.0188C611.53 42.0145 611.508 42.013 611.486 42.0144C608.072 42.2294 606.265 43.4444 605.775 45.6818C605.295 47.8747 606.077 49.6102 608.248 51.0637C608.374 51.1476 608.471 51.2482 608.542 51.3586C608.677 51.3609 608.813 51.3904 608.943 51.45L626.697 59.5759C626.779 59.5428 626.866 59.5199 626.957 59.5089C629.927 59.153 631.55 57.9104 632.056 55.7186C632.559 53.538 631.658 51.7172 629.173 50.1015L615.167 42.8026C615.121 42.7789 615.078 42.7522 615.038 42.7229ZM648.11 27.5506C646.136 30.1222 645.91 32.2157 647.381 34.0467L648.089 27.849C648.101 27.7498 648.107 27.6502 648.11 27.5506ZM649.214 35.733C649.462 36.0727 649.478 36.5458 649.222 36.9076C649.174 36.9751 649.119 37.0349 649.06 37.0867L643.417 86.4637C642.903 90.9592 639.452 94.5592 634.983 95.2627L609.375 99.2937C608.717 99.3972 608.142 98.8449 608.218 98.1835L610.347 79.8414L602.3 76.121C600.972 75.5073 599.889 74.4664 599.222 73.1646C598.339 71.4389 598.171 69.491 598.704 67.3657C599.334 64.8491 600.823 63.0634 603.099 62.0577C601.245 60.3286 600.624 58.1078 601.31 55.5119C601.911 53.2359 603.281 51.7753 605.316 51.1876C603.832 49.528 603.311 47.5248 603.809 45.2515C604.514 42.0283 607.127 40.2722 611.359 40.0055C611.557 39.993 611.756 40.0066 611.95 40.0458L632.263 44.1478C634.641 35.4662 635.975 30.4999 636.253 29.2984C637.215 25.1299 639.936 22.723 644.236 22.2285C647.135 21.895 649.755 23.9748 650.089 26.8738C650.135 27.2737 650.135 27.6776 650.089 28.0775L649.214 35.733ZM626.824 56.4929C627.253 56.8467 627.313 57.481 626.96 57.9097C626.606 58.3384 625.971 58.3991 625.543 58.0454C623.849 56.6478 623.696 54.7339 625.016 52.694C626.347 50.6379 628.12 50.0181 629.96 51.1282C630.436 51.4154 630.589 52.034 630.302 52.5099C630.015 52.9858 629.396 53.1388 628.92 52.8516C628.104 52.3593 627.492 52.5734 626.706 53.7876C625.91 55.0179 625.972 55.7896 626.824 56.4929ZM619.953 78.4028C620.405 78.7259 620.51 79.3544 620.187 79.8067C619.864 80.2591 619.236 80.3639 618.783 80.0409C616.996 78.7648 616.71 76.8663 617.885 74.7392C619.069 72.5954 620.795 71.8534 622.707 72.8324C623.202 73.0857 623.398 73.6921 623.144 74.1869C622.891 74.6817 622.285 74.8774 621.79 74.6242C620.942 74.19 620.346 74.4463 619.647 75.7123C618.938 76.9952 619.054 77.7607 619.953 78.4028ZM584.841 212.395C583.96 216.484 583.393 219.113 583.141 220.283L645.833 232.585L647.581 225.563L584.841 212.395ZM565.867 216.894L581.104 219.884L582.816 211.969L523.036 199.422L521.406 207.094L565.867 216.894ZM583.374 209.389L601.158 127.157L540.597 116.804L523.457 197.441L583.374 209.389ZM564.078 156.11C565.665 156.877 567.04 158.061 567.584 159.143C569.04 162.039 569.137 165.463 566.983 169.462C565.642 171.953 562.803 172.888 559.544 172.361C556.645 171.892 553.833 170.313 552.514 168.319C551.195 166.326 551.414 163.705 552.784 161.083C553.966 158.821 555.918 156.78 557.805 155.842C558.551 155.471 559.349 155.274 560.171 155.234L557.976 150.691C557.735 150.191 557.944 149.589 558.445 149.347C558.945 149.106 559.547 149.315 559.789 149.816L561.461 153.276L561.993 149.913C562.08 149.364 562.596 148.989 563.145 149.076C563.694 149.163 564.068 149.679 563.981 150.227L563.404 153.874L566.202 150.847C566.58 150.439 567.216 150.414 567.625 150.791C568.033 151.168 568.058 151.805 567.68 152.213L564.078 156.11ZM562.985 157.822C561.44 157.133 559.921 157.038 558.701 157.644C557.217 158.382 555.563 160.111 554.568 162.016C553.503 164.053 553.347 165.93 554.192 167.209C555.173 168.691 557.484 169.989 559.865 170.374C562.361 170.777 564.34 170.126 565.211 168.508C567.037 165.117 566.96 162.382 565.786 160.047C565.443 159.367 564.295 158.406 562.985 157.822ZM611.384 210.986C611.579 210.466 612.159 210.202 612.679 210.397C613.2 210.592 613.463 211.172 613.269 211.692C612.498 213.748 610.739 214.516 608.38 213.932C606.003 213.343 604.84 211.868 605.29 209.767C605.407 209.224 605.942 208.878 606.485 208.995C607.029 209.111 607.375 209.646 607.258 210.19C607.058 211.121 607.46 211.631 608.864 211.978C610.287 212.331 610.996 212.021 611.384 210.986ZM624.523 214.495C624.718 213.974 625.298 213.71 625.818 213.905C626.339 214.1 626.603 214.68 626.408 215.2C625.638 217.257 623.878 218.025 621.519 217.44C619.142 216.852 617.979 215.377 618.429 213.276C618.546 212.732 619.081 212.386 619.624 212.503C620.168 212.619 620.514 213.154 620.397 213.698C620.198 214.63 620.599 215.139 622.003 215.487C623.426 215.839 624.135 215.529 624.523 214.495Z" fill="#0C0D0E"/>
<path fill-rule="evenodd" clip-rule="evenodd" d="M627.859 189.549L626.618 187.612L597.875 146.185L602.137 123.326L600.133 122.106L603.616 91.6355C603.847 89.6118 605.473 88.0319 607.503 87.8594L644.091 84.748V137.739L674.9 155.781L678.463 147.884C686.342 152.109 692.015 154.557 695.482 155.228C698.296 155.773 702.225 156.789 708.276 156.789C709.283 156.789 710.815 156.668 712.873 156.424L712.41 162.406L739.305 167.518C743.936 168.398 747.712 171.748 749.138 176.241L770.443 243.345C772.209 248.907 769.131 254.849 763.569 256.615C761.722 257.201 759.749 257.268 757.866 256.809L669.353 235.212L659.924 215.471C658.015 211.474 655.085 208.052 651.43 205.55L629.279 190.393C628.819 190.078 628.344 189.797 627.859 189.549ZM693.416 199.414C692.871 199.306 692.341 199.66 692.233 200.206C692.125 200.751 692.479 201.28 693.024 201.389L712.508 205.252C713.272 205.404 713.911 204.668 713.655 203.934L707.116 185.182C706.933 184.657 706.359 184.38 705.834 184.563C705.309 184.746 705.032 185.32 705.215 185.845L711.175 202.936L693.416 199.414Z" fill="#0166FF"/>
</g>
<defs>
<filter id="filter0_dd_205_2350" x="177" y="-547" width="837" height="865" filterUnits="userSpaceOnUse" color-interpolation-filters="sRGB">
<feFlood flood-opacity="0" result="BackgroundImageFix"/>
<feColorMatrix in="SourceAlpha" type="matrix" values="0 0 0 0 0 0 0 0 0 0 0 0 0 0 0 0 0 0 127 0" result="hardAlpha"/>
<feOffset dx="1" dy="1"/>
<feGaussianBlur stdDeviation="1"/>
<feComposite in2="hardAlpha" operator="out"/>
<feColorMatrix type="matrix" values="0 0 0 0 0.00392157 0 0 0 0 0.4 0 0 0 0 1 0 0 0 0.05 0"/>
<feBlend mode="normal" in2="BackgroundImageFix" result="effect1_dropShadow_205_2350"/>
<feColorMatrix in="SourceAlpha" type="matrix" values="0 0 0 0 0 0 0 0 0 0 0 0 0 0 0 0 0 0 127 0" result="hardAlpha"/>
<feOffset dx="-1" dy="-1"/>
<feGaussianBlur stdDeviation="1"/>
<feComposite in2="hardAlpha" operator="out"/>
<feColorMatrix type="matrix" values="0 0 0 0 0.00392157 0 0 0 0 0.4 0 0 0 0 1 0 0 0 0.05 0"/>
<feBlend mode="normal" in2="effect1_dropShadow_205_2350" result="effect2_dropShadow_205_2350"/>
<feBlend mode="normal" in="SourceGraphic" in2="effect2_dropShadow_205_2350" result="shape"/>
</filter>
<clipPath id="clip0_205_2350">
<rect width="1176" height="900" fill="white"/>
</clipPath>
</defs>
</svg>
