<svg width="264" height="187" viewBox="0 0 264 187" fill="none" xmlns="http://www.w3.org/2000/svg">
<path d="M0 8C0 3.58172 3.58172 0 8 0H256C260.418 0 264 3.58172 264 8V187H0V8Z" fill="#EBF3FF"/>
<path fill-rule="evenodd" clip-rule="evenodd" d="M114.614 40.8332L107.648 65.4524L120.716 60.8405L114.965 40.8332H119.366L120.451 44.8029H130.42L141.887 53.157L156.79 43.521L165.655 56.4453L147.716 69.9739L93.0345 87.3218L91.7613 90.885L84.3669 87.2142L82.644 90.7573C81.779 90.6962 80.805 91.5266 80.0642 92.3733L76.0765 90.0867L76.0784 90.0894L73.3035 93.5154L72.0995 97.6576L76.6947 100.37L76.5503 100.841L76.3555 101.362C75.9469 102.248 76.2303 103.3 77.0285 103.861C77.1613 103.954 77.3077 104.04 77.4678 104.118C78.3899 104.567 79.3135 104.47 80.2385 103.828C80.058 104.942 80.4349 105.719 81.3691 106.16C82.1738 106.539 82.9576 106.428 83.7205 105.826C83.7838 105.778 83.8469 105.726 83.9098 105.671C83.9473 106.834 84.387 107.637 85.2288 108.079C85.3412 108.138 85.454 108.185 85.5674 108.22L81.1199 120.667L54.5293 104.471L69.2693 97.7567L67.7718 97.7763L63.7775 99.5642L61.1783 96.2085L57.4196 94.2336L58.4881 89.9927L57.7954 85.7422L61.727 83.8095L64.6219 80.4841L68.456 82.315L72.7586 82.4188L73.608 86.6345L75.7205 89.5889L74.9818 88.4914L76.0744 90.0194C76.189 90.1797 76.4118 90.2167 76.5721 90.1021C76.7324 89.9875 76.7695 89.7646 76.6549 89.6044L74.2289 86.2116L73.3946 82.0708C73.3616 81.9074 73.22 81.7886 73.0534 81.7846L70.534 81.7238L96.9075 43.3308L107.954 45.465L108.464 44.1971L109.388 40.8332H114.614ZM60.8523 92.6864L63.1714 93.9136L64.7836 95.9825C64.8841 96.1115 65.0594 96.1556 65.209 96.0897L67.6603 95.009L70.3125 94.9929C70.4711 94.9919 70.61 94.8864 70.6534 94.7339L71.388 92.1561L73.0824 90.0629C73.1837 89.9378 73.1887 89.7605 73.0946 89.6299L71.5607 87.5001L71.0201 84.91C70.9864 84.7487 70.8466 84.6314 70.6819 84.6263L68.0351 84.5441L65.6695 83.4045C65.5247 83.3347 65.3511 83.3704 65.2456 83.4916L63.4767 85.5224L61.0635 86.6929C60.9207 86.7621 60.8408 86.9174 60.8675 87.0738L61.3121 89.6862L60.6727 92.2858C60.6336 92.4447 60.7076 92.6098 60.8523 92.6864ZM63.5727 93.3186L61.4321 92.1859L62.0228 89.7847C62.0345 89.7372 62.0363 89.6878 62.0281 89.6396L61.6159 87.2181L63.8537 86.1327C63.8969 86.1118 63.9354 86.0823 63.967 86.046L65.6049 84.1655L67.7935 85.2198C67.8385 85.2414 67.8874 85.2534 67.9373 85.255L70.3789 85.3308L70.8776 87.7201C70.8879 87.7689 70.9082 87.8151 70.9374 87.8557L72.3563 89.8258L70.7875 91.7637C70.7572 91.8011 70.7348 91.8442 70.7217 91.8904L70.0405 94.2809L67.5819 94.2958C67.5331 94.2961 67.4848 94.3064 67.4401 94.3261L65.1756 95.3246L63.6872 93.4147C63.6563 93.375 63.6172 93.3422 63.5727 93.3186ZM146.846 26.6504L148.055 31.1146L151.044 32.2605L148.055 33.7166L146.673 36.9976L145.453 33.7166L142.302 32.3504L145.453 31.1146L146.846 26.6504ZM158.22 26.6504L159.442 31.1146L162.461 32.2605L159.442 33.7166L158.046 36.9976L156.814 33.7166L153.631 32.3504L156.814 31.1146L158.22 26.6504ZM169.549 26.6504L170.771 31.1146L173.79 32.2605L170.771 33.7166L169.374 36.9976L168.142 33.7166L164.959 32.3504L168.142 31.1146L169.549 26.6504Z" fill="#0166FF"/>
<path fill-rule="evenodd" clip-rule="evenodd" d="M110.068 33.8837L109.847 34.0717C109.778 34.1302 109.69 34.1604 109.599 34.1562C108.138 34.089 107.413 34.576 107.276 35.6549C107.166 36.5235 107.45 37.172 108.153 37.5349C108.364 37.6439 108.802 37.827 109.456 38.0791C109.609 38.138 109.702 38.2935 109.682 38.4562L109.387 40.8195L109.39 40.8351L109.381 40.8719L109.38 40.8793C109.376 40.9118 109.367 40.9428 109.355 40.9717L109.067 42.1109C108.669 42.1192 108.279 42.0114 107.945 41.8059C107.873 42.4973 107.389 43.1074 106.679 43.3045C105.953 43.506 105.18 43.2177 104.763 42.5901L104.046 41.5094C103.549 40.7601 103.753 39.7494 104.502 39.2521C104.511 39.2462 104.52 39.2405 104.529 39.2348C105.045 38.9061 105.67 38.8759 106.196 39.1045C106.115 38.4523 106.372 37.7826 106.909 37.3561C106.594 36.8644 106.481 36.2509 106.568 35.5651C106.746 34.1643 107.709 33.4444 109.332 33.437L109.515 24.7801L114.006 25.9495C114.063 25.9644 114.123 25.9649 114.181 25.9508L118.951 24.7835L119.103 33.3074L119.582 36.8461C119.852 37.1752 120.01 37.5787 120.039 37.9965C120.627 37.6583 121.385 37.6882 121.952 38.1309C122.542 38.591 122.766 39.3802 122.506 40.0817L122.019 41.395C121.711 42.2256 120.788 42.6491 119.957 42.341C119.946 42.3368 119.935 42.3326 119.924 42.3282C119.854 42.3006 119.787 42.269 119.723 42.2339C119.542 41.6494 119.423 41.1832 119.367 40.8351C119.356 40.765 119.346 40.6076 119.337 40.3631L118.333 32.9364L118.02 32.6423C117.975 32.6016 117.93 32.5612 117.886 32.5211C118.305 33.6162 118.489 34.9066 118.438 36.3873C118.432 36.5795 118.274 36.7319 118.082 36.7319H115.979C115.782 36.7319 115.622 36.5722 115.622 36.3751C115.622 36.1781 115.782 36.0183 115.979 36.0183H117.732C117.755 33.3048 116.916 31.3746 115.214 30.1868C114.358 30.8125 113.626 31.344 113.017 31.7813C112.37 32.2464 111.387 32.9472 110.068 33.8837ZM167.604 45.8711C167.604 45.877 167.603 45.883 167.602 45.8889C167.348 47.4134 167.957 48.2086 169.552 48.4092L173.128 45.4085C173.159 45.3825 173.194 45.3636 173.23 45.3517C173.235 45.3432 173.24 45.3348 173.245 45.3264C173.701 44.63 173.683 44.0205 173.194 43.4177C172.737 42.8532 172.203 42.6672 171.538 42.8368L167.604 45.8711ZM166.952 45.6333C166.978 45.5847 167.015 45.5393 167.062 45.5011L171.193 42.3147C171.202 42.3046 171.213 42.2948 171.224 42.2854L176.672 37.8485C177.234 36.9875 177.281 36.326 176.864 35.7989C176.414 35.229 175.702 35.0814 174.665 35.3804C174.655 35.3831 174.646 35.3874 174.639 35.3932L165.016 42.5215C164.815 42.671 164.528 42.5441 164.505 42.2952C164.421 41.3833 164.361 40.7068 164.325 40.2652C164.319 40.1875 164.313 40.1057 164.307 40.0121C164.304 39.9494 164.3 39.8935 164.295 39.7902C164.249 38.9324 164.196 38.5983 164.025 38.3486C163.798 38.0157 163.528 37.747 163.216 37.5407C162.735 37.2234 162.086 37.3568 161.765 37.8387C161.685 37.9593 161.63 38.095 161.605 38.2374L160.531 44.413C160.537 44.4191 160.542 44.4255 160.547 44.4321C160.667 44.5888 160.637 44.8127 160.48 44.9323L158.933 46.1139C158.776 46.2335 158.552 46.2035 158.433 46.0469C158.425 46.0373 158.419 46.0274 158.412 46.0174C158.317 45.8632 158.353 45.659 158.5 45.5468L159.865 44.5038C159.866 44.491 159.868 44.4781 159.87 44.4651L160.315 41.9055H143.285C137.866 41.9055 133.473 37.5126 133.473 32.0935C133.473 26.6745 137.866 22.2815 143.285 22.2815H184.673C190.092 22.2815 194.485 26.6745 194.485 32.0935C194.485 34.6309 193.522 36.9434 191.942 38.6852H200.204H219.163L220.621 105.942L171.191 97.9216L168.295 55.0383C167.691 55.1668 167.058 55.1202 166.475 54.8971L165.273 55.6127C165.114 55.6938 164.92 55.6316 164.84 55.4737C164.76 55.3158 164.823 55.1221 164.982 55.0409L166.176 54.3295C166.266 54.2158 166.425 54.1733 166.562 54.2357C167.364 54.5998 168.304 54.5317 169.053 54.0366L170.37 53.1669L171.581 52.1069C169.863 51.8022 169.061 50.7635 169.277 49.0904C167.417 48.7905 166.586 47.6433 166.898 45.7717C166.907 45.7206 166.926 45.6738 166.952 45.6333ZM170 48.8485C170.016 48.9 170.02 48.956 170.01 49.0127C169.753 50.5072 170.385 51.2746 172.045 51.452C172.118 51.4598 172.184 51.4893 172.236 51.5334L175.554 48.6301C176.075 48.1743 176.204 47.4165 175.861 46.8197C175.793 46.7009 175.709 46.5823 175.61 46.464C175.108 45.8682 174.452 45.6531 173.593 45.813C173.577 45.8401 173.555 45.8651 173.529 45.8868L170 48.8485ZM173.582 41.1919H184.673C189.698 41.1919 193.772 37.1184 193.772 32.0935C193.772 27.0686 189.698 22.9951 184.673 22.9951H143.285C138.26 22.9951 134.186 27.0686 134.186 32.0935C134.186 37.1184 138.26 41.1919 143.285 41.1919H160.439L160.971 38.1301C161.012 37.8993 161.1 37.68 161.23 37.4851C161.747 36.7068 162.796 36.4913 163.573 37.0038C163.955 37.2565 164.284 37.584 164.557 37.9842C164.823 38.3725 164.885 38.7593 164.938 39.7523C164.943 39.8542 164.946 39.9091 164.95 39.9701C164.955 40.0593 164.96 40.1366 164.966 40.2093C164.987 40.46 165.015 40.7875 165.051 41.1919H165.734L174.257 34.8777C174.327 34.8259 174.406 34.787 174.489 34.7629C175.757 34.3975 176.74 34.6013 177.371 35.3985C177.988 36.1799 177.908 37.1506 177.181 38.2426C177.163 38.2696 177.141 38.2938 177.116 38.3143L173.582 41.1919ZM140.205 118.514L136.957 118.707L126.194 91.7494L114.871 110.717C115.789 111.859 115.945 113.744 115.187 115.114L115.185 115.118L113.874 117.48C113.092 118.888 111.225 119.709 109.691 119.395L97.6958 139.49L95.8686 144.476L101.964 145.987C103.632 146.4 104.992 147.601 105.609 149.205L105.907 149.978L114.371 150.034L109.831 140.064H138.746L134.365 128.697H139.9L140.205 118.514ZM162.328 117.2L166.001 123.009L172.343 124.581C174.01 124.994 175.371 126.195 175.988 127.798L176.354 128.747C176.376 128.805 176.382 128.864 176.376 128.919L179.901 141.918L138.86 159.057H75.7973L70.8162 149.748L72.3418 149.758L75.6109 139.49H74.2439L85.4525 108.528C85.3254 108.487 85.1988 108.434 85.0727 108.367C84.313 107.969 83.8384 107.311 83.6513 106.422C83.6149 106.403 83.5829 106.379 83.5559 106.35C82.8061 106.789 82.019 106.829 81.2267 106.455C80.3534 106.044 79.8897 105.356 79.8506 104.441C79.0131 104.828 78.1611 104.821 77.3212 104.412C77.1445 104.325 76.9817 104.23 76.8331 104.126C75.8976 103.468 75.5631 102.238 76.0355 101.198L77.2698 97.8951C77.2738 97.8845 77.2783 97.874 77.2833 97.8638C77.3098 97.8093 77.4078 97.5555 77.5853 97.0824C77.5977 97.0493 78.0262 95.9025 78.1685 95.5246C78.2178 95.3935 78.2652 95.268 78.3113 95.1466C78.8636 93.6893 79.2243 92.8002 79.4119 92.4805C79.5116 92.3106 79.7302 92.2536 79.9002 92.3534C80.0701 92.4531 80.1271 92.6717 80.0273 92.8417C79.8705 93.1089 79.5082 94.0021 78.9785 95.3995C78.9327 95.5204 78.8855 95.6455 78.8363 95.7761C78.6944 96.1529 78.2662 97.2991 78.2534 97.333C78.0715 97.8182 77.9786 98.0593 77.9332 98.1584L76.6995 101.46C76.6964 101.468 76.6929 101.477 76.6892 101.485C76.3528 102.214 76.5862 103.08 77.2434 103.542C77.3603 103.624 77.4903 103.7 77.6337 103.77C78.4362 104.161 79.2228 104.079 80.0447 103.508C80.0551 103.501 80.0657 103.494 80.0764 103.488L81.9805 98.7487C82.054 98.5658 82.2618 98.4772 82.4446 98.5506C82.6275 98.6241 82.7161 98.8319 82.6427 99.0147L80.5702 104.173C80.5683 104.178 80.5663 104.182 80.5642 104.187C80.5231 104.964 80.8388 105.484 81.531 105.81C82.2662 106.157 82.9608 106.022 83.6808 105.374C83.703 105.354 83.7265 105.338 83.7508 105.325L85.6335 100.77C85.7088 100.588 85.9174 100.501 86.0995 100.576C86.2816 100.651 86.3683 100.86 86.293 101.042L84.2915 105.884C84.3741 106.786 84.7437 107.389 85.4043 107.736C86.1251 108.114 86.8691 107.901 87.705 107.024L91.1563 98.8747C91.2383 98.6812 91.4688 98.6 91.6539 98.6996L95.3502 100.688C95.3429 99.8667 94.9217 99.1305 93.9487 97.9865C93.88 97.9056 93.8067 97.8212 93.7248 97.7283C93.7303 97.7346 92.9438 96.8583 92.6894 96.5624C92.2459 96.0464 91.8466 95.5413 91.4383 94.9672C91.3693 94.8702 91.3532 94.7452 91.3954 94.6339L92.628 91.381C92.631 91.3732 92.6342 91.3655 92.6377 91.358L91.6197 90.8551L99.5354 68.301L141.938 53.1447L163.711 117.118L162.328 117.2ZM96.9356 139.49H76.3598L73.0892 149.763L75.4534 149.779L78.2538 142.88C78.4012 142.516 78.9412 142.622 78.9412 143.014V149.802L98.0613 149.927H105.123L104.943 149.461C104.41 148.075 103.234 147.037 101.793 146.68L95.3109 145.073C95.1049 145.022 94.9887 144.803 95.0618 144.604L96.9356 139.49ZM140.92 118.471L140.62 128.519H142.994L143.32 120.696C143.334 120.366 143.751 120.231 143.956 120.489L150.328 128.519H175.501L175.322 128.054C174.789 126.668 173.613 125.63 172.171 125.273L165.69 123.667C165.601 123.645 165.523 123.589 165.474 123.511L161.515 117.248L140.92 118.471ZM76.2215 149.784L78.2276 149.797V144.841L76.2215 149.784ZM143.701 128.697H149.559L143.993 121.684L143.701 128.697ZM60.5172 95.8624L61.1797 96.2105L63.7789 99.5661L67.7731 97.7782L69.6522 97.7536L77.5332 121.284C77.6259 121.561 77.5773 121.865 77.403 122.099C77.1089 122.495 76.5501 122.577 76.1549 122.283L70.7273 118.244L68.7814 125.487C68.6936 125.813 68.4288 126.062 68.0974 126.129C67.6146 126.227 67.1438 125.915 67.0458 125.433L64.7207 113.977L61.4935 132.28C61.4435 132.564 61.2594 132.806 60.9993 132.93C60.5548 133.142 60.0223 132.954 59.8101 132.509L53.8171 119.956L40.5417 124.388C40.2596 124.482 39.9492 124.429 39.7139 124.247C39.324 123.946 39.2522 123.386 39.5534 122.996L60.5172 95.8624ZM177.426 70.8072C179.399 77.3565 197.911 89.6664 208.285 75.806C218.601 62.0211 208.03 49.7276 197.638 47.0974C187.246 44.4671 172.863 55.6671 177.426 70.8072ZM180.435 84.9315C180.424 84.9303 180.414 84.9292 180.403 84.9282C179.786 84.8717 179.241 85.326 179.184 85.9429C179.125 86.5829 179.587 87.1533 180.225 87.23L207.9 90.5598C207.91 90.5611 207.921 90.5622 207.931 90.5632C208.548 90.6197 209.094 90.1653 209.151 89.5484C209.209 88.9085 208.748 88.3381 208.11 88.2613L180.435 84.9315ZM180.626 90.3909C180.609 90.3886 180.592 90.3867 180.575 90.3851C179.964 90.3296 179.424 90.7797 179.369 91.3906C179.31 92.0387 179.771 92.6185 180.415 92.7072L194.851 94.6923C194.868 94.6946 194.885 94.6965 194.902 94.6981C195.512 94.7536 196.053 94.3035 196.108 93.6926C196.167 93.0446 195.706 92.4647 195.062 92.3761L180.626 90.3909ZM199.847 93.004C199.828 93.0014 199.809 92.9992 199.79 92.9975C199.184 92.943 198.648 93.3906 198.593 93.9972C198.535 94.6452 198.995 95.2251 199.639 95.3164L206.93 96.3504C206.948 96.3531 206.967 96.3552 206.986 96.3569C207.592 96.4114 208.128 95.9638 208.183 95.3572C208.241 94.7093 207.781 94.1293 207.137 94.038L199.847 93.004ZM186.592 54.8434L202.224 55.2503C202.659 55.0859 203.16 55.0646 203.682 55.1785C204.232 55.2987 204.748 55.561 205.019 55.878C205.287 56.1935 205.473 56.5488 205.567 56.9516C205.695 57.4935 205.643 58.0772 205.413 58.6864C205.112 59.4816 204.298 59.9106 203.252 59.9236C202.631 59.9314 202.002 59.7892 201.509 59.5334C200.826 62.0866 200.229 64.0428 199.717 65.4022C198.949 67.4405 197.597 68.3174 195.659 68.0328V73.1096L197.916 74.2124C198.436 74.4663 198.896 74.8285 199.264 75.2746C199.412 75.454 199.387 75.7194 199.207 75.8675C199.133 75.9287 199.04 75.9627 198.944 75.9638C196.884 75.986 195.23 75.9556 193.982 75.8726C192.678 75.7857 191.181 75.5191 189.493 75.0727C189.296 75.0205 189.178 74.8181 189.23 74.6207C189.238 74.5915 189.249 74.5634 189.264 74.5369C189.409 74.2737 189.655 74.081 189.945 74.0033L193.284 73.1096L193.864 68.0328C191.231 67.7758 189.619 66.8556 189.028 65.2721C188.641 64.2361 188.156 62.3896 187.572 59.7327C187.159 59.9692 186.641 60.0947 186.058 60.102C185.108 60.1139 184.143 59.8064 183.583 59.2867C182.953 58.7023 182.823 57.8179 183.158 56.8873C183.415 56.1729 183.93 55.495 184.505 55.1209C185.068 54.7551 185.78 54.6646 186.532 54.8297C186.552 54.8341 186.572 54.8386 186.592 54.8434ZM202.053 57.4432C202.015 57.5928 201.978 57.7408 201.94 57.8871C201.941 57.9857 201.969 58.0559 202.017 58.0983C202.235 58.292 202.773 58.4478 203.284 58.4417C203.762 58.4359 204.061 58.3036 204.12 58.1533C204.251 57.8183 204.28 57.5363 204.22 57.2928C204.18 57.1292 204.102 56.9846 203.981 56.8473C203.98 56.8465 203.979 56.8454 203.977 56.8441C203.969 56.8379 203.958 56.8301 203.945 56.8213C203.911 56.7999 203.866 56.7763 203.815 56.753C203.699 56.7 203.561 56.6545 203.427 56.6262C203.104 56.5584 202.833 56.5865 202.669 56.6887C202.439 56.8319 202.192 57.1327 202.053 57.4432ZM186.705 56.6308C186.696 56.6238 186.684 56.6151 186.669 56.6053C186.632 56.5815 186.584 56.5551 186.527 56.5291C186.4 56.4701 186.25 56.4193 186.102 56.3877C185.75 56.3122 185.453 56.3435 185.273 56.4574C184.997 56.6324 184.7 57.0183 184.56 57.3983C184.438 57.7289 184.459 57.9373 184.56 58.0291C184.799 58.2452 185.388 58.4189 185.947 58.412C186.469 58.4056 186.796 58.2581 186.861 58.0905C187.005 57.717 187.036 57.4026 186.971 57.131C186.927 56.9486 186.841 56.7874 186.709 56.6343C186.708 56.6334 186.707 56.6322 186.705 56.6308ZM176.248 32.0202L179.239 30.8469L180.581 26.5461C180.687 26.2054 181.172 26.2145 181.266 26.559L182.428 30.8483L185.247 31.9293C185.539 32.041 185.556 32.4465 185.276 32.5832L182.408 33.9806L181.077 37.1381C180.952 37.4359 180.527 37.4268 180.414 37.1239L179.248 33.9854L176.236 32.6797C175.944 32.5531 175.951 32.1364 176.248 32.0202ZM181.787 31.2099L180.897 27.9278L179.87 31.2228C179.838 31.3261 179.76 31.4092 179.659 31.4487L177.313 32.3689L179.671 33.3912C179.76 33.4299 179.83 33.5032 179.864 33.5942L180.769 36.0314L181.802 33.58C181.836 33.5004 181.897 33.4357 181.975 33.3978L184.225 32.3015L182.003 31.4497C181.897 31.4089 181.817 31.3198 181.787 31.2099ZM88.5278 106.911L105.076 116.072C105.102 116.08 105.128 116.091 105.152 116.105L105.473 116.292L109.441 118.488C109.45 118.493 109.459 118.498 109.468 118.503C108.699 117.356 108.821 115.913 109.791 114.23C110.78 112.513 111.624 111.188 112.323 110.254C112.361 110.203 112.41 110.165 112.465 110.141L96.0452 101.052C96.0365 101.14 96.0243 101.229 96.0085 101.32C95.9665 101.559 95.7023 101.688 95.4881 101.572L91.6607 99.5135L88.5278 106.911ZM112.961 110.416C112.975 110.507 112.953 110.603 112.894 110.682C112.215 111.589 111.386 112.892 110.409 114.586C109.541 116.094 109.457 117.272 110.114 118.182C110.68 118.113 111.108 117.892 111.415 117.521C112.412 116.317 113.1 115.16 113.365 114.236C113.624 113.335 113.469 112.753 112.912 112.466C112.736 112.376 112.667 112.161 112.757 111.986C112.847 111.811 113.062 111.742 113.238 111.832C114.145 112.297 114.394 113.237 114.051 114.432C113.755 115.466 113.019 116.703 111.965 117.976C111.705 118.29 111.386 118.525 111.01 118.682C111.921 118.494 112.81 117.926 113.25 117.134L114.561 114.771L114.562 114.769C115.137 113.731 115.062 112.312 114.472 111.385L114.453 111.418C114.238 111.185 113.983 110.981 113.69 110.819L112.961 110.416ZM58.6474 90.0051C58.8194 90.1013 58.8809 90.3186 58.7847 90.4907C58.6886 90.6627 58.4712 90.7242 58.2992 90.628L50.3359 86.177C48.3964 85.1033 47.6945 82.6606 48.7682 80.7211L48.7703 80.7172L49.4754 79.4469C50.5504 77.5101 52.9911 76.8102 54.9284 77.8826L62.6323 82.1237C62.8049 82.2188 62.8678 82.4358 62.7728 82.6084C62.6778 82.781 62.4608 82.8439 62.2882 82.7489L54.5835 78.5074C52.99 77.6253 50.9832 78.2007 50.0994 79.7932L49.3943 81.0635L49.3925 81.0667C48.5097 82.6614 49.0868 84.6699 50.6828 85.5534L58.6474 90.0051ZM125.837 90.9697L108.978 93.5565C108.783 93.5863 108.649 93.7685 108.679 93.9632C108.709 94.158 108.891 94.2917 109.086 94.2618L125.945 91.675C126.14 91.6451 126.273 91.463 126.243 91.2682C126.213 91.0734 126.031 90.9398 125.837 90.9697ZM170.353 53.1814L170.388 53.1548L170.37 53.1669L170.353 53.1814ZM169.995 46.9378C170.147 46.8121 170.372 46.8331 170.498 46.9848C170.624 47.1366 170.602 47.3615 170.451 47.4872C169.889 47.9525 169.243 47.8793 168.633 47.3235C168.014 46.7599 167.897 46.1332 168.375 45.5936C168.506 45.4462 168.731 45.4326 168.879 45.5634C169.026 45.6941 169.04 45.9196 168.909 46.0671C168.721 46.2788 168.757 46.4718 169.113 46.7961C169.478 47.1283 169.731 47.157 169.995 46.9378ZM172.486 49.8873C172.635 49.7577 172.86 49.7731 172.99 49.9216C173.119 50.07 173.104 50.2954 172.955 50.425C172.412 50.8993 171.778 50.8239 171.191 50.2609C170.604 49.6979 170.494 49.0803 170.946 48.544C171.073 48.3933 171.298 48.3741 171.449 48.5011C171.599 48.628 171.619 48.8531 171.492 49.0038C171.31 49.2189 171.346 49.421 171.685 49.746C172.024 50.0709 172.245 50.0973 172.486 49.8873ZM115.199 33.426C114.922 33.2589 114.622 33.1477 114.3 33.0908C113.643 32.9745 112.997 33.104 112.351 33.4881C112.827 34.0708 113.39 34.4141 114.048 34.5303C114.258 34.5676 114.468 34.5796 114.677 34.5661C114.582 34.4559 114.521 34.3127 114.51 34.1533C114.483 33.776 114.749 33.45 115.103 33.4252C115.136 33.423 115.168 33.4233 115.199 33.426ZM115.748 33.8573C115.772 33.9216 115.788 33.9909 115.793 34.0635C115.797 34.1282 115.793 34.1914 115.782 34.2518C115.853 34.2153 115.925 34.1757 115.997 34.133C115.917 34.0342 115.833 33.9424 115.748 33.8573ZM116.717 34.5131C115.82 35.1579 114.882 35.4025 113.924 35.233C112.965 35.0636 112.168 34.5125 111.544 33.599C111.435 33.439 111.473 33.2211 111.631 33.108C112.528 32.4632 113.466 32.2186 114.425 32.3881C115.383 32.5575 116.181 33.1086 116.804 34.0221C116.913 34.1821 116.875 34.4 116.717 34.5131ZM117.228 37.666C116.66 37.9432 115.995 37.9223 115.252 37.6232C115.07 37.5496 114.981 37.3417 115.055 37.159C115.128 36.9762 115.336 36.8877 115.519 36.9613C116.087 37.1902 116.546 37.2047 116.915 37.0247C117.092 36.9383 117.306 37.0118 117.392 37.1889C117.478 37.3659 117.405 37.5796 117.228 37.666ZM104.786 26.8964L105.035 22.7366L102.653 22.0217C102.417 21.9509 102.283 21.7022 102.354 21.4663C102.401 21.3094 102.53 21.1909 102.69 21.1577C106.488 20.3727 110.286 19.5877 114.083 18.8027C117.938 19.592 121.792 20.3813 125.646 21.1705C125.888 21.2199 126.043 21.4556 125.994 21.6969C125.961 21.8571 125.843 21.9865 125.687 22.0341L119.55 23.9021L114.099 25.2362L108.549 23.7911L105.737 22.9473L105.504 26.8521C105.686 26.9069 105.845 27.0139 105.947 27.1801C106.036 27.3247 106.065 27.5538 106.069 27.7393C106.073 27.9986 105.936 28.1964 105.781 28.3701C105.729 28.4279 105.66 28.4885 105.574 28.5385C105.744 28.679 105.856 28.9377 105.908 29.3146L106.804 33.0249C106.325 33.0082 106.086 32.9998 106.086 32.9998C106.009 32.6892 105.931 32.3787 105.854 32.0681C105.835 31.9909 105.766 31.9357 105.687 31.933C105.588 31.9295 105.506 32.0066 105.502 32.105L105.472 32.9783L104.849 32.9566L104.874 32.2352C104.877 32.1541 104.825 32.0814 104.747 32.0581C104.653 32.0298 104.554 32.0834 104.525 32.1778L104.298 32.9373L103.746 32.918C104.162 31.0188 104.379 29.8001 104.398 29.2618C104.414 28.8178 104.498 28.5999 104.663 28.4969C104.425 28.3667 104.307 28.1828 104.3 27.7701C104.296 27.5814 104.388 27.355 104.475 27.2058C104.557 27.0644 104.66 26.9619 104.786 26.8964Z" fill="#0C0D0E"/>
</svg>
